<?xml version="1.0" encoding="UTF-8" standalone="no"?>
<!-- Created with Inkscape (http://www.inkscape.org/) -->

<svg
   xmlns:dc="http://purl.org/dc/elements/1.1/"
   xmlns:cc="http://creativecommons.org/ns#"
   xmlns:rdf="http://www.w3.org/1999/02/22-rdf-syntax-ns#"
   xmlns:svg="http://www.w3.org/2000/svg"
   xmlns="http://www.w3.org/2000/svg"
   xmlns:sodipodi="http://sodipodi.sourceforge.net/DTD/sodipodi-0.dtd"
   xmlns:inkscape="http://www.inkscape.org/namespaces/inkscape"
   width="744.09448819"
   height="1052.3622047"
   id="svg2"
   version="1.1"
   inkscape:version="0.48.2 r9819"
   sodipodi:docname="dopnot.svg">
  <defs
     id="defs4" />
  <sodipodi:namedview
     id="base"
     pagecolor="#ffffff"
     bordercolor="#666666"
     borderopacity="1.0"
     inkscape:pageopacity="0.0"
     inkscape:pageshadow="2"
     inkscape:zoom="0.49497475"
     inkscape:cx="-250.04356"
     inkscape:cy="503.78502"
     inkscape:document-units="px"
     inkscape:current-layer="layer1"
     showgrid="false"
     inkscape:window-width="1436"
     inkscape:window-height="856"
     inkscape:window-x="4"
     inkscape:window-y="0"
     inkscape:window-maximized="1" />
  <metadata
     id="metadata7">
    <rdf:RDF>
      <cc:Work
         rdf:about="">
        <dc:format>image/svg+xml</dc:format>
        <dc:type
           rdf:resource="http://purl.org/dc/dcmitype/StillImage" />
        <dc:title></dc:title>
      </cc:Work>
    </rdf:RDF>
  </metadata>
  <g
     inkscape:label="Layer 1"
     inkscape:groupmode="layer"
     id="layer1">
    <path
       style="fill:#000000;stroke:#000000"
       id="path4262"
       d="m -587.64804,84.778323 c -24.91685,8.573814 -47.89129,21.539107 -70.8507,34.273847 1.85633,-0.99195 7.32905,-4.13 5.56897,-2.97586 -34.27295,22.47373 -0.41261,-1.29317 -34.14959,21.69866 -17.64437,12.02469 -34.45908,25.12116 -51.21427,38.33492 -27.01451,22.00287 -51.8152,46.92219 -71.07024,76.10175 -3.45851,5.24112 -6.48688,10.75374 -9.73032,16.13061 -13.90769,25.8212 -20.53695,54.43054 -24.75803,83.21544 -1.96721,17.33507 -5.11351,34.49595 -7.55011,51.76471 -1.04147,9.3867 -2.22388,18.75909 -3.24124,28.14921 -0.39806,8.10218 -2.03161,16.04031 -3.42066,24.00784 -1.56252,6.92507 -2.19748,14.00277 -2.98331,21.04408 0,0 -26.01434,12.92504 -26.01434,12.92504 l 0,0 c 0.63888,-6.99307 0.86108,-14.06089 2.2847,-20.95399 1.47591,-7.90485 3.53959,-15.75369 3.56541,-23.84998 1.06099,-9.52839 2.66633,-18.99225 3.71131,-28.52357 2.8941,-17.32669 6.01151,-34.61523 8.13581,-52.05946 4.86365,-29.23692 11.85348,-58.41526 25.70736,-84.83551 3.27799,-5.46774 6.34275,-11.0691 9.83396,-16.40322 19.26523,-29.43473 43.95565,-54.74802 71.12556,-76.93303 16.62265,-13.22548 33.27817,-26.3806 50.79526,-38.42141 23.86709,-16.40566 49.08678,-30.74797 74.16738,-45.16951 16.10736,-8.91267 32.16344,-17.980651 48.89864,-25.688582 7.81516,-3.59952 11.9669,-4.989453 19.47592,-8.133603 1.72138,-0.720773 3.41692,-1.501789 5.12538,-2.252684 0,0 -23.41285,18.554302 -23.41285,18.554302 z"
       inkscape:connector-curvature="0" />
    <path
       style="fill:#000000;stroke:#000000"
       id="path4264"
       d="m -858.21255,487.31701 c 21.1247,-4.34263 42.57413,-6.36808 64.04681,-7.9973 49.98266,-3.26093 100.03934,-1.35394 149.9847,1.41888 63.60769,4.14112 127.301,6.49851 191.02858,7.56808 31.80359,0.46538 63.61054,0.37607 95.41598,0.25207 23.33462,-0.0272 46.67262,-0.23293 70.00216,0.30426 24.60338,1.20162 49.20597,2.35924 73.83096,3.00828 14.27866,0.33981 28.56188,0.40603 42.84397,0.38467 10.55088,-0.0105 21.10186,-7e-5 31.65225,-0.11356 0,0 -23.90872,17.37427 -23.90872,17.37427 l 0,0 c -10.46272,-0.0949 -20.92578,-0.0513 -31.38874,-0.0918 -14.1234,-0.10257 -28.24845,-0.24532 -42.36147,-0.8452 -24.42474,-1.02498 -48.82818,-2.50641 -73.26015,-3.36281 -23.4204,-0.27886 -46.84051,0.0662 -70.26204,-0.0596 -31.12712,-0.20053 -62.25134,-0.75599 -93.36185,-1.81975 -63.32879,-2.12732 -126.64321,-4.67994 -189.89795,-8.46177 -26.83328,-1.2354 -38.59158,-2.06761 -65.106,-2.1852 -29.13604,-0.12921 -58.29118,1.16742 -87.3609,2.99974 -22.06741,1.93871 -44.1153,4.41294 -65.6995,9.58267 0,0 23.80191,-17.95589 23.80191,-17.95589 z"
       inkscape:connector-curvature="0" />
    <path
       style="fill:#000000;stroke:#000000"
       id="path4266"
       d="m -155.06892,502.26239 c -5.09351,-25.02617 -16.17522,-48.2185 -26.47731,-71.41004 -14.84739,-33.93631 -30.66644,-67.49903 -49.89758,-99.20802 -4.49339,-7.40886 -9.2933,-14.62743 -13.93996,-21.94115 -16.7097,-24.6983 -33.58313,-49.46738 -52.90289,-72.23907 -9.88743,-11.65406 -16.28382,-18.01891 -26.81206,-29.02865 -14.46901,-14.99683 -29.69549,-29.31556 -47.42101,-40.41458 -8.57881,-5.37171 -17.70247,-10.0773 -26.60738,-14.8616 -20.62257,-10.47698 -40.98576,-21.53113 -62.17678,-30.83609 -12.10585,-5.78723 -24.76314,-10.24963 -37.16821,-15.31435 -10.49043,-4.95831 -21.13126,-9.608898 -32.17857,-13.18281 -7.88989,-3.77432 -16.15744,-6.388981 -24.66514,-8.32371 -7.29971,-1.333554 -14.57543,-2.7365 -21.95187,-3.577508 -7.08294,-0.984331 -14.15192,-0.32461 -21.22665,0.292993 0,0 23.81581,-17.601509 23.81581,-17.601509 l 0,0 c 7.2244,-0.549411 14.46724,-0.972455 21.66911,0.150477 7.35037,1.040872 14.65873,2.347256 21.8978,4.002155 8.54246,2.133981 16.91151,4.728699 24.88281,8.52155 10.88061,3.970932 21.43282,8.733253 31.98198,13.501902 12.415,4.970831 24.9617,9.64246 36.9495,15.61581 20.74497,9.8756 40.79707,21.1009 61.16826,31.71153 8.6261,4.60586 18.65688,9.75912 26.95707,14.98279 17.82093,11.21548 32.53178,26.19112 46.91725,41.41141 9.7763,10.31689 17.69219,18.36178 26.84677,29.27761 19.24338,22.94564 35.31959,48.30087 52.12349,73.01721 13.1591,20.40148 15.02008,22.67928 26.93857,43.51558 14.2907,24.98351 26.2935,51.15013 38.161,77.34669 10.61563,23.064 21.98481,45.8998 29.44447,70.23988 0,0 -26.32848,14.3515 -26.32848,14.3515 z"
       inkscape:connector-curvature="0" />
    <path
       style="fill:#000000;stroke:#000000"
       id="path4268"
       d="m -511.45317,172.79445 c 23.37297,2.233 45.68006,10.1409 67.78581,17.59445 15.49333,5.86009 31.58813,10.46535 46.51728,17.75436 8.10261,3.95601 10.2154,5.69899 17.78559,10.68045 16.32505,12.03318 32.56033,24.22824 48.31567,37.00368 8.49487,6.49808 12.68479,13.23376 17.19342,22.64599 4.11211,8.48902 6.32218,17.40678 7.03291,26.75604 -0.2274,6.25709 0.60281,12.91594 -1.17593,19.0444 -3.52021,12.12849 -24.62143,17.39484 -31.10294,20.03886 -2.07021,0.8445 -4.3563,-1.00915 -6.53445,-1.51372 -13.59756,-4.38991 -26.71389,-10.08336 -40.02397,-15.24262 -18.0858,-6.4496 -35.9231,-13.52716 -53.71177,-20.74417 -17.52708,-6.66139 -33.65507,-16.28555 -50.00925,-25.32987 -13.89302,-7.33879 -26.44454,-16.80437 -39.52563,-25.42264 -7.27336,-4.69115 -14.43839,-10.00567 -19.84213,-16.83451 -4.30857,-6.16576 -3.22583,-11.23229 -1.23672,-18.03622 2.28843,-8.1935 4.41709,-12.39305 11.41613,-17.31936 11.81175,-7.45797 2.79172,-1.81646 30.89101,-17.9067 30.15808,-17.26915 -80.69737,46.44981 10.44546,-5.78806 0.84084,-0.36852 1.68168,-0.73705 2.52252,-1.10557 0,0 -23.32162,18.57153 -23.32162,18.57153 l 0,0 c -0.79559,0.40539 -1.59118,0.81078 -2.38677,1.21618 78.04324,-45.21607 -63.96756,36.69375 12.32441,-7.46318 0.94424,-0.54651 -1.86916,1.12572 -2.80374,1.68858 -7.60256,4.52841 -9.79231,6.62643 -12.30933,15.4545 -1.75489,5.41331 -3.54609,10.38097 0.007,15.45401 5.14819,6.64926 12.0099,11.64706 18.91793,16.33581 12.67022,8.91027 25.13165,18.17621 38.78001,25.58565 16.29883,9.00946 32.54309,18.23666 49.96133,24.96383 17.78664,7.36438 35.61745,14.6276 53.97493,20.4815 13.21888,4.95527 25.98499,11.2737 39.74867,14.64392 2.04446,0.0947 7.62907,-1.11304 6.13337,0.28397 -6.17455,5.76713 -14.16168,9.21882 -21.24251,13.82823 0.85592,-1.0123 2.01904,-1.83015 2.56776,-3.03691 2.53729,-5.58007 1.32464,-12.4616 1.54149,-18.3154 -0.88942,-8.91951 -2.65631,-17.63646 -6.70827,-25.72983 -4.18978,-8.75124 -8.46326,-15.56478 -16.12333,-21.8342 -15.17373,-13.20815 -31.10878,-25.52908 -47.61949,-37.02353 -7.25011,-4.61904 -9.84149,-6.55856 -17.50609,-10.3237 -14.6821,-7.21239 -30.38636,-12.17174 -45.60748,-18.05616 -22.41874,-7.48207 -45.42488,-15.39542 -69.34043,-15.36711 0,0 24.26902,-17.63248 24.26902,-17.63248 z"
       inkscape:connector-curvature="0" />
    <path
       style="fill:#000000;stroke:#000000"
       id="path4270"
       d="m -554.39995,498.4762 c -0.6439,14.87579 -0.54094,29.76921 -0.39922,44.6539 0.12367,8.05201 0.30919,16.10258 0.37335,24.15528 -0.002,3.73587 0.002,1.83963 -0.015,5.68874 0,0 -26.5299,13.51766 -26.5299,13.51766 l 0,0 c -0.0174,-3.83504 -0.0126,-1.94388 -0.015,-5.6735 0.0646,-8.17949 0.25016,-16.35691 0.37335,-24.53574 0.13908,-14.74892 0.25575,-29.50747 -0.39922,-44.24708 0,0 26.61156,-13.55926 26.61156,-13.55926 z"
       inkscape:connector-curvature="0" />
    <path
       style="fill:#000000;stroke:#000000"
       id="path4272"
       d="m -443.26367,504.28551 c -0.80147,17.30033 -2.17398,34.56589 -3.12746,51.85824 -0.59591,9.94919 -0.86862,19.91192 -0.9358,29.87733 0,0 -26.54444,13.45495 -26.54444,13.45495 l 0,0 c 0.35452,-10.1521 1.01392,-20.29097 1.72257,-30.42365 1.33117,-17.01406 3.09266,-34.11084 2.23457,-51.18773 0,0 26.65056,-13.57914 26.65056,-13.57914 z"
       inkscape:connector-curvature="0" />
    <path
       style="fill:#000000;stroke:#000000"
       id="path4274"
       d="m -716.39145,594.32692 c 0.69421,-9.4848 -0.99464,-17.0233 -5.56966,-25.31634 -4.84829,-7.94784 -12.66138,-13.02358 -20.75402,-17.21043 -7.47768,-3.34396 -15.73292,-3.65892 -23.78972,-3.94357 -8.32983,0.0241 -16.68702,-0.56503 -25.01546,-0.27046 -6.58535,0.23292 -8.43912,0.67963 -14.81584,1.62034 -2.25545,0.54115 -4.54634,0.95149 -6.76633,1.62344 -3.76061,1.13826 -10.73097,4.02565 -14.11767,5.71287 -2.49758,1.24428 -9.75991,5.41493 -7.31472,4.07063 19.46517,-10.70139 22.95205,-13.56018 10.67482,-4.83509 -11.76262,9.52381 -18.14069,18.97418 -22.77657,33.23206 -3.24455,10.71623 -2.67677,20.66808 -0.36953,31.43776 1.77459,8.72149 5.59428,16.75705 9.16757,24.83727 3.84199,8.03915 8.14472,15.79279 14.23755,22.32799 7.35757,7.08703 16.15659,12.21991 25.127,16.9503 9.00841,4.64164 18.8445,6.07368 28.79833,6.98147 11.66557,1.2168 21.61259,0.7862 32.95656,-2.18049 5.27452,-1.75806 4.43233,-1.28227 9.39159,-3.70217 1.47467,-0.71958 5.79193,-3.08462 4.37138,-2.26336 -38.44467,22.226 -22.63903,13.47049 -14.38431,6.93201 7.16071,-5.59133 13.11665,-12.08858 17.62844,-19.96111 4.07561,-8.08203 6.27213,-16.94383 7.90136,-25.801 1.23008,-7.62395 1.48409,-15.35294 1.57275,-23.06028 0.0972,-5.29576 -0.045,-10.59133 -0.0619,-15.8867 0.003,-4.73943 -0.002,-9.47884 -0.0182,-14.2183 -0.22021,-5.10467 -1.07899,-10.0759 -3.06312,-14.78683 -2.79201,-5.26237 -5.14124,-9.86333 -9.86889,-13.64166 -5.92756,-3.91201 -12.97348,-5.33661 -19.691,-7.3135 0,0 24.62551,-16.79128 24.62551,-16.79128 l 0,0 c 6.96063,2.23954 14.21505,4.00399 20.23502,8.36665 4.75032,4.10961 7.89773,9.18208 10.67859,14.78651 2.2113,5.061 3.27448,10.30683 3.71209,15.81033 -0.01,4.73399 -0.008,9.46782 0.0299,14.20167 0.0233,5.34221 -0.0555,10.68496 -0.0757,16.02718 -0.1809,7.87287 -0.44671,15.7612 -1.56129,23.568 -1.50542,9.1321 -3.7562,18.19886 -7.53796,26.67785 -4.27796,8.44251 -9.7065,15.026 -17.08705,20.98189 -14.61516,12.37499 -31.77841,22.31953 -50.11663,27.86424 -11.5544,2.48688 -21.72254,2.64815 -33.46294,1.34961 -10.28296,-1.06513 -20.43243,-2.78428 -29.62564,-7.82244 -9.14252,-4.9959 -18.04129,-10.54832 -25.6161,-17.77646 -1.14998,-1.22549 -2.37747,-2.38261 -3.44995,-3.67647 -4.80898,-5.80166 -7.67415,-12.9551 -11.33803,-19.45823 -3.74193,-8.23848 -7.59254,-16.48439 -9.31088,-25.44086 -2.51292,-10.98742 -3.43159,-21.8541 -0.18671,-32.85487 4.32417,-14.68703 10.64767,-25.01339 22.38817,-35.09865 15.95305,-11.76474 7.34511,-5.76299 38.52704,-23.80716 8.9757,-5.19401 18.77608,-9.03673 29.02415,-10.72066 13.47328,-1.55062 27.02033,-1.5162 40.56897,-1.25464 8.39053,0.45219 16.93005,1.12128 24.52959,5.05439 8.37242,4.73619 16.53367,10.24239 21.53037,18.7069 4.74506,8.61647 6.88187,16.50974 6.71963,26.39251 0,0 -26.65056,13.57914 -26.65056,13.57914 z"
       inkscape:connector-curvature="0" />
    <path
       style="fill:#000000;stroke:#000000"
       id="path4276"
       d="m -826.69661,590.16863 c 11.89298,-5.89633 25.48376,-18.02197 40.2022,-19.83922 0,0 -23.77333,17.93461 -23.77333,17.93461 l 0,0 c -11.55909,2.84961 -32.74433,16.35632 11.49841,-9.02254 0,0 -27.92728,10.92715 -27.92728,10.92715 z"
       inkscape:connector-curvature="0" />
    <path
       style="fill:#000000;stroke:#000000"
       id="path4278"
       d="m -757.69482,573.64272 c 4.88878,2.02224 10.09986,3.01012 15.1154,4.61898 0,0 -24.60479,16.76691 -24.60479,16.76691 l 0,0 c -5.07004,-1.52466 -10.17698,-2.92764 -15.25077,-4.44248 0,0 24.74016,-16.94341 24.74016,-16.94341 z"
       inkscape:connector-curvature="0" />
    <path
       style="fill:#000000;stroke:#000000"
       id="path4280"
       d="m -727.45616,609.34841 c 0.55214,0.67824 1.10427,1.35648 1.65641,2.03472 0,0 -25.55192,15.42215 -25.55192,15.42215 l 0,0 c -0.55983,-0.59483 -1.11965,-1.18966 -1.67948,-1.78449 0,0 25.57499,-15.67238 25.57499,-15.67238 z"
       inkscape:connector-curvature="0" />
    <path
       style="fill:#000000;stroke:#000000"
       id="path4282"
       d="m -735.74225,642.65459 c 2.57465,6.11061 4.39661,12.53154 7.8542,18.22329 0,0 -25.76027,14.90767 -25.76027,14.90767 l 0,0 c -3.38987,-5.88168 -5.21227,-12.39081 -8.22582,-18.45452 0,0 26.13189,-14.67644 26.13189,-14.67644 z"
       inkscape:connector-curvature="0" />
    <path
       style="fill:#000000;stroke:#000000"
       id="path4284"
       d="m -784.0247,649.75451 c 3.79489,4.14967 7.13557,8.6928 10.84528,12.92344 0,0 -25.4654,15.33083 -25.4654,15.33083 l 0,0 c -3.55298,-4.2709 -6.83529,-8.82683 -10.95487,-12.58189 0,0 25.57499,-15.67238 25.57499,-15.67238 z"
       inkscape:connector-curvature="0" />
    <path
       style="fill:#000000;stroke:#000000"
       id="path4286"
       d="m -812.65721,602.41096 c 1.93049,5.47499 3.31824,11.13699 5.41794,16.54828 1.24243,4.05072 4.02399,7.12821 6.80567,10.19823 0,0 -25.67226,15.50619 -25.67226,15.50619 l 0,0 c -2.90829,-3.40631 -5.84052,-6.81135 -7.15024,-11.20078 -2.16511,-5.48283 -3.36484,-11.2834 -5.7296,-16.70042 0,0 26.32849,-14.3515 26.32849,-14.3515 z"
       inkscape:connector-curvature="0" />
    <path
       style="fill:#000000;stroke:#000000"
       id="path4288"
       d="m -785.86573,536.10081 c 10.71836,-0.76914 21.37062,-2.62763 31.8547,-4.95547 12.73615,-2.75799 25.60118,-4.89133 38.50171,-6.72198 10.02076,-1.1564 20.10534,-2.1791 30.1975,-1.67321 6.3925,0.48852 12.77554,1.08656 19.17839,1.42738 4.84539,0.19446 9.69601,0.21361 14.54468,0.22311 3.26751,-0.0217 1.67044,-0.0118 4.79123,-0.0298 0,0 -24.18373,17.57138 -24.18373,17.57138 l 0,0 c -3.07703,-0.0165 -1.50418,-0.006 -4.71854,-0.033 -4.91783,-0.0146 -9.84169,0.0347 -14.75049,-0.3151 -6.2704,-0.51876 -12.52482,-1.24116 -18.80946,-1.57623 -9.89436,-0.21142 -19.78445,0.65431 -29.59707,1.87888 -12.88411,1.84604 -25.70549,4.09996 -38.41693,6.90718 -10.77944,2.19777 -21.65323,3.95381 -32.59222,5.14307 0,0 24.00023,-17.84626 24.00023,-17.84626 z"
       inkscape:connector-curvature="0" />
    <path
       style="fill:#000000;stroke:#000000"
       id="path4290"
       d="m -715.99589,688.42272 c 1.06279,-0.56521 2.13398,-1.11491 3.18838,-1.69563 19.26266,-10.60907 -31.11982,19.05103 -11.23004,5.90098 1.5694,-1.03759 3.13167,-2.086 4.70596,-3.11615 1.52197,-0.99592 3.05513,-1.97464 4.5827,-2.96196 9.68424,-5.73903 18.94208,-11.95874 27.3973,-19.39825 5.53137,-4.78787 10.3047,-10.30277 14.91699,-15.95274 3.17616,-3.94193 6.23894,-7.9319 9.79254,-11.54522 8.69943,-8.0832 20.8024,-12.97268 30.54682,-18.47149 0.5931,-0.33469 2.50215,-1.05742 1.91455,-0.71315 -30.23421,17.71389 -31.11231,18.3444 -22.20389,12.47844 2.96213,-2.48209 5.23354,-5.66864 7.30839,-8.90053 2.05102,-3.90778 4.91909,-7.17052 8.1508,-10.12947 9.98714,-7.54133 0.98726,-0.84628 29.04855,-16.98749 0,0 -23.35098,18.70593 -23.35098,18.70593 l 0,0 c 24.26089,-14.21199 31.31312,-19.00326 22.12934,-12.82587 -3.53855,2.26067 -6.50356,5.41863 -8.59469,9.0596 -1.89217,3.57509 -4.32013,6.80903 -6.94032,9.8723 -8.84258,9.133 -1.1561,1.48357 -29.03441,17.29905 -0.56761,0.322 -2.31496,1.20315 -1.75382,0.87 41.36951,-24.56117 28.87736,-17.56274 20.41936,-11.66327 -3.71371,3.46552 -6.9963,7.18396 -10.00106,11.2793 -4.79972,5.76618 -9.48564,11.63908 -15.1993,16.55468 -8.36995,7.61883 -17.35448,14.25944 -27.22769,19.83744 -4.7334,3.00231 -9.31077,6.35669 -14.10821,9.24354 -12.49993,7.52178 -25.0291,14.95801 -37.74248,22.09879 0,0 23.28521,-18.83883 23.28521,-18.83883 z"
       inkscape:connector-curvature="0" />
    <path
       style="fill:#000000;stroke:#000000"
       id="path4292"
       d="m -650.40631,526.37357 c 8.40726,-0.54169 16.80681,-1.2023 25.22104,-1.62864 6.06795,-0.24866 12.14025,-0.34988 18.21268,-0.39318 3.88308,-0.0366 7.76644,-0.0219 11.6497,-0.0243 3.83827,0.004 7.67629,0.0196 11.51454,0.0142 0.64647,-3.3e-4 1.29294,-6.5e-4 1.93941,-9.8e-4 0,0 -24.23311,17.60601 -24.23311,17.60601 l 0,0 c -0.6455,-4.6e-4 -1.29101,-9.1e-4 -1.93651,-0.001 -3.84764,-0.007 -7.69509,0.008 -11.54274,0.002 -3.84847,-0.012 -7.69682,-0.0157 -11.54525,-0.0286 -5.97912,0.0166 -11.96011,0.0658 -17.93339,0.35593 -8.52462,0.42568 -17.03284,1.05669 -25.54456,1.67968 0,0 24.19819,-17.58102 24.19819,-17.58102 z"
       inkscape:connector-curvature="0" />
    <path
       style="fill:#000000;stroke:#000000"
       id="path4294"
       d="m -628.77315,624.42527 c 4.84426,-4.84505 9.45192,-9.71027 13.24371,-15.43776 3.80567,-5.31301 6.15268,-11.25044 8.03442,-17.44764 0.91478,-3.03016 1.48899,-6.74641 4.42588,-8.46816 -2.81236,-12.42851 24.28324,-12.04382 33.3359,-18.23082 -24.82229,14.24125 -32.01467,19.38701 -23.08579,13.07402 0,0 27.73756,-11.44566 27.73756,-11.44566 l 0,0 c -7.46426,9.63293 -0.57132,1.09514 -28.08827,17.16705 -10.65408,3.98616 -26.51508,14.59488 18.15684,-11.43345 -2.38705,1.55774 0.44603,-0.0956 -2.21634,0.84916 -2.15307,0.76401 -2.7085,3.94262 -3.34122,5.75966 -1.96339,6.39348 -3.83237,12.76474 -7.86689,18.24418 -3.53743,5.85572 -7.55992,11.15467 -12.75897,15.6527 0,0 -27.57683,11.71672 -27.57683,11.71672 z"
       inkscape:connector-curvature="0" />
    <path
       style="fill:#000000;stroke:#000000"
       id="path4296"
       d="m -578.12324,524.32753 c 3.22869,0.0483 1.52527,0.0267 5.11031,0.0622 0,0 -24.09769,17.50799 -24.09769,17.50799 l 0,0 c -3.69351,0.0357 -1.93297,0.0141 -5.28164,0.0622 0,0 24.26902,-17.63248 24.26902,-17.63248 z"
       inkscape:connector-curvature="0" />
    <path
       style="fill:#000000;stroke:#000000"
       id="path4298"
       d="m -546.26023,564.39147 c 0.0132,13.04084 0.72353,26.06699 1.28029,39.09218 0.33901,7.40231 0.61277,14.80629 0.63915,22.21659 0.11624,3.46207 0.0492,6.89287 -0.39407,10.32723 0,0 -26.86748,13.16008 -26.86748,13.16008 l 0,0 c 0.63272,-3.3138 0.98608,-6.57812 0.75154,-9.96645 -0.033,-7.46566 0.0228,-14.93181 -0.10995,-22.39684 -0.25977,-12.95053 -0.45047,-25.94212 -2.02804,-38.81391 0,0 26.72856,-13.61888 26.72856,-13.61888 z"
       inkscape:connector-curvature="0" />
    <path
       style="fill:#000000;stroke:#000000"
       id="path4300"
       d="m -445.26448,540.39941 c -1.21666,23.20677 -1.06333,46.46189 -0.85202,69.69152 0.57061,15.59678 -0.26607,31.26447 0.83799,46.83969 0,0 -26.17816,13.50957 -26.17816,13.50957 l 0,0 c -0.53499,-15.85855 0.54035,-31.75374 0.35466,-47.61851 0.20675,-22.93965 0.38983,-45.90773 -0.85202,-68.82326 0,0 26.68955,-13.59901 26.68955,-13.59901 z"
       inkscape:connector-curvature="0" />
    <path
       style="fill:#000000;stroke:#000000"
       id="path4302"
       d="m -550.32034,623.23192 c 0.15185,9.57414 2.11483,19.02543 3.68238,28.44541 0.63919,4.04959 1.12421,8.12067 1.62367,12.18904 0,0 -26.30699,13.74385 -26.30699,13.74385 l 0,0 c -0.33393,-4.06758 -0.69707,-8.1339 -1.30474,-12.17211 -1.4393,-9.53966 -3.31381,-19.01424 -4.38388,-28.60719 0,0 26.68956,-13.599 26.68956,-13.599 z"
       inkscape:connector-curvature="0" />
    <path
       style="fill:#000000;stroke:#000000"
       id="path4304"
       d="m -669.48957,663.81864 c 25.07769,0.894 50.1763,0.62204 75.26352,0.45724 19.97378,-0.0732 39.9477,-0.12961 59.92158,-0.16805 11.29726,-0.17375 22.62156,0.38621 33.90719,-0.3421 0.76179,-0.0492 14.08486,-1.26222 14.74597,-1.32216 14.07661,-1.14518 28.1435,-2.43607 42.24602,-3.21476 24.59022,-1.23119 49.22616,-0.69637 73.83689,-0.68205 38.11069,0.0863 76.21994,0.21629 114.32953,-0.145 16.13827,-0.25508 32.23159,-1.0276 48.20994,-3.32337 0,0 -23.68241,17.66943 -23.68241,17.66943 l 0,0 c -15.5199,1.71998 -31.12307,1.83038 -46.72772,1.78251 -38.02292,-0.38889 -76.04639,-0.2793 -114.07012,-0.0305 -25.05414,0.19505 -50.1228,0.4322 -75.14393,1.84486 -14.09458,1.00293 -28.17385,2.21793 -42.26066,3.3211 -16.18653,1.44537 -32.36826,1.56355 -48.61575,1.31603 -19.81968,-0.0383 -39.63941,-0.0946 -59.459,-0.16804 -25.50715,-0.17065 -51.02372,-0.41008 -76.52219,0.45723 0,0 24.02114,-17.45237 24.02114,-17.45237 z"
       inkscape:connector-curvature="0" />
    <path
       style="fill:#000000;stroke:#000000"
       id="path4306"
       d="m -880.65964,691.04696 c -7.62719,-1.12876 -15.34513,-1.36115 -23.04049,-1.57342 -2.23251,-0.0324 -5.60455,-0.21358 -7.8746,0.22929 -1.05999,0.2068 -2.04987,0.68076 -3.07481,1.02114 7.68507,-4.23751 15.24162,-8.71696 23.05521,-12.71254 0.87987,-0.44993 -1.54756,1.25459 -2.16203,2.02855 -0.65037,0.81918 -1.06283,1.80181 -1.59424,2.70272 -2.45836,6.10682 -2.94108,12.71752 -2.02062,19.18292 1.32712,7.83449 4.21633,14.96865 8.17728,21.80183 4.54408,7.65148 9.25032,15.20502 13.65619,22.9375 6.65714,12.53575 14.39236,24.36337 22.88047,35.72298 10.04864,13.52304 20.98125,26.33879 31.69844,39.32619 10.60531,13.0652 23.60534,23.78874 36.12063,34.92487 14.53012,13.33418 30.14418,25.41359 46.47543,36.44623 2.68892,1.68194 5.33519,3.43406 8.06676,5.04581 1.53757,0.90724 13.77052,7.57518 15.388,8.46851 9.58093,5.29153 19.03494,10.80035 28.5976,16.12569 22.15699,11.9532 45.41021,21.74065 69.38961,29.35409 27.07151,7.5077 54.98187,11.35905 82.74531,15.30322 23.7048,2.46768 47.65102,5.88615 71.5476,4.28551 3.99601,-0.26766 7.96616,-0.83618 11.94924,-1.25428 22.69259,-3.87979 45.27623,-8.53424 67.80037,-13.32168 27.88448,-6.17006 54.34464,-17.27387 80.69752,-28.03904 -6.90664,5.96194 27.85642,-14.67392 21.49511,-9.98817 -4.43672,3.26811 -9.2716,6.09666 -14.39113,8.13515 -3.39663,1.35246 6.1539,-3.95252 9.14968,-6.04812 6.57485,-4.59923 9.55256,-7.15242 15.67219,-12.07602 11.13012,-9.03803 20.34338,-19.91761 28.7927,-31.41756 9.12747,-13.64528 15.56834,-28.81691 22.86306,-43.46625 9.47088,-17.71717 19.70123,-34.98988 28.98411,-52.81426 8.36766,-16.65266 14.50005,-34.29125 20.52972,-51.88867 3.54825,-10.45747 5.34163,-21.37354 7.65122,-32.14301 1.66267,-8.43296 4.82576,-16.44305 6.86283,-24.77655 0.83035,-5.49918 2.0566,-10.92792 2.98758,-16.40845 0.11021,-1.04979 1.68318,-6.82646 0.62661,-7.53911 -0.67137,-0.45283 -4.03885,-0.5067 -4.18104,-0.51565 -7.27646,-0.004 -14.57624,1.23029 -21.76707,2.35521 -9.05724,0.77805 -17.86204,2.81756 -26.69725,4.85244 -10.32381,2.74536 -20.24654,6.72492 -30.488,9.73143 -6.343,2.14676 -12.76263,3.86681 -19.24099,5.5241 -4.19724,0.98261 -2.11949,0.52943 -6.23219,1.36451 0,0 23.69575,-17.98487 23.69575,-17.98487 l 0,0 c 4.02589,-0.89224 1.98432,-0.41721 6.12369,-1.42946 6.41948,-1.61748 12.70495,-3.66521 19.05511,-5.53249 10.20202,-3.07538 20.17372,-6.89224 30.51238,-9.51716 8.9008,-2.05121 17.8465,-3.69484 26.92548,-4.74665 7.4141,-1.1002 14.96996,-2.49308 22.47206,-1.66738 1.15256,0.3108 2.38005,0.41889 3.45769,0.9324 4.73421,2.2559 3.51256,6.91077 2.56437,11.02845 -0.82195,5.62328 -2.4203,11.07479 -3.13762,16.72027 -1.86514,8.41289 -5.20434,16.36399 -7.02443,24.79146 -2.31613,10.98256 -4.42051,22.06097 -8.00661,32.71678 -6.26784,17.74715 -12.5342,35.55904 -20.83368,52.483 -9.18515,17.71612 -19.13126,34.98982 -28.55562,52.57265 -7.37787,14.67814 -13.93052,29.82019 -22.55198,43.83025 -8.32969,11.88288 -17.57648,23.03097 -28.85035,32.28026 -5.83523,4.73214 -9.67165,7.97417 -15.85051,12.41674 -19.94448,14.33997 -41.74606,26.20931 -64.49298,35.44335 -26.49784,10.59722 -53.02343,21.73856 -81.03891,27.69176 -22.62078,4.86611 -45.25973,9.94499 -68.17487,13.19857 -11.17866,0.9639 -13.18002,1.42458 -24.54684,1.21534 -19.69563,-0.36255 -39.30151,-3.11735 -58.86547,-5.11436 -28.01511,-3.88901 -56.16874,-7.80874 -83.47263,-15.37614 -24.08074,-7.77605 -47.267,-18.0252 -69.65288,-29.82176 -17.70122,-9.50737 -35.67626,-18.67235 -52.49997,-29.68385 -16.32798,-11.28533 -32.27499,-23.19455 -46.99922,-36.53249 -12.72353,-11.11394 -25.48452,-22.26819 -36.23159,-35.37845 -10.84731,-12.95729 -21.80981,-25.8121 -31.95932,-39.33467 -8.6241,-11.41088 -16.40726,-23.33415 -23.40509,-35.81329 -4.54439,-7.6612 -9.46894,-15.07989 -13.90328,-22.80904 -4.09187,-7.15384 -7.18684,-14.5693 -8.80066,-22.69393 -1.20467,-6.96259 -0.85859,-13.99351 1.22508,-20.78382 0.42726,-1.10953 0.75211,-2.26414 1.28178,-3.3286 7.21438,-14.49858 26.10127,-20.50067 41.28157,-19.47379 7.90843,0.24777 15.81938,0.54404 23.67777,1.52926 0,0 -24.51423,17.28455 -24.51423,17.28455 z"
       inkscape:connector-curvature="0" />
    <path
       style="fill:#000000;stroke:#000000"
       id="path4308"
       d="m -777.83406,774.03614 c 6.93052,13.40527 16.39486,25.08422 26.74153,35.96129 16.6339,14.7372 37.24901,23.48509 57.60445,31.74971 25.07116,12.06867 49.77068,24.83759 75.32941,35.87165 19.11307,7.81982 38.65189,14.5752 58.4467,20.44318 0,0 -23.76297,16.17305 -23.76297,16.17305 l 0,0 c -19.39823,-6.57707 -38.63424,-13.6585 -57.6228,-21.34026 -25.66274,-11.11969 -50.49818,-23.98185 -76.06263,-35.31503 -20.62024,-8.4947 -41.1575,-18.15631 -58.25045,-32.73365 -2.37039,-2.40543 -4.83171,-4.72451 -7.11115,-7.21628 -8.01461,-8.76118 -14.4464,-18.80347 -21.14653,-28.55734 0,0 25.83444,-15.03632 25.83444,-15.03632 z"
       inkscape:connector-curvature="0" />
    <path
       style="fill:#000000;stroke:#000000"
       id="path4310"
       d="m -886.42453,499.66004 c -2.67426,-14.94773 -5.20738,-29.91055 -7.32115,-44.9495 -0.27187,-2.11495 -0.54374,-4.2299 -0.81561,-6.34486 0,0 25.81784,-13.51891 25.81784,-13.51891 l 0,0 c 0.20297,2.13339 0.40593,4.26677 0.6089,6.40015 1.72922,14.91428 3.96742,29.78016 8.04883,44.25906 0,0 -26.33881,14.15406 -26.33881,14.15406 z"
       inkscape:connector-curvature="0" />
    <path
       style="fill:#000000;stroke:#000000"
       id="path4312"
       d="m -345.48887,105.77948 c 20.68251,-14.901693 41.31059,-29.874897 62.57293,-43.948843 5.85979,-3.878703 11.62538,-7.921834 17.71569,-11.42748 12.49903,-7.194576 25.34506,-13.768781 38.01759,-20.653172 11.94231,-2.620407 18.81515,-2.342003 28.52681,5.007964 3.91664,2.96418 5.6513,6.710622 11.14066,6.842499 2.32124,0.05577 4.50088,-1.143284 6.75132,-1.714927 -3.8747,3.067442 23.61535,-12.139117 17.62382,-9.279138 -4.90794,2.342737 -9.14159,6.165651 -14.32681,7.805687 -4.31708,1.365448 7.74736,-4.689757 11.66311,-6.963186 21.96015,-12.749753 29.96752,-17.280074 47.93442,-27.5011851 0,0 -21.67746,17.5285021 -21.67746,17.5285021 l 0,0 c -3.86121,2.188861 -7.24327,7.494678 -11.58363,6.566583 -4.27883,-0.91494 12.67013,-10.786668 11.33532,-6.61968 -1.34764,4.207023 -7.59021,4.5221 -11.38685,6.780567 -11.33294,6.741505 -22.61742,13.565245 -34.0019,20.219349 -3.15643,1.844896 -6.30969,3.715315 -9.61634,5.275036 -2.95821,1.395367 -6.0928,2.381203 -9.1392,3.571805 -2.60079,0.174317 -5.23244,0.958809 -7.80236,0.522951 -5.64533,-0.957445 -7.01726,-4.264967 -11.23497,-7.385406 -8.70504,-6.440361 -15.07054,-6.151136 -25.51935,-3.640343 2.64939,-1.985784 10.85329,-7.545697 7.94817,-5.957351 -6.27184,3.429059 -12.11953,7.584569 -18.09612,11.505637 -20.3883,13.37619 -40.22166,27.595948 -59.3585,42.709491 0,0 -27.48635,10.75464 -27.48635,10.75464 z"
       inkscape:connector-curvature="0" />
    <path
       style="fill:#000000;stroke:#000000"
       id="path4314"
       d="m -242.31949,197.43135 c 10.65622,-12.08365 22.38903,-23.61325 36.09675,-32.19549 9.91466,-5.10295 19.48868,-10.93059 29.74399,-15.30887 3.62361,-1.54703 10.38466,6.10232 13.5996,6.20923 1.61004,0.0535 3.09565,-0.89292 4.64347,-1.33938 -5.12162,2.13463 -14.09723,11.8058 -15.36488,6.40388 -1.46953,-6.26221 9.2324,-8.96343 13.67197,-13.61799 7.77348,-8.1499 20.23467,-22.41117 27.801,-30.97672 0,0 24.55497,-10.34431 24.55497,-10.34431 l 0,0 c -9.18184,10.3209 -18.26647,20.7288 -27.52509,30.98088 -4.09473,4.53409 -7.53979,9.8034 -12.42096,13.47749 -10.78379,8.11705 -22.81824,14.42338 -34.22736,21.63508 -8.79538,0.0787 -5.10341,0.0339 -11.99162,-3.36076 -10.06983,-4.96263 -23.09455,8.97943 14.77485,-14.22693 -1.82868,0.98004 -3.74364,1.81379 -5.48605,2.9401 -11.56594,7.47633 -21.53798,17.62224 -30.47793,27.97619 0,0 -27.39271,11.7476 -27.39271,11.7476 z"
       inkscape:connector-curvature="0" />
  </g>
</svg>
