<?xml version="1.0" encoding="UTF-8" standalone="no"?>
<!-- Created with Inkscape (http://www.inkscape.org/) -->

<svg
   xmlns:dc="http://purl.org/dc/elements/1.1/"
   xmlns:cc="http://creativecommons.org/ns#"
   xmlns:rdf="http://www.w3.org/1999/02/22-rdf-syntax-ns#"
   xmlns:svg="http://www.w3.org/2000/svg"
   xmlns="http://www.w3.org/2000/svg"
   xmlns:sodipodi="http://sodipodi.sourceforge.net/DTD/sodipodi-0.dtd"
   xmlns:inkscape="http://www.inkscape.org/namespaces/inkscape"
   width="744.09448819"
   height="1052.3622047"
   id="svg2"
   version="1.1"
   inkscape:version="0.47 r22583"
   sodipodi:docname="dead.svg"
   inkscape:export-filename="K:\i\dev\ggj14\arts\dead.png"
   inkscape:export-xdpi="120.12016"
   inkscape:export-ydpi="120.12016">
  <defs
     id="defs4">
    <inkscape:perspective
       sodipodi:type="inkscape:persp3d"
       inkscape:vp_x="0 : 526.18109 : 1"
       inkscape:vp_y="0 : 1000 : 0"
       inkscape:vp_z="744.09448 : 526.18109 : 1"
       inkscape:persp3d-origin="372.04724 : 350.78739 : 1"
       id="perspective10" />
    <inkscape:perspective
       id="perspective2851"
       inkscape:persp3d-origin="0.5 : 0.33333333 : 1"
       inkscape:vp_z="1 : 0.5 : 1"
       inkscape:vp_y="0 : 1000 : 0"
       inkscape:vp_x="0 : 0.5 : 1"
       sodipodi:type="inkscape:persp3d" />
  </defs>
  <sodipodi:namedview
     id="base"
     pagecolor="#ffffff"
     bordercolor="#666666"
     borderopacity="1.0"
     inkscape:pageopacity="0.0"
     inkscape:pageshadow="2"
     inkscape:zoom="0.49497474"
     inkscape:cx="181.37081"
     inkscape:cy="631.22521"
     inkscape:document-units="px"
     inkscape:current-layer="layer1"
     showgrid="false"
     inkscape:window-width="876"
     inkscape:window-height="654"
     inkscape:window-x="2261"
     inkscape:window-y="207"
     inkscape:window-maximized="0" />
  <metadata
     id="metadata7">
    <rdf:RDF>
      <cc:Work
         rdf:about="">
        <dc:format>image/svg+xml</dc:format>
        <dc:type
           rdf:resource="http://purl.org/dc/dcmitype/StillImage" />
        <dc:title></dc:title>
      </cc:Work>
    </rdf:RDF>
  </metadata>
  <g
     inkscape:label="Layer 1"
     inkscape:groupmode="layer"
     id="layer1">
    <path
       style="fill:#000000;fill-opacity:1;stroke:#000000;stroke-width:1;stroke-linecap:butt;stroke-miterlimit:4;stroke-opacity:1;stroke-dasharray:2, 4;stroke-dashoffset:0"
       id="path2839"
       d="m 62.101004,539.07179 c 1.367111,-0.55899 2.822938,-0.93725 4.101333,-1.67696 19.83923,-11.47935 36.893423,-27.99841 53.461763,-43.58039 27.62898,-25.51016 52.35704,-53.9083 77.45277,-81.85115 15.84123,-16.55624 29.24997,-35.39041 45.84617,-51.21684 9.67801,-7.96197 15.27081,-19.62695 22.10955,-29.91743 12.04745,-16.13096 26.32524,-30.37929 41.31622,-43.74738 7.82485,-7.22294 16.8058,-13.13523 24.30654,-20.71672 3.75577,-3.7962 7.46443,-8.30918 10.90679,-12.33747 12.74703,-15.24386 27.75975,-28.11501 43.2998,-40.37779 15.39845,-13.0906 30.14863,-26.93525 44.90402,-40.74304 12.34781,-11.0163 24.57293,-22.15218 36.97331,-33.10662 5.80989,-3.26997 9.02639,-12.28337 14.59518,-15.26704 1.22247,-0.65498 2.7482,-0.37569 4.1223,-0.56354 10.14127,-2.92724 19.09924,-8.47544 27.47086,-14.75252 1.43883,-5.32445 76.73795,15.02358 75.29912,20.34803 l 0,0 c -6.04671,4.86255 -11.74418,10.49267 -18.24208,14.75446 -1.7586,1.15341 -3.75678,1.8963 -5.58035,2.94399 -1.94201,1.11574 -3.80633,2.36157 -5.7095,3.54235 -1.66969,0.95663 -3.09111,2.71372 -5.00909,2.86989 -1.59064,0.12952 -1.94719,-3.17954 -3.54257,-3.22065 -3.44444,-0.0888 -4.76659,6.56059 -7.57707,7.62883 -3.29565,3.28301 -6.15897,6.24654 -9.72935,9.29135 -1.9869,1.69442 -4.16012,3.16243 -6.1411,4.86378 -8.92283,7.66333 -4.83126,4.91884 -13.92854,13.25927 -2.35928,2.163 -4.87081,4.15383 -7.30621,6.23074 -22.1319,18.91032 8.99132,-8.02142 -14.75977,13.77115 -2.52111,2.31322 -5.36401,4.25759 -7.89364,6.56149 -7.57035,6.89485 -14.33953,14.70637 -22.41649,21.06539 -2.63405,2.35833 -5.14069,4.86721 -7.90215,7.07498 -2.56748,2.05267 -5.42471,3.71732 -8.05793,5.68495 -9.70324,7.25057 -18.62542,15.61411 -26.64254,24.68038 -10.95155,11.29844 -0.49035,0.02 -11.05739,13.01686 -5.19074,6.38432 -10.89964,11.65596 -17.29999,16.76939 -2.50662,2.00262 -5.00444,4.01623 -7.50667,6.02435 -1.89006,1.55425 -13.48776,11.02775 -15.45468,12.88824 -2.51597,2.37984 -4.6835,5.1082 -7.16821,7.52064 -2.11272,2.05126 -4.56783,3.73897 -6.61191,5.85863 -3.84118,3.98318 -6.56242,8.97642 -10.97384,12.45626 -1.69533,2.03775 -3.57716,3.93381 -5.08599,6.11326 -1.60397,2.31687 -2.73503,4.93014 -4.21814,7.32619 -1.12777,1.82197 -2.49622,3.48842 -3.60928,5.31942 -3.24481,5.33774 -5.75951,11.12992 -10.18323,15.70395 -3.42487,2.86383 -7.10159,5.44573 -10.30344,8.55692 -4.96998,4.82927 -9.66787,11.2394 -14.08257,16.42262 -6.85811,8.05199 -14.11202,15.76149 -20.90982,23.86614 -25.49792,28.29673 -50.24973,57.39833 -77.86851,83.67238 -8.25421,7.79047 -16.20205,15.9045 -24.54486,23.60002 -4.74242,4.37447 -16.37392,14.11991 -21.86299,18.22584 -2.59676,1.94242 -5.45663,3.51648 -8.0461,5.4686 -1.74221,1.31339 -3.28382,2.87362 -4.92574,4.31043 -1.74058,5.23358 -75.754574,-19.38205 -74.013986,-24.61563 z" />
    <path
       style="fill:#000000;fill-opacity:1;stroke:#000000;stroke-width:1;stroke-linecap:butt;stroke-miterlimit:4;stroke-opacity:1;stroke-dasharray:2, 4;stroke-dashoffset:0"
       id="path2841"
       d="m 114.73383,113.60228 c 1.23003,1.5798 2.28181,3.3162 3.69009,4.7394 1.61054,1.62761 3.67027,2.75945 5.31078,4.35685 2.34111,2.27961 4.2816,4.94589 6.60383,7.24474 2.36233,2.33855 5.06024,4.32013 7.43166,6.64948 2.50494,2.46049 15.7188,16.77853 17.80289,19.02664 3.21218,3.70976 6.5158,7.34228 9.63655,11.12927 3.67808,4.46329 7.05431,9.17061 10.75479,13.61535 15.78984,18.96557 32.75148,37.03375 49.76821,54.89105 8.84902,7.29815 16.21239,16.49209 25.35087,23.46983 6.3825,4.87338 3.28063,-0.98469 8.22514,4.64335 1.0253,1.43484 1.82343,3.06302 3.07591,4.30451 1.13033,1.12041 2.79762,1.58065 3.95909,2.66874 1.93906,1.81654 3.37979,4.11329 5.27173,5.97885 6.56773,6.47613 15.11603,13.09006 22.27335,18.92376 3.1105,2.34887 6.1804,4.75251 9.33151,7.04661 3.20542,2.33364 6.57619,4.43846 9.73522,6.83452 13.50885,10.24622 25.54428,22.16067 37.26687,34.3532 14.66626,17.08137 32.17428,31.36415 49.91896,45.09562 7.13217,2.94332 11.08142,9.19017 16.24003,14.37541 1.05012,1.05554 2.42441,1.74449 3.50577,2.768 14.06202,13.30968 -5.9965,-4.31305 8.13823,7.90961 9.87974,6.81801 22.22731,9.55289 31.41315,17.65962 1.76797,1.56026 3.15035,3.50939 4.72552,5.26408 3.8718,6.11288 10.22037,9.53289 14.9726,14.81166 8.81291,9.78937 0.72718,2.32367 9.55636,9.96902 10.17709,6.05607 17.01399,16.51565 27.0305,22.81804 0.91291,0.5077 2.05053,0.73726 2.73872,1.5231 2.63543,3.0094 2.56717,5.62894 4.46993,8.95048 2.25157,3.93044 0.89715,0.62166 3.72264,2.57438 1.03204,0.71324 1.7985,1.74947 2.69774,2.6242 7.36921,3.93739 -2.77155,-1.83259 6.12795,4.86643 2.69539,2.02893 6.01732,3.11884 8.71925,5.13906 3.11657,2.33024 5.70239,5.10838 8.43609,7.84658 1.99521,2.90358 4.25125,6.50805 6.7746,9.07217 1.05815,1.07525 2.38884,1.85219 3.47708,2.89699 4.65041,4.4648 8.92089,9.44765 13.36626,14.11931 3.68708,4.0882 8.01119,7.56291 10.9475,12.29242 0.98596,1.58807 1.59104,3.38911 2.54073,4.99912 1.29726,2.19923 2.70495,3.58678 4.38374,5.44831 5.65005,4.52618 7.58367,11.64935 10.21945,18.0758 0.66289,5.47545 -76.77169,14.85013 -77.43458,9.37468 l 0,0 c -2.3655,-4.93145 -6.20732,-8.4294 -9.40254,-12.83086 -1.58705,-2.38462 -2.96128,-4.91742 -4.6967,-7.19634 -3.64667,-4.78875 -9.04477,-8.25198 -12.66521,-13.08593 -4.38954,-4.60297 -8.99306,-9.05947 -13.28284,-13.75167 -0.57337,-0.62715 -6.02445,-7.20407 -7.00952,-8.15083 -0.85779,-0.82443 -1.89482,-1.4393 -2.84223,-2.15895 -8.23087,-6.02047 -16.84213,-11.65592 -23.64553,-19.34802 -3.63084,-3.73097 -2.34779,-2.04652 -5.42072,-6.94381 -0.68806,-1.09654 -1.17497,-2.33135 -1.99956,-3.32929 -1.20863,-1.4627 -1.16797,0.42594 -2.57409,-0.37953 -1.1708,-0.67067 -2.03301,-1.77461 -3.04951,-2.66191 -8.91462,-8.59583 -18.49218,-16.43467 -27.54236,-24.86234 -4.50488,-4.83151 -9.23065,-9.12469 -13.99172,-13.6744 -2.54752,-2.43442 -4.76176,-5.21073 -7.38323,-7.56534 -0.87479,-0.78573 -1.87217,-1.4232 -2.80825,-2.1348 -12.79848,-6.85107 -26.12254,-13.30481 -36.36991,-23.85149 -8.59764,-8.55016 -17.4925,-16.54193 -27.48319,-23.47387 -17.7763,-14.84185 -35.01012,-30.22124 -50.51091,-47.48066 -7.24357,-6.97064 -9.25049,-9.10859 -16.97726,-15.69319 -12.58131,-10.72154 -26.35919,-19.89993 -38.89933,-30.67246 -5.99493,-5.23375 -10.59183,-9.1416 -16.33603,-14.54174 -2.16907,-2.03915 -4.26097,-4.15887 -6.39145,-6.2383 -1.60511,-1.37125 -3.26346,-2.68253 -4.81533,-4.11375 -1.51405,-1.39635 -2.7666,-3.07694 -4.37564,-4.36269 -0.61622,-0.49241 -1.4626,-0.59127 -2.1939,-0.8869 -0.51776,-0.0489 -1.12505,0.14833 -1.55327,-0.14679 -1.15917,-0.79887 -1.97548,-2.00668 -2.98905,-2.98368 -1.43886,-1.38696 -2.91084,-2.73915 -4.36745,-4.10745 -8.73841,-8.20863 -17.4697,-16.43087 -25.73743,-25.12139 -12.89504,-13.85683 -25.6368,-27.82328 -37.98411,-42.17447 -7.66656,-8.91079 -14.98181,-18.12076 -22.684596,-27.00025 -3.08414,-3.55528 -6.326404,-6.97025 -9.489605,-10.45537 C 66.05845,158.60413 52.067208,145.23439 38.748302,131.21478 37.50291,125.84179 113.48843,108.22929 114.73383,113.60228 z" />
  </g>
</svg>
