<?xml version="1.0" encoding="UTF-8" standalone="no"?>
<!-- Created with Inkscape (http://www.inkscape.org/) -->

<svg
   xmlns:dc="http://purl.org/dc/elements/1.1/"
   xmlns:cc="http://creativecommons.org/ns#"
   xmlns:rdf="http://www.w3.org/1999/02/22-rdf-syntax-ns#"
   xmlns:svg="http://www.w3.org/2000/svg"
   xmlns="http://www.w3.org/2000/svg"
   xmlns:sodipodi="http://sodipodi.sourceforge.net/DTD/sodipodi-0.dtd"
   xmlns:inkscape="http://www.inkscape.org/namespaces/inkscape"
   width="744.09448819"
   height="1052.3622047"
   id="svg2"
   version="1.1"
   inkscape:version="0.48.2 r9819"
   sodipodi:docname="drawing3.svg">
  <defs
     id="defs4" />
  <sodipodi:namedview
     id="base"
     pagecolor="#ffffff"
     bordercolor="#666666"
     borderopacity="1.0"
     inkscape:pageopacity="0.0"
     inkscape:pageshadow="2"
     inkscape:zoom="0.98994949"
     inkscape:cx="-250.04356"
     inkscape:cy="261.34841"
     inkscape:document-units="px"
     inkscape:current-layer="layer1"
     showgrid="false"
     inkscape:window-width="1436"
     inkscape:window-height="856"
     inkscape:window-x="4"
     inkscape:window-y="0"
     inkscape:window-maximized="1" />
  <metadata
     id="metadata7">
    <rdf:RDF>
      <cc:Work
         rdf:about="">
        <dc:format>image/svg+xml</dc:format>
        <dc:type
           rdf:resource="http://purl.org/dc/dcmitype/StillImage" />
        <dc:title></dc:title>
      </cc:Work>
    </rdf:RDF>
  </metadata>
  <g
     inkscape:label="Layer 1"
     inkscape:groupmode="layer"
     id="layer1">
    <path
       style="fill:#000000;stroke:#000000"
       id="path3997"
       d="m -400.02973,672.92839 c 3.14308,-1.63541 6.26094,-3.43013 9.70908,-4.35729 0.7435,-0.19992 1.50502,-0.32551 2.25752,-0.48827 5.13172,-0.61001 10.33645,-0.085 15.4291,0.65076 2.71081,0.52393 5.57925,1.14755 7.34923,3.4606 0.30992,0.40502 0.54449,0.86248 0.81674,1.29372 1.10656,2.38153 1.82546,4.93785 2.37269,7.50229 0.30033,1.82017 0.5249,3.6469 0.0845,5.45184 -2.23674,5.09668 -7.67341,6.54067 -12.38881,9.25587 -1.97663,0.42149 -4.00025,0.49675 -6.01413,0.50272 -2.95721,0.24041 -5.91817,0.4366 -8.88239,0.56521 -2.2635,0.23201 -4.50297,-0.10607 -6.74714,-0.35023 -2.01873,-0.64833 -3.71292,-1.71489 -5.09802,-3.3099 -1.39268,-1.70741 -2.69609,-3.48187 -3.74503,-5.42147 -0.97201,-2.15103 -1.08119,-4.53431 -1.18754,-6.85638 -0.11899,-1.96225 -0.0375,-3.91238 0.29953,-5.84742 0,0 9.46923,-4.58987 9.46923,-4.58987 l 0,0 c -0.42883,1.85385 -0.56862,3.73099 -0.4368,5.63311 0.0821,2.16665 0.13117,4.39903 0.99851,6.42273 0.98725,1.87852 2.22791,3.59622 3.6081,5.20688 1.26959,1.36128 2.84751,2.30737 4.69716,2.65886 2.18651,0.26253 4.37097,0.46795 6.57577,0.2688 2.9881,-0.13595 5.96899,-0.35723 8.95127,-0.583 1.942,-0.0692 3.95579,-0.0928 5.75753,-0.90592 -2.76737,1.626 -5.53834,3.2459 -8.30212,4.878 -0.2329,0.13754 0.49301,-0.23173 0.70928,-0.39418 0.9057,-0.68027 1.46243,-1.8001 2.18648,-2.64537 0.69966,-1.58317 0.36465,-3.30308 0.17155,-4.9794 -0.42583,-2.46106 -1.07563,-4.91651 -2.10918,-7.19299 -0.56634,-0.86518 -0.77456,-1.3399 -1.5849,-1.98995 -1.67179,-1.34112 -3.95313,-1.6417 -5.96653,-2.10306 -5.02067,-0.7236 -10.16844,-1.22506 -15.20092,-0.33562 -4.26572,1.11798 -8.1927,2.98679 -12.0115,5.18353 0,0 8.23172,-6.5846 8.23172,-6.5846 z"
       inkscape:connector-curvature="0" />
    <path
       style="fill:#000000;stroke:#000000"
       id="path3999"
       d="m -324.31825,669.24972 c 5.71048,-0.57248 11.37351,-1.67209 17.04094,-2.59319 3.72127,-0.54845 7.49088,-1.37866 11.25762,-0.70879 1.73966,0.30938 2.51481,0.6867 4.12538,1.30078 3.10874,1.27064 5.19348,3.61313 6.62322,6.57488 1.00095,3.241 1.31421,6.69964 1.2923,10.08361 -0.19363,2.93301 -1.50184,5.61001 -3.24603,7.92663 -5.25875,5.38743 -10.33001,6.90304 -16.89677,7.20094 -2.87884,0.0963 -5.74307,-0.33667 -8.57884,-0.78105 -3.6027,-1.02904 -7.10643,-2.35335 -10.57547,-3.76111 -3.44968,-1.45215 -6.55639,-3.50593 -8.95267,-6.3886 -1.13018,-1.82242 -1.96952,-4.11296 -1.31749,-6.2712 0.14706,-0.48674 0.41926,-0.9265 0.62888,-1.38975 0.30945,-0.39753 0.57424,-0.83426 0.92833,-1.1926 0.36676,-0.37116 0.77147,-0.71409 1.2197,-0.98122 7.18351,-4.28101 7.83426,-5.28459 13.48315,-6.8677 0,0 -8.2597,6.37514 -8.2597,6.37514 l 0,0 c -0.48413,0.15377 -0.97565,0.28597 -1.45239,0.4613 -0.527,0.19381 -2.02971,0.94675 -1.5561,0.64511 2.44903,-1.55972 5.00308,-2.9481 7.49971,-4.43045 0.42994,-0.25527 -0.89752,0.45192 -1.29957,0.74919 -0.37673,0.27854 -0.68045,0.64422 -1.02067,0.96634 -0.24619,0.36991 -0.54779,0.70843 -0.73857,1.10974 -0.85073,1.78954 -0.0534,3.86724 0.86919,5.44359 2.23516,2.78731 5.2462,4.68551 8.54017,6.02886 3.44718,1.36199 6.942,2.64512 10.55754,3.48612 2.79361,0.42314 5.61974,0.78043 8.45087,0.6023 1.42581,-0.0993 2.86068,-0.18732 4.25367,-0.53685 0.4569,-0.11464 1.7402,-0.68619 1.34739,-0.42618 -2.19649,1.45387 -11.0651,6.7433 -6.78716,4.04716 1.91811,-1.97454 3.19006,-4.56136 3.57126,-7.29385 0.16302,-3.23024 -0.10166,-6.54618 -1.05917,-9.64456 -1.30656,-2.74179 -3.22592,-4.81945 -6.11152,-5.95113 -1.60538,-0.57644 -2.17127,-0.86625 -3.91126,-1.11563 -3.65945,-0.52448 -7.31734,0.3062 -10.92941,0.78232 -5.85111,0.93522 -11.67304,2.16782 -17.56441,2.77478 0,0 8.56788,-6.22493 8.56788,-6.22493 z"
       inkscape:connector-curvature="0" />
    <path
       style="fill:#000000;stroke:#000000"
       id="path4001"
       d="m -313.12934,685.40495 c 2.43022,-5.67128 5.72078,-5.5658 12.30442,-9.22524 2.03483,0.46352 2.91685,2.55549 3.58079,4.33573 0.33957,2.11045 -0.38308,3.91761 -1.89294,5.36682 -3.24315,1.87737 -6.45273,3.81397 -9.72947,5.63209 -1.58011,0.87674 -3.06135,-0.59919 -4.08754,-1.57759 -1.61239,-1.82621 -2.494,-4.06655 -2.85167,-6.45064 0.0465,-4.81002 6.10553,-5.45264 10.04371,-7.69062 0.38919,-0.22117 0.85214,-0.0615 1.24157,0.002 1.74708,0.52055 2.51326,1.89472 3.05038,3.52214 1.41432,6.16357 -0.39921,3.77104 -9.19047,8.11485 -0.0644,-0.14341 -0.12869,-0.28681 -0.19303,-0.43022 0,0 9.29429,-5.20648 9.29429,-5.20648 l 0,0 c 0.0219,0.0641 0.0438,0.1282 0.0657,0.1923 -3.08114,1.73403 -6.15729,3.47696 -9.24343,5.2021 -0.0672,0.0376 0.15294,-0.0684 0.18501,-0.13849 0.0685,-0.14958 0.0928,-0.319 0.0997,-0.48337 0.0306,-0.72402 -0.17449,-1.45994 -0.28494,-2.16756 -0.35946,-1.21436 -0.88366,-2.37433 -2.34255,-2.34389 -3.14663,0.93811 -10.38457,6.14042 7.58664,-4.70167 0.14835,-0.0895 -0.33308,0.11525 -0.4706,0.22062 -0.41321,0.3166 -0.36988,0.53111 -0.49296,1.02091 0.11551,2.15834 0.9604,4.19959 2.43634,5.78922 0.43082,0.35101 0.87312,0.80837 1.43791,0.96444 0.68662,0.18972 1.366,-0.1746 1.9588,-0.45604 -2.77516,1.63271 -5.55033,3.26542 -8.32549,4.89813 1.59217,-0.94211 2.48729,-2.26793 2.45887,-4.16772 -0.30987,-0.94654 -0.85883,-2.9478 -2.11747,-3.05724 -0.18767,-0.0163 -0.36694,0.0854 -0.55041,0.12816 2.79573,-1.64027 5.60548,-3.25687 8.38718,-4.92082 0.24076,-0.14402 -0.52591,0.20627 -0.76117,0.35911 -0.99499,0.64642 -1.55757,1.77844 -1.96871,2.84436 0,0 -9.62847,4.42456 -9.62847,4.42456 z"
       inkscape:connector-curvature="0" />
    <path
       style="fill:#000000;stroke:#000000"
       id="path4003"
       d="m -386.34427,688.81544 c -1.26097,-2.63234 -1.94518,-5.50484 -2.10794,-8.41037 0.0923,-0.90645 0.15627,-2.38 1.08148,-2.94449 6.50511,-3.96894 7.05357,-6.98271 11.7858,-5.00865 2.18288,1.74974 2.68609,3.63707 2.6612,6.34588 -0.91294,7.00727 -3.51737,5.99882 -11.25147,10.53673 -1.50985,-0.11252 -2.24944,-1.40161 -2.30687,-2.79316 0.0213,-0.14399 0.022,-0.29255 0.0638,-0.43195 0.10181,-0.33905 0.42388,-0.5223 0.54819,-0.85159 0.12863,-0.34072 0.28515,-1.24453 0.34345,-1.54442 1.00845,-5.52247 3.68098,-5.46173 10.67096,-8.51492 0.34197,-0.14937 0.50245,0.55186 0.75368,0.82779 3.52202,6.8678 -1.75153,6.4497 -9.16565,10.84936 -1.40102,0.25555 -3.37085,0.62573 -4.45459,-0.63829 -0.19328,-0.22543 -0.29426,-0.51587 -0.4414,-0.7738 -0.36846,-0.86789 -0.37655,-1.67202 -0.14632,-2.56625 0,0 9.67265,-4.38635 9.67265,-4.38635 l 0,0 c -0.47921,0.51476 -0.52575,0.98796 -0.33739,1.66951 0.68382,1.32931 2.89183,0.5101 3.90078,0.0913 -2.67809,1.61781 -5.36556,3.22016 -8.03425,4.85342 -0.22616,0.13841 0.53418,-0.16538 0.70521,-0.368 0.67028,-0.79407 -0.38388,-2.39525 -0.69444,-3.12699 -3.55831,-0.15873 -0.29656,0.0267 8.39738,-5.15545 0.16927,-0.1009 -0.36689,0.16814 -0.50295,0.31069 -0.57788,0.60546 -0.67256,1.55058 -0.82785,2.31958 -0.0556,0.27938 -0.12841,0.55588 -0.16674,0.83814 -0.0919,0.67646 0.10092,1.67899 -0.72537,1.93443 -0.50297,0.70055 0.35181,1.43093 1.02022,0.83599 -2.81193,1.68232 -5.6095,3.38885 -8.43578,5.04694 -0.20874,0.12246 0.40848,-0.26623 0.57924,-0.43772 0.19337,-0.1942 0.36322,-0.41449 0.50365,-0.64982 0.57248,-0.95941 0.73138,-2.08358 0.98508,-3.15027 0.11658,-2.02408 -0.12173,-4.01072 -2.03248,-5.13097 -0.26229,-0.0484 -0.52016,-0.14722 -0.78686,-0.14516 -0.24933,0.002 -0.94172,0.29078 -0.73137,0.15691 2.69426,-1.71464 5.4834,-3.27545 8.21954,-4.92243 0.25035,-0.15069 -0.54246,0.24055 -0.76194,0.43345 -0.21796,0.19157 -0.40438,0.43109 -0.52301,0.69592 -0.14373,0.32083 -0.16531,0.6834 -0.24796,1.02511 -0.0599,2.70362 0.64243,5.44263 1.93817,7.81953 0,0 -9.14787,5.36037 -9.14787,5.36037 z"
       inkscape:connector-curvature="0" />
    <path
       style="fill:#000000;stroke:#000000"
       id="path4007"
       d="m -434.67672,659.26321 c 0.58891,-6.28852 1.14427,-12.57572 1.83566,-18.85427 0.45424,-3.84488 0.80665,-7.69082 0.7439,-11.56349 0,0 9.2436,-4.72139 9.2436,-4.72139 l 0,0 c 0.015,3.95644 -0.34903,7.87397 -0.91234,11.7916 -0.74683,6.17351 -1.37425,12.36156 -1.55738,18.58173 0,0 -9.35344,4.76582 -9.35344,4.76582 z"
       inkscape:connector-curvature="0" />
    <path
       style="fill:#000000;stroke:#000000"
       id="path4009"
       d="m -429.79516,624.62422 c 0.66857,-0.18786 1.34649,-0.34513 2.00569,-0.56357 3.40129,-1.1271 6.7204,-2.5234 10.07421,-3.779 3.84876,-1.4409 3.97213,-1.43792 7.83086,-2.70355 6.96679,-2.35678 14.23413,-3.57956 21.37424,-5.2655 8.04615,-1.83893 15.68452,-4.97308 23.28076,-8.1264 4.36412,-1.95527 8.9934,-2.96882 13.73436,-3.36597 5.00018,-0.37828 9.98784,0.0858 14.96679,0.50309 7.35974,0.96173 14.53818,2.83078 21.64301,4.92551 8.72372,2.52655 17.22843,5.73195 25.80759,8.69661 6.02537,1.92747 11.88133,4.32878 17.61321,6.995 2.66813,1.37801 5.17861,3.03875 7.69454,4.6727 0,0 -8.79882,5.63847 -8.79882,5.63847 l 0,0 c -2.43787,-1.64162 -4.8772,-3.29635 -7.50777,-4.62022 -5.58177,-2.71257 -11.27264,-5.20828 -17.17214,-7.15684 -8.58246,-2.99387 -17.12458,-6.14312 -25.88743,-8.58009 -7.10048,-2.02724 -14.27716,-3.88405 -21.63763,-4.67759 -5.01295,-0.35904 -10.03663,-0.68598 -15.0572,-0.22052 -4.60123,0.47765 -9.0733,1.54826 -13.31997,3.43124 -7.59999,3.09366 -15.263,6.09622 -23.28547,7.92934 -7.13278,1.68379 -14.36557,3.02113 -21.33168,5.34269 -6.85496,2.28304 -13.50004,5.13621 -20.38625,7.31645 0,0 8.3591,-6.39185 8.3591,-6.39185 z"
       inkscape:connector-curvature="0" />
    <path
       style="fill:#000000;stroke:#000000"
       id="path4013"
       d="m -274.69741,635.24435 c 0.14998,-4.66265 0.80144,-9.29023 1.73441,-13.85508 0.83122,-4.63589 1.85173,-9.23057 3.50637,-13.64932 1.01891,-2.72099 1.66751,-4.02371 2.87639,-6.68171 2.75093,-5.62827 6.15372,-10.92453 10.12697,-15.76902 2.32863,-2.83924 4.05819,-4.56582 6.56883,-7.20738 4.14762,-4.33398 8.99997,-7.83417 14.03555,-11.04456 0,0 9.53524,-3.69755 9.53524,-3.69755 l 0,0 c -5.18126,3.16331 -10.18494,6.61683 -14.47435,10.95331 -2.43796,2.50656 -4.40659,4.44075 -6.66305,7.13341 -3.95647,4.72129 -7.29736,9.92017 -9.98965,15.45822 -1.50079,3.26776 -3.03974,6.53519 -4.1266,9.97224 -1.0414,3.29329 -1.63784,6.70017 -2.24391,10.09241 -0.8501,4.44128 -1.58563,8.97588 -1.49138,13.50813 0,0 -9.39482,4.7869 -9.39482,4.7869 z"
       inkscape:connector-curvature="0" />
    <path
       style="fill:#000000;stroke:#000000"
       id="path4015"
       d="m -230.00697,564.32973 c -5.68972,-2.15864 -11.46817,-4.085 -17.28519,-5.87269 -10.23368,-3.0139 -20.75306,-4.91697 -31.24686,-6.77003 -7.7525,-1.23036 -15.48753,-2.49981 -23.29478,-3.33631 -6.98825,-0.89454 -14.00921,-0.58933 -20.99927,0.052 -7.96128,0.69795 -15.84911,1.86181 -23.68155,3.42874 -7.59838,1.4068 -15.06765,3.42187 -22.60867,5.09733 -2.78775,0.59949 -5.62306,1.03884 -8.35944,1.86194 -2.15312,0.64765 -4.25443,1.46255 -6.41005,2.11238 -4.34825,1.08518 -8.25012,2.87474 -12.11504,5.08569 2.37319,-1.35931 4.72973,-2.74812 7.11958,-4.07793 0.55617,-0.30948 -1.0845,0.66689 -1.61675,1.01592 -2.02997,1.33119 -3.9644,2.80255 -5.90886,4.25336 -3.22994,2.06208 -5.31566,5.22404 -7.50472,8.27487 -2.39736,3.36501 -4.90602,6.61962 -7.63275,9.72193 -2.58587,2.63625 -5.25057,5.18238 -7.72574,7.92567 -2.3588,2.75262 -4.81837,5.41851 -7.16942,8.17745 -2.41861,2.82501 -3.33497,6.42463 -4.45539,9.8832 -1.29795,3.76548 -1.89623,7.68601 -2.3754,11.62256 -0.36746,3.05609 -0.51601,6.12929 -0.6043,9.20383 -0.0947,2.93707 -0.1191,5.91048 0.52004,8.7918 0.14897,0.29897 0.27233,0.61213 0.4469,0.89691 0.32838,0.53571 0.83537,1.05476 1.20623,1.55792 0.71447,0.96934 1.29839,2.01729 1.87489,3.07114 1.07399,2.38443 2.4703,4.59504 3.73517,6.8752 0.5385,1.32246 0.80097,2.72199 1.06697,4.11643 0,0 -9.2442,4.91908 -9.2442,4.91908 l 0,0 c -0.21694,-1.29002 -0.42392,-2.58746 -0.93637,-3.80255 -1.23431,-2.29739 -2.58624,-4.53304 -3.72558,-6.88199 -1.09713,-2.02284 -2.6283,-3.73044 -3.65975,-5.77825 -0.70775,-2.94188 -0.60054,-6.02582 -0.62382,-9.03512 0.0603,-3.12914 0.27656,-6.25157 0.68401,-9.35592 0.48087,-3.99633 0.90778,-7.99253 2.3075,-11.80176 1.08269,-3.53223 1.89286,-7.24101 4.20558,-10.21722 2.31493,-2.79954 4.84979,-5.40981 7.16513,-8.21074 2.4632,-2.78224 5.07064,-5.40691 7.78995,-7.9405 0.91938,-1.0569 1.90576,-2.05514 2.80634,-3.1281 1.74101,-2.07426 3.12889,-4.43395 4.87197,-6.50864 2.21046,-3.04328 4.09301,-6.43945 7.31931,-8.54174 5.78653,-4.2792 11.50564,-8.46154 18.11979,-11.53416 3.91004,-2.15015 7.8571,-3.7058 12.17836,-4.86071 2.14912,-0.69071 4.28433,-1.5004 6.46802,-2.07769 1.44347,-0.38159 3.5469,-0.77917 4.96913,-1.06152 1.06902,-0.21224 2.13857,-0.42183 3.20785,-0.63274 7.56597,-1.67806 15.06545,-3.66219 22.67896,-5.11863 7.82711,-1.49561 15.72588,-2.4526 23.65023,-3.27729 7.03724,-0.64186 14.10796,-0.93664 21.12897,0.1074 7.81213,0.95108 15.60525,2.07183 23.36584,3.37828 10.39277,2.14384 20.80891,4.245 31.05469,7.02094 6.05256,1.71768 12.09213,3.50201 18.06026,5.49394 0,0 -8.81777,5.87631 -8.81777,5.87631 z"
       inkscape:connector-curvature="0" />
    <path
       style="fill:#000000;stroke:#000000"
       id="path4019"
       d="m -378.0497,778.56727 c 8.41587,0.25125 16.83714,0.208 25.25561,0.16875 5.46746,-0.0426 10.93489,-0.091 16.40226,-0.14452 2.38261,-0.16247 4.72615,0.0531 7.0863,0.33576 1.93735,0.30239 3.91871,0.13229 5.84829,0.44808 2.43807,0.39857 2.78325,1.09798 3.42912,3.41519 0,0 -9.26182,5.02776 -9.26182,5.02776 l 0,0 c -0.50477,-1.99136 -0.78112,-2.05637 -2.79299,-2.34558 -1.93578,-0.18257 -3.88853,-0.17521 -5.8166,-0.45725 -2.2963,-0.2769 -4.59284,-0.33956 -6.90585,-0.31116 -5.33474,-0.0536 -10.66956,-0.10204 -16.00441,-0.14453 -8.57339,-0.0405 -17.14916,-0.0753 -25.72014,0.16875 0,0 8.48023,-6.16125 8.48023,-6.16125 z"
       inkscape:connector-curvature="0" />
    <path
       style="fill:#000000;stroke:#000000"
       id="path4021"
       d="m -359.15989,793.54453 c 3.43431,0.081 6.87033,0.0586 10.3053,0.0409 2.60378,-0.008 5.20753,-0.0191 7.8113,-0.0284 0,0 -8.50843,6.18174 -8.50843,6.18174 l 0,0 c -2.5777,-0.009 -5.15538,-0.0207 -7.73309,-0.0284 -3.47253,-0.0182 -6.94601,-0.0385 -10.41791,0.0409 0,0 8.54283,-6.20673 8.54283,-6.20673 z"
       inkscape:connector-curvature="0" />
    <path
       style="fill:#000000;stroke:#000000"
       id="path4023"
       d="m -347.79436,717.8081 c 3.95766,3.66924 7.6186,7.63201 10.99413,11.83929 2.38188,3.52017 4.24478,7.37979 5.68454,11.37373 0.78663,2.45302 0.79557,3.79818 -0.53023,6.02801 -1.22857,1.3048 -2.60898,2.59139 -4.18129,3.48506 -10.18471,5.78884 -6.36914,4.84719 -11.41749,5.91443 -1.92128,0.26011 -3.83002,0.54785 -5.74184,0.88483 0,0 8.31542,-6.26444 8.31542,-6.26444 l 0,0 c 1.9123,-0.33228 3.84041,-0.58305 5.73563,-0.99984 4.13968,-1.38284 1.59667,-0.62934 -6.67854,4.26758 -0.34224,0.20252 0.69417,-0.38932 1.02763,-0.60598 1.15935,-0.75326 2.23435,-1.63422 3.30783,-2.5018 1.49045,-1.72624 1.59603,-2.9708 0.99284,-5.15347 -1.23734,-3.94918 -2.94126,-7.76896 -5.23967,-11.21921 -3.2842,-4.20455 -6.92511,-8.14589 -11.19835,-11.37132 0,0 8.92939,-5.67687 8.92939,-5.67687 z"
       inkscape:connector-curvature="0" />
    <path
       style="fill:#000000;stroke:#000000"
       id="path4025"
       d="m -396.41692,644.12194 c 4.04184,-0.48775 8.09637,-0.8471 12.16327,-1.02934 4.65084,-0.0817 9.26805,0.43561 13.86512,1.07123 3.60723,0.55643 7.21164,1.06992 10.85257,1.34848 1.6868,0.0323 3.35053,0.20962 5.01987,0.43563 0,0 -8.5871,6.06774 -8.5871,6.06774 l 0,0 c -1.63343,-0.21143 -3.27225,-0.3298 -4.91446,-0.45274 -3.62383,-0.35317 -7.2241,-0.8686 -10.81995,-1.43804 -4.54639,-0.64276 -9.12261,-1.12543 -13.7234,-0.93066 -4.12897,0.24299 -8.25526,0.57337 -12.34129,1.2373 0,0 8.48537,-6.3096 8.48537,-6.3096 z"
       inkscape:connector-curvature="0" />
    <path
       style="fill:#000000;stroke:#000000"
       id="path4027"
       d="m -323.47706,646.98833 c 3.2458,-0.22463 6.49565,-0.37211 9.7471,-0.48222 2.55463,0.0346 5.07857,-0.17168 7.61246,-0.46343 2.53299,-0.28431 5.08924,-0.27163 7.63495,-0.31207 2.55903,-0.0287 5.11819,-0.0121 7.67721,-0.0404 1.64884,-0.004 3.29769,-0.007 4.94653,-0.009 1.39423,-0.0597 2.74143,-0.0249 4.10149,0.27949 0,0 -8.69312,6.06725 -8.69312,6.06725 l 0,0 c -1.31419,-0.20801 -2.64188,-0.10029 -3.96782,-0.1286 -1.63681,-0.003 -3.27361,-0.01 -4.9104,-0.0171 -2.53663,-0.0317 -5.07349,-0.0183 -7.61008,0.0129 -2.54227,0.0406 -5.08684,0.11014 -7.6137,0.416 -2.52807,0.25565 -5.05656,0.35862 -7.59809,0.35371 -3.27389,0.0956 -6.55151,0.23308 -9.80646,0.61475 0,0 8.47993,-6.29111 8.47993,-6.29111 z"
       inkscape:connector-curvature="0" />
    <path
       style="fill:#000000;stroke:#000000"
       id="path4035"
       d="m -426.71046,677.77934 c -3.01207,-0.1999 -5.99766,0.18711 -8.95601,0.7116 -3.77349,0.60389 -7.32684,1.91187 -10.69385,3.68542 9.44739,-5.3605 4.89447,-3.27406 3.42565,-1.12115 -0.5795,0.84939 -0.8305,1.6988 -0.96444,2.69898 0.0566,0.24977 0.0693,0.51379 0.16984,0.74932 0.41586,0.97383 1.34172,1.78695 1.99292,2.59268 0.2948,0.36476 1.25521,1.64194 1.53839,2.01666 2.02644,2.33158 3.46146,5.05777 5.06629,7.67515 1.69728,2.50349 3.38737,4.99426 5.58717,7.08311 1.42883,1.16661 2.85152,2.4095 4.4375,3.36428 0.59862,0.34735 1.10982,0.80032 1.72033,1.12826 0,0 -6.28796,4.07479 -6.28796,4.07479 l 0,0 c -0.5836,-0.37318 -1.11821,-0.81229 -1.71152,-1.17098 -1.54798,-1.07208 -2.98794,-2.31447 -4.39972,-3.55579 -0.86723,-0.84788 -1.17099,-1.09819 -1.94455,-2.04471 -1.34813,-1.64957 -2.39264,-3.53164 -3.65702,-5.24251 -1.60945,-2.58875 -3.14201,-5.22967 -5.12709,-7.55889 -0.21229,-0.27952 -1.28595,-1.69867 -1.51538,-1.97901 -0.74224,-0.90695 -1.72098,-1.76495 -2.21775,-2.85013 -0.14153,-0.30918 -0.18665,-0.65396 -0.27998,-0.98094 0.0191,-0.33988 -0.002,-0.68441 0.0574,-1.01963 0.8137,-4.6027 6.51659,-6.51524 9.7982,-8.41535 3.42188,-1.67206 7.0225,-2.89014 10.79552,-3.48649 3.05742,-0.49384 6.13226,-0.79079 9.2333,-0.76279 0,0 -6.06726,4.40812 -6.06726,4.40812 z"
       inkscape:connector-curvature="0" />
    <path
       style="fill:#000000;stroke:#000000"
       id="path4037"
       d="m -422.43823,707.63087 c -0.21525,4.29212 -0.16184,8.59243 -0.17281,12.88852 -0.009,4.73371 0.0341,9.4673 0.0247,14.201 0.0297,4.07948 -0.0648,8.16356 0.099,12.24068 0.17596,3.59612 0.91883,7.11298 1.7918,10.594 1.00031,3.59323 2.5273,7.00206 3.86854,10.47301 1.24312,3.99945 2.89949,7.83681 4.69692,11.61278 1.5962,3.50296 3.18109,7.00667 5.01383,10.39375 1.63316,3.04106 3.9161,5.67247 6.12028,8.3083 3.98539,4.95326 8.19813,9.71322 12.2097,14.6446 2.44593,3.19778 5.23044,6.115 7.68013,9.30742 1.85826,2.45082 3.89117,4.76592 5.92228,7.07465 1.77272,2.00298 3.53109,4.05734 5.55982,5.81063 0,0 -6.31597,3.91037 -6.31597,3.91037 l 0,0 c -1.94197,-1.86538 -3.63947,-3.97213 -5.42692,-5.98127 -2.07256,-2.30204 -4.21987,-4.55687 -6.03053,-7.07493 -2.40902,-3.19386 -4.99823,-6.24696 -7.37738,-9.46467 -3.9696,-4.97159 -8.22809,-9.69577 -12.37069,-14.52265 -2.30803,-2.624 -4.67971,-5.26187 -6.26806,-8.40392 -1.80562,-3.41566 -3.38212,-6.93837 -4.99475,-10.44758 -1.76773,-3.8065 -3.4475,-7.64786 -4.72378,-11.65296 -1.37992,-3.48785 -2.92064,-6.92323 -3.92451,-10.54715 -0.88178,-3.52221 -1.71173,-7.0722 -1.89382,-10.7124 -0.12607,-4.10132 0.0369,-8.20614 -0.0218,-12.30885 -0.009,-4.74209 0.0336,-9.48408 0.0247,-14.2262 -0.0109,-4.23731 0.0455,-8.47926 -0.17282,-12.71241 0,0 6.68214,-3.40472 6.68214,-3.40472 z"
       inkscape:connector-curvature="0" />
    <path
       style="fill:#000000;stroke:#000000"
       id="path4039"
       d="m -369.24374,837.37701 c -2.15702,0.0569 -4.27668,-0.0925 -6.40254,-0.44778 -1.16611,-0.1597 -2.26013,-0.60016 -3.34212,-1.04109 0,0 6.20958,-4.15492 6.20958,-4.15492 l 0,0 c 1.02767,0.41696 2.0815,0.77649 3.18079,0.95125 2.12317,0.34659 4.25561,0.39234 6.40384,0.29729 0,0 -6.04955,4.39525 -6.04955,4.39525 z"
       inkscape:connector-curvature="0" />
    <path
       style="fill:#000000;stroke:#000000"
       id="path4041"
       d="m -372.72619,839.70186 c -1.4491,-0.35548 -2.81117,-0.91598 -4.09846,-1.66165 -1.03753,-0.68064 -1.97513,-1.49441 -2.98927,-2.21114 0,0 6.2404,-3.96615 6.2404,-3.96615 l 0,0 c 0.98672,0.71619 1.93652,1.49046 2.98545,2.11545 1.27464,0.68812 2.62593,1.18863 4.04692,1.48764 0,0 -6.18504,4.23585 -6.18504,4.23585 z"
       inkscape:connector-curvature="0" />
    <path
       style="fill:#000000;stroke:#000000"
       id="path4043"
       d="m -430.62585,677.73909 c 0.27291,-3.77289 -0.0674,-7.53687 -0.57959,-11.27238 -0.6226,-3.20921 -1.62827,-6.32807 -2.56518,-9.45587 0,0 6.46351,-3.5222 6.46351,-3.5222 l 0,0 c 0.86171,3.19851 1.8149,6.37927 2.44911,9.63293 0.52221,3.72412 0.86833,7.45918 0.89479,11.22273 0,0 -6.66264,3.39479 -6.66264,3.39479 z"
       inkscape:connector-curvature="0" />
    <path
       style="fill:#000000;stroke:#000000"
       id="path4045"
       d="m -432.81118,688.56768 c -0.74882,-0.21052 -2.38982,-1.08673 -3.1384,-0.9092 -0.12507,0.0297 -0.20659,0.15301 -0.30988,0.22951 2.07234,-1.16134 4.09581,-2.41456 6.21703,-3.48404 0.1206,-0.0608 -0.1085,0.2612 -0.0902,0.39502 0.037,0.27082 0.14541,0.52856 0.25103,0.78068 0.49978,1.19292 1.24083,2.16564 2.04391,3.16459 1.44538,1.55224 3.01312,2.98092 4.65062,4.32628 0,0 -6.31043,3.9403 -6.31043,3.9403 l 0,0 c -1.62705,-1.41258 -3.16103,-2.93227 -4.63264,-4.50538 -1.02995,-1.29149 -2.12058,-2.67876 -2.63544,-4.27887 -0.085,-0.26404 -0.38062,-0.64908 -0.15961,-0.81666 2.06673,-1.5671 4.41531,-2.7228 6.62296,-4.08421 1.31183,0.0825 2.53482,0.68426 3.75875,1.11805 0,0 -6.26771,4.12393 -6.26771,4.12393 z"
       inkscape:connector-curvature="0" />
    <path
       style="fill:#000000;stroke:#000000"
       id="path4047"
       d="m -265.07607,670.85549 c 4.11232,0.12903 8.22763,0.1032 12.34131,0.0786 0.59913,-0.005 1.19826,-0.0109 1.7974,-0.0163 0,0 -5.86913,4.26417 -5.86913,4.26417 l 0,0 c -0.58418,-0.005 -1.16835,-0.0109 -1.75252,-0.0163 -4.18587,-0.0254 -8.37313,-0.0465 -12.55776,0.0786 0,0 6.0407,-4.38882 6.0407,-4.38882 z"
       inkscape:connector-curvature="0" />
    <path
       style="fill:#000000;stroke:#000000"
       id="path4049"
       d="m -249.58667,671.35092 c 1.21151,0.23421 2.70203,0.32034 3.54394,1.36389 0.23157,0.28704 0.37585,0.63466 0.56378,0.95199 0.1059,0.41893 0.27237,0.82706 0.31772,1.25679 0.29812,2.82446 -1.30224,5.64506 -2.52496,8.06962 -1.84145,3.30483 -4.48012,5.98805 -7.2,8.56823 -2.13291,2.15783 -4.3816,4.17956 -6.7021,6.1312 0,0 -6.77825,2.73566 -6.77825,2.73566 l 0,0 c 2.35534,-1.94276 4.69216,-3.89351 6.79126,-6.12096 2.71236,-2.51853 5.35859,-5.11134 7.25829,-8.32539 1.15505,-2.17367 2.84442,-5.00876 2.67686,-7.56124 -0.0232,-0.35363 -0.15773,-0.69101 -0.2366,-1.03651 -0.15287,-0.23693 -0.26741,-0.50356 -0.45861,-0.7108 -0.78868,-0.85486 -2.26574,-0.82509 -3.31859,-0.91436 0,0 6.06726,-4.40812 6.06726,-4.40812 z"
       inkscape:connector-curvature="0" />
    <path
       style="fill:#000000;stroke:#000000"
       id="path4051"
       d="m -262.24547,679.83421 c 1.90756,-0.15454 3.82013,-0.2528 5.73233,-0.33206 0.26611,0.0751 0.55377,0.0963 0.79834,0.22528 1.73386,0.91466 1.49898,3.45134 1.27829,5.03802 -0.29617,0.92116 -0.30638,1.19179 -0.85264,1.98583 -1.70662,2.48073 -8.03495,5.28382 -9.01087,5.83917 -0.20403,0.0598 -0.40805,0.1197 -0.61208,0.17954 0,0 5.88383,-4.59329 5.88383,-4.59329 l 0,0 c 0.18289,-0.0793 0.36579,-0.15858 0.54868,-0.23787 -1.91772,1.12211 -3.83632,2.24274 -5.75317,3.36632 -0.23109,0.13546 0.46968,-0.25839 0.69584,-0.40191 1.1291,-0.71653 2.05439,-1.59763 2.47463,-2.90248 0.22017,-1.06089 0.69469,-3.55045 -0.76256,-4.02796 -0.2141,-0.0702 -0.4467,-0.0593 -0.67004,-0.0889 -1.92205,0.0703 -3.85131,0.14568 -5.75406,0.44361 0,0 6.00348,-4.4933 6.00348,-4.4933 z"
       inkscape:connector-curvature="0" />
    <path
       style="fill:#000000;stroke:#000000"
       id="path4053"
       d="m -269.47932,672.2613 c 0.47211,-3.55318 0.49021,-7.15379 0.53847,-10.73313 0.01,-3.42373 0.0265,-6.8473 0.0473,-10.27101 -0.13417,-3.66639 -0.86768,-7.27592 -1.45646,-10.88857 -0.49511,-3.09691 -0.85184,-6.23152 -1.67463,-9.26407 -0.32305,-1.1541 -0.14498,-0.61596 -0.51898,-1.61939 0,0 6.50345,-3.60017 6.50345,-3.60017 l 0,0 c 0.37105,1.07889 0.1994,0.51083 0.50387,1.70749 0.735,3.08761 1.06788,6.2545 1.58371,9.38268 0.61746,3.64649 1.30615,7.29564 1.51253,10.99437 0.0163,3.4329 0.0243,6.86525 -0.073,10.29734 -0.0735,3.56187 -0.14214,7.12386 -0.2372,10.68524 0,0 -6.72908,3.30922 -6.72908,3.30922 z"
       inkscape:connector-curvature="0" />
    <path
       style="fill:#000000;stroke:#000000"
       id="path4057"
       d="m -264.36632,693.74389 c -1.01037,4.1044 -2.09274,8.18531 -3.29538,12.23775 -1.65778,5.42453 -3.40484,10.8207 -4.86579,16.30319 -0.94298,3.93152 -1.91149,7.85071 -3.05501,11.72893 -1.22961,3.57773 -2.23596,7.22604 -3.43225,10.81399 -1.2518,3.66717 -2.77298,7.23176 -4.08332,10.87717 -1.08991,3.54781 -2.26034,7.07399 -3.29189,10.63928 -0.73734,3.01736 -1.67541,5.97614 -2.56724,8.94909 -0.73949,2.56955 -1.39098,5.16354 -2.31253,7.67544 -1.06269,2.51487 -2.40617,4.89402 -3.54616,7.37416 -0.70437,1.85741 -1.57763,3.61383 -2.64844,5.28426 -1.40055,2.03301 -2.63771,4.17059 -4.15998,6.1168 -1.47633,1.93834 -3.13308,3.71251 -4.9263,5.35779 -1.83933,1.62444 -3.49073,3.44688 -5.39246,4.99916 -1.90933,1.48449 -3.90947,2.84128 -5.94028,4.15201 -5.10472,3.23177 -10.43989,6.07611 -15.80277,8.851 -1.022,0.42357 -1.96512,1.00482 -2.94443,1.51038 -0.72506,0.3743 -1.47323,0.62066 -2.18349,1.02427 -1.63505,0.94698 -3.42068,1.6287 -5.19203,2.27709 -1.48416,0.61137 -3.05494,0.99425 -4.54188,1.59639 -0.52357,0.21203 -1.01948,0.48761 -1.53886,0.70972 -1.31889,0.564 -1.92506,0.74939 -3.27149,1.21817 -2.5526,1.02127 -5.22843,1.63777 -7.84044,2.46733 -1.7954,0.7062 -3.74472,0.91171 -5.52485,1.64336 -1.03058,0.25772 -1.94732,0.72784 -2.87768,1.21596 0,0 5.83285,-4.6745 5.83285,-4.6745 l 0,0 c 0.93676,-0.46687 1.92528,-0.78793 2.91455,-1.12507 1.80561,-0.56595 3.67999,-0.90113 5.46272,-1.55104 2.59879,-0.78064 5.22401,-1.46998 7.76164,-2.44574 3.15581,-1.15158 6.22407,-2.52703 9.41362,-3.59254 1.77679,-0.70425 3.5481,-1.43518 5.20643,-2.39352 1.69171,-0.78527 3.35306,-1.62612 5.02553,-2.45264 0.80577,-0.41299 1.9742,-1.01111 2.76339,-1.41882 0.57256,-0.29579 2.25726,-1.24032 1.71625,-0.89014 -8.9296,5.77985 -3.26302,1.75114 -1.17728,0.68036 2.00232,-1.30498 3.99736,-2.62036 5.89975,-4.06949 1.98076,-1.45783 3.6056,-3.30952 5.42475,-4.95703 1.82012,-1.58362 3.49539,-3.31257 4.9541,-5.23931 1.57553,-1.89608 2.83317,-4.00528 4.20238,-6.05129 1.06933,-1.63958 1.9889,-3.34326 2.67686,-5.1827 1.14584,-2.47428 2.4992,-4.84202 3.59951,-7.3367 0.93964,-2.49732 1.65037,-5.06935 2.35509,-7.64113 0.87713,-2.98443 1.90653,-5.92524 2.61102,-8.96013 1.00176,-3.59779 2.30775,-7.10655 3.32038,-10.70297 1.26492,-3.65011 2.82438,-7.18661 4.05373,-10.84994 1.20278,-3.58883 2.26473,-7.22226 3.47959,-10.80737 1.14408,-3.88904 2.1597,-7.80874 3.12531,-11.74586 1.52231,-5.48218 3.34791,-10.87223 4.91378,-16.34118 1.14643,-3.96651 2.23572,-7.9525 2.98245,-12.01704 0,0 6.71655,-3.2569 6.71655,-3.2569 z"
       inkscape:connector-curvature="0" />
    <path
       style="fill:#000000;stroke:#000000"
       id="path4059"
       d="m -389.40425,815.47608 c 1.70931,6.85642 3.57848,13.67186 5.21324,20.54739 1.18246,4.52916 1.4952,9.1812 1.66176,13.83654 0.0139,0.62681 0.0277,1.25363 0.0416,1.88044 0,0 -9.23625,4.72296 -9.23625,4.72296 l 0,0 c -0.004,-0.62642 -0.009,-1.25283 -0.0129,-1.87925 -0.0947,-4.62146 -0.39015,-9.23932 -1.36482,-13.77187 -1.42,-6.84163 -3.06764,-13.65255 -5.55294,-20.19695 0,0 9.25029,-5.13926 9.25029,-5.13926 z"
       inkscape:connector-curvature="0" />
    <path
       style="fill:#000000;stroke:#000000"
       id="path4061"
       d="m -321.87126,821.07589 c -1.53372,5.4562 -3.16278,10.87952 -4.42234,16.4082 -0.78111,3.67213 -1.15683,7.41136 -1.68059,11.124 0,0 -9.38148,4.59108 -9.38148,4.59108 l 0,0 c 0.69043,-3.74064 0.94834,-7.55961 1.81641,-11.27212 1.33587,-5.42814 2.98817,-10.77313 4.21162,-16.22799 0,0 9.45638,-4.62317 9.45638,-4.62317 z"
       inkscape:connector-curvature="0" />
    <path
       style="fill:#000000;stroke:#000000"
       id="path4063"
       d="m -393.45985,856.46266 c -1.24165,0.19607 -1.59242,0.27444 -2.98086,0.3661 -2.58178,0.17046 -5.00486,0.16659 -7.6197,0.18698 -3.66119,0.0286 -11.14912,0.0425 -14.55221,0.0514 -15.17553,-0.002 -30.3468,0.33314 -45.52027,0.51732 -13.05881,0.20397 -26.07688,1.34637 -39.06145,2.67607 0,0 7.73562,-5.72744 7.73562,-5.72744 l 0,0 c 12.93946,-1.00713 25.88161,-2.10546 38.86054,-2.44149 15.15386,-0.30373 30.30499,-0.41186 45.46166,-0.47003 7.64365,-0.16392 15.40875,-0.0682 23.01334,-1.0035 1.46497,-0.18018 1.77762,-0.28292 3.07312,-0.58599 0,0 -8.40979,6.43062 -8.40979,6.43062 z"
       inkscape:connector-curvature="0" />
    <path
       style="fill:#000000;stroke:#000000"
       id="path4065"
       d="m -322.17539,842.82115 c 8.5955,0.31179 17.20062,0.25222 25.8004,0.22741 10.7297,-0.1127 21.45874,0.0767 32.18831,0.11341 9.90111,0.0494 19.80085,-0.10434 29.70059,-0.23355 3.36526,0.0946 6.70966,-0.16847 10.04764,-0.56052 0.90328,-0.0962 1.80992,-0.14902 2.71666,-0.19778 0,0 -8.50912,6.25914 -8.50912,6.25914 l 0,0 c -0.88686,0.057 -1.77346,0.11826 -2.65762,0.20955 -3.28489,0.27943 -6.57185,0.43726 -9.87015,0.3 -9.68541,-0.13113 -19.37082,-0.28498 -29.05767,-0.23356 -10.83362,0.0368 -21.66675,0.22488 -32.50049,0.11341 -8.80862,-0.0256 -17.62169,-0.0746 -26.42643,0.22741 0,0 8.56788,-6.22492 8.56788,-6.22492 z"
       inkscape:connector-curvature="0" />
    <path
       style="fill:#000000;stroke:#000000"
       id="path4067"
       d="m -503.41461,859.91058 c -2.51606,0.24336 -5.01623,0.73675 -7.42739,1.49826 -4.06964,2.51208 2.84141,-1.7721 7.18481,-3.97532 0.3541,-0.17962 -0.58369,0.54306 -0.82939,0.85496 -0.8873,1.12641 -1.3409,2.49019 -1.81163,3.81977 -1.96648,6.40369 -2.11653,13.19534 -2.55457,19.83011 -0.50207,5.83133 -0.3443,11.69971 -0.88001,17.52723 -0.21344,2.32174 -0.69438,6.0269 -0.9745,8.2813 -0.9605,8.74181 -1.83153,17.49248 -2.88382,26.22386 -0.42183,2.50244 -0.44229,5.06649 -0.89104,7.56447 -0.12769,0.71079 -0.55404,2.34708 -0.69839,2.92327 -0.15888,0.91115 -0.31777,1.8223 -0.47666,2.73346 0,0 -9.16437,4.51203 -9.16437,4.51203 l 0,0 c 0.0927,-0.90958 0.18549,-1.81915 0.27823,-2.72873 0.85578,-4.47167 -0.13895,0.45121 0.65077,-2.84348 0.60467,-2.52262 0.68417,-5.15074 1.21884,-7.68716 1.32638,-8.7292 2.33624,-17.49885 3.0784,-26.29751 0.92338,-8.5872 1.71958,-17.17661 1.98846,-25.81509 0.36645,-6.59205 0.18544,-13.35774 1.86759,-19.78387 2.09811,-6.93788 4.62129,-8.31205 13.20804,-11.54027 2.50213,-0.64951 5.04549,-1.10456 7.60682,-1.45178 0,0 -8.49019,6.35449 -8.49019,6.35449 z"
       inkscape:connector-curvature="0" />
    <path
       style="fill:#000000;stroke:#000000"
       id="path4069"
       d="m -228.60396,846.39258 c 4.21093,0.7971 8.62384,1.62625 12.22229,4.1234 1.09322,0.75864 2.04268,1.70589 3.06402,2.55884 1.11017,1.28177 2.29849,2.49981 3.33052,3.8453 2.52351,3.29 7.18628,10.47949 9.24973,13.64025 5.37988,8.24081 10.67221,16.52976 15.85241,24.89714 3.8379,6.43632 7.47792,13.08139 9.60467,20.31291 2.11023,7.17532 2.84415,14.68129 3.75924,22.07096 0.8585,8.10886 0.44741,4.22599 1.23319,11.64773 0,0 -8.63983,4.49986 -8.63983,4.49986 l 0,0 c -0.55271,-7.52251 -0.24997,-3.59489 -0.9161,-11.78226 -0.58655,-5.15855 -0.98793,-9.59484 -1.99507,-14.70739 -1.92823,-9.78837 -5.79923,-18.93299 -10.86485,-27.50474 -1.5735,-2.64456 -3.09858,-5.31854 -4.72051,-7.93368 -2.61667,-4.21901 -8.28127,-12.82823 -11.1107,-16.91646 -2.78804,-4.02845 -6.57512,-9.31423 -9.8366,-13.14314 -1.0737,-1.26049 -2.27844,-2.40321 -3.41766,-3.60481 -1.01962,-0.77851 -1.97799,-1.64458 -3.05886,-2.33554 -3.63588,-2.32427 -8.0869,-3.18023 -12.32377,-3.44345 0,0 8.56788,-6.22492 8.56788,-6.22492 z"
       inkscape:connector-curvature="0" />
    <path
       style="fill:#000000;stroke:#000000"
       id="path4071"
       d="m -469.10399,916.27576 c -1.33518,5.79564 -3.56467,11.36364 -4.69973,17.20966 -0.26468,1.36319 -0.41061,2.74678 -0.61591,4.12016 -0.6909,6.29966 -0.1136,12.60264 0.97786,18.81309 0.35409,2.7245 0.19832,1.33961 0.46306,4.15516 0,0 -9.15742,4.77635 -9.15742,4.77635 l 0,0 c -0.26855,-2.76627 -0.11482,-1.40366 -0.45791,-4.08819 -0.87494,-6.38081 -1.35491,-12.82689 -0.75709,-19.26217 0.18569,-1.39763 0.30631,-2.80546 0.55708,-4.19289 1.03864,-5.74656 3.32788,-11.19329 4.24253,-16.96598 0,0 9.44753,-4.56519 9.44753,-4.56519 z"
       inkscape:connector-curvature="0" />
    <path
       style="fill:#000000;stroke:#000000"
       id="path4073"
       d="m -518.84417,937.84367 c 0.058,8.46246 0.24863,16.92281 -0.16218,25.37842 -0.43277,5.87116 -0.80712,11.74501 -1.10624,17.6244 0,0 -9.15866,4.59343 -9.15866,4.59343 l 0,0 c 0.45195,-5.92417 1.00652,-11.84047 1.41389,-17.76834 0.50075,-8.33545 0.47757,-16.70603 -0.27045,-25.02875 0,0 9.28364,-4.79916 9.28364,-4.79916 z"
       inkscape:connector-curvature="0" />
    <path
       style="fill:#000000;stroke:#000000"
       id="path4075"
       d="m -477.36755,955.48622 c 0.63816,7.97919 0.88609,15.97595 1.61251,23.94859 0.37101,5.11479 1.17648,10.14147 2.41912,15.10818 0,0 -9.20383,4.95596 -9.20383,4.95596 l 0,0 c -0.37204,-1.75189 -0.78421,-3.50617 -1.0324,-5.28121 -0.47504,-3.3975 -0.56491,-6.83432 -0.90811,-10.24456 -0.60683,-7.85563 -0.87805,-15.76965 -2.26702,-23.53887 0,0 9.37973,-4.94809 9.37973,-4.94809 z"
       inkscape:connector-curvature="0" />
    <path
       style="fill:#000000;stroke:#000000"
       id="path4077"
       d="m -261.75661,914.63077 c 1.97587,1.90173 4.05809,3.68806 6.09737,5.52057 1.31427,1.18102 2.80372,2.40177 3.84546,3.8576 0.54319,0.7591 0.92697,1.62046 1.39045,2.43069 1.63152,4.51272 2.86835,9.33083 2.98652,14.15995 0.0254,1.0384 -0.0527,2.07674 -0.079,3.11511 -0.62493,6.27457 -2.12908,12.42416 -3.71826,18.51354 -1.80896,6.52926 -3.69566,13.03622 -5.57841,19.54462 -0.78785,2.53079 -1.39512,5.10998 -2.04073,7.67892 0,0 -9.48075,4.52943 -9.48075,4.52943 l 0,0 c 0.71202,-2.62809 1.38928,-5.26589 2.28314,-7.84058 2.06773,-6.4527 3.93371,-12.96922 5.64287,-19.52551 1.53309,-6.04302 3.23217,-12.08763 3.82675,-18.31338 0.0309,-1.00149 0.11136,-2.00269 0.0928,-3.00449 -0.0865,-4.67405 -1.19547,-9.38062 -2.79135,-13.74567 -0.43357,-0.74755 -0.79665,-1.54071 -1.30072,-2.24266 -0.98094,-1.36604 -2.49104,-2.68298 -3.71864,-3.79402 -2.04763,-1.8532 -4.16194,-3.62673 -6.35027,-5.31194 0,0 8.89279,-5.57218 8.89279,-5.57218 z"
       inkscape:connector-curvature="0" />
    <path
       style="fill:#000000;stroke:#000000"
       id="path4079"
       d="m -178.9016,904.12154 c -0.68381,14.52076 -0.72816,29.05738 -0.61489,43.59029 0.23646,11.47176 0.32695,22.96696 -0.70785,34.40434 -0.37622,4.15486 -0.96683,8.2679 -2.16597,12.26718 -0.37486,1.07841 -0.81701,2.13098 -1.23259,3.19386 0,0 -9.55378,4.42859 -9.55378,4.42859 l 0,0 c 0.41451,-1.0658 0.86042,-2.11693 1.32254,-3.1631 1.35078,-3.98455 2.13638,-8.09353 2.63696,-12.27021 1.53745,-11.51211 1.47495,-23.13427 1.59081,-34.72847 0.11076,-14.32391 0.0845,-28.65252 -0.61489,-42.96368 0,0 9.33966,-4.7588 9.33966,-4.7588 z"
       inkscape:connector-curvature="0" />
    <path
       style="fill:#000000;stroke:#000000"
       id="path4081"
       d="m -394.83262,855.49552 c 2.56847,1.31104 5.14298,2.67354 7.47847,4.37815 2.14621,1.56647 3.02077,2.47942 5.06123,4.34015 7.42956,7.20006 13.12235,15.6547 18.22407,24.58958 4.18875,7.78468 6.81809,16.25248 9.84419,24.52492 2.53922,7.34947 5.64424,14.46938 8.75763,21.58707 3.11151,6.89302 6.70802,13.5379 10.51818,20.06385 2.59918,4.74178 5.61644,9.22747 8.62357,13.715 2.04625,3.62324 4.48328,6.97356 6.88657,10.3585 0.90867,1.165 1.77039,2.36517 2.63544,3.56251 0,0 -9.05166,5.32196 -9.05166,5.32196 l 0,0 c -0.80466,-1.22952 -1.62346,-2.44984 -2.50395,-3.6271 -2.38044,-3.41143 -4.84177,-6.75647 -6.87017,-10.40161 -2.97292,-4.53278 -5.85505,-9.12767 -8.47294,-13.87635 -3.75581,-6.59741 -7.25979,-13.3326 -10.52698,-20.18603 -3.13821,-7.13489 -6.10608,-14.33799 -8.71971,-21.6837 -2.95892,-8.24763 -5.57078,-16.66175 -9.61567,-24.46661 -0.80892,-1.45879 -1.57688,-2.94107 -2.42678,-4.37638 -4.32597,-7.30571 -9.60221,-14.01934 -15.8297,-19.80114 -3.90884,-3.27856 -7.95885,-6.40692 -12.80861,-8.17735 0,0 8.79682,-5.84542 8.79682,-5.84542 z"
       inkscape:connector-curvature="0" />
    <path
       style="fill:#000000;stroke:#000000"
       id="path4083"
       d="m -351.36579,881.37952 c 1.33835,1.31066 2.54121,2.74887 3.69074,4.22478 0,0 -8.993,5.35528 -8.993,5.35528 l 0,0 c -1.08272,-1.4085 -2.20705,-2.81587 -3.62713,-3.90318 0,0 8.92939,-5.67688 8.92939,-5.67688 z"
       inkscape:connector-curvature="0" />
    <path
       style="fill:#000000;stroke:#000000"
       id="path4085"
       d="m -335.88729,914.09921 c 0.20021,1.94306 0.61095,3.85638 0.98326,5.77126 0,0 -9.08596,4.86079 -9.08596,4.86079 l 0,0 c -0.39421,-1.86802 -0.8364,-3.72409 -1.20953,-5.59619 0,0 9.31223,-5.03586 9.31223,-5.03586 z"
       inkscape:connector-curvature="0" />
    <path
       style="fill:#000000;stroke:#000000"
       id="path4087"
       d="m -322.88885,948.00551 c 0.81931,1.14777 1.6883,2.25748 2.52514,3.39253 0,0 -8.98368,5.32408 -8.98368,5.32408 l 0,0 c -0.83406,-1.12076 -1.68202,-2.22932 -2.62364,-3.26368 0,0 9.08218,-5.45293 9.08218,-5.45293 z"
       inkscape:connector-curvature="0" />
    <path
       style="fill:#000000;stroke:#000000"
       id="path4089"
       d="m -305.88914,971.85183 c 0.3875,1.24904 0.14236,0.61564 0.75794,1.8913 0,0 -9.12379,5.20141 -9.12379,5.20141 l 0,0 c -0.73333,-1.38722 -0.42732,-0.71054 -0.94268,-2.01869 0,0 9.30853,-5.07402 9.30853,-5.07402 z"
       inkscape:connector-curvature="0" />
    <path
       style="fill:#000000;stroke:#000000"
       id="path4091"
       d="m -391.26591,882.31713 c 1.38321,1.57724 0.68517,0.75651 2.0899,2.46574 0,0 -8.92292,5.36403 -8.92292,5.36403 l 0,0 c -1.39437,-1.61226 -0.68189,-0.86351 -2.12525,-2.25778 0,0 8.95827,-5.57199 8.95827,-5.57199 z"
       inkscape:connector-curvature="0" />
    <path
       style="fill:#000000;stroke:#000000"
       id="path4093"
       d="m -375.07166,908.88636 c 1.3024,1.81476 2.41064,3.72921 3.39644,5.73028 0,0 -9.08256,5.16655 -9.08256,5.16655 l 0,0 c -0.98486,-1.98059 -2.07854,-3.88867 -3.48703,-5.60616 0,0 9.17315,-5.29067 9.17315,-5.29067 z"
       inkscape:connector-curvature="0" />
    <path
       style="fill:#000000;stroke:#000000"
       id="path4095"
       d="m -363.74629,935.42326 c 0.34766,1.85414 0.93634,3.64114 1.57635,5.41129 0,0 -9.23589,5.12382 -9.23589,5.12382 l 0,0 c -0.66733,-1.78354 -1.16252,-3.62236 -1.64898,-5.46109 0,0 9.30852,-5.07402 9.30852,-5.07402 z"
       inkscape:connector-curvature="0" />
    <path
       style="fill:#000000;stroke:#000000"
       id="path4097"
       d="m -350.84768,965.96409 c 0.74115,1.90074 1.80595,3.6491 2.75911,5.44656 0.6769,1.32715 1.84016,2.23627 2.87157,3.26188 0.12537,0.12959 0.25074,0.25918 0.37611,0.38876 0,0 -9.06911,5.52521 -9.06911,5.52521 l 0,0 c -0.11447,-0.12305 -0.22893,-0.2461 -0.34339,-0.36914 -1.11286,-1.0925 -2.26828,-2.16138 -2.98054,-3.57797 -0.93325,-1.81457 -1.97244,-3.57414 -2.83432,-5.42525 0,0 9.22057,-5.25005 9.22057,-5.25005 z"
       inkscape:connector-curvature="0" />
    <path
       style="fill:#000000;stroke:#000000"
       id="path4113"
       d="m -295.11333,871.77464 c 2.30228,-1.89874 4.64237,-3.7452 7.05511,-5.50225 4.23033,-2.94851 8.83522,-5.30913 13.28153,-7.90113 2.68815,-1.56708 -5.39417,3.10327 -8.09606,4.64652 -0.26628,0.1521 0.52607,-0.31532 0.78911,-0.47297 3.23215,-1.86166 6.43924,-3.76754 9.69646,-5.58498 1.44207,-0.80464 3.09437,0.23487 4.3149,0.93171 2.40762,1.70329 4.90731,3.26435 7.20535,5.11798 1.62732,1.16674 3.10409,2.58435 4.85949,3.56099 0.94941,0.69221 2.09972,0.88126 3.17945,1.26174 0,0 -8.75859,5.9443 -8.75859,5.9443 l 0,0 c -1.16116,-0.36088 -2.30049,-0.7626 -3.30875,-1.46504 -1.69764,-1.12249 -3.21445,-2.50076 -4.82451,-3.74183 -2.26803,-1.80248 -4.68618,-3.38873 -7.15006,-4.90995 -1.06247,-0.49517 -1.96597,-0.86672 -3.10687,-0.38151 -0.22017,0.0936 -0.84498,0.44877 -0.63834,0.32819 2.7856,-1.62554 5.58402,-3.22901 8.37602,-4.84352 -5.92219,3.33381 -19.84031,11.4425 -2.77681,1.58744 0.36655,-0.2117 -0.72643,0.43487 -1.0856,0.65887 -0.74929,0.46729 -1.47935,0.96502 -2.2369,1.41928 -2.3893,1.7032 -4.74588,3.44684 -6.95155,5.38113 0,0 -9.82338,3.96503 -9.82338,3.96503 z"
       inkscape:connector-curvature="0" />
    <path
       style="fill:#000000;stroke:#000000"
       id="path4115"
       d="m -284.95335,874.96855 c 6.21216,0.11924 12.42191,0.2588 18.63224,0.46743 2.32456,0.12185 4.64303,0.32842 6.96068,0.53977 0,0 -8.46719,6.01804 -8.46719,6.01804 l 0,0 c -2.23376,-0.26471 -4.47034,-0.50934 -6.71766,-0.6299 -6.31835,-0.2653 -12.64093,-0.47611 -18.96343,-0.17951 0,0 8.55536,-6.21583 8.55536,-6.21583 z"
       inkscape:connector-curvature="0" />
    <path
       style="fill:#000000;stroke:#000000"
       id="path4117"
       d="m -328.79766,823.12193 c -4.0781,2.3848 -7.89378,5.16258 -11.6927,7.95991 -2.55852,1.97457 -5.24368,3.77947 -7.95342,5.53828 0,0 -9.7429,3.78287 -9.7429,3.78287 l 0,0 c 2.80899,-1.71651 5.55353,-3.56039 8.17918,-5.54513 3.72434,-2.7516 7.43059,-5.52026 11.38205,-7.94442 0,0 9.82779,-3.79151 9.82779,-3.79151 z"
       inkscape:connector-curvature="0" />
    <path
       style="fill:#000000;stroke:#000000"
       id="path4119"
       d="m -356.85723,841.03421 c 2.70384,-1.55688 10.80184,-6.25074 8.1115,-4.67066 -3.32978,1.95563 -6.68273,3.87157 -10.02986,5.79735 -0.50476,0.29041 -1.49333,0.81246 -2.00815,1.08087 -0.35595,0.18558 -1.41768,0.75312 -1.07062,0.5514 2.66296,-1.54777 5.34633,-3.06016 8.0195,-4.59024 -4.473,2.98689 -9.28096,5.32996 -14.07872,7.67949 -0.19607,0.0956 -0.39213,0.19111 -0.58819,0.28666 0,0 8.28269,-6.61162 8.28269,-6.61162 l 0,0 c 0.18882,-0.092 0.37763,-0.18408 0.56644,-0.27611 0.76357,-0.38001 1.54261,-0.71462 2.31732,-1.07077 0.30258,-0.13911 1.18882,-0.59839 0.90296,-0.42756 -2.38708,1.42649 -11.48242,6.7068 -7.20575,4.20406 3.32267,-1.92144 6.63854,-3.85469 9.96801,-5.76431 0.68209,-0.39121 1.39013,-0.73553 2.07807,-1.11637 0.32642,-0.18071 1.29825,-0.73605 0.97575,-0.54844 -0.66763,0.38837 -23.84897,13.82191 1.99162,-1.18428 0,0 -8.23257,6.66053 -8.23257,6.66053 z"
       inkscape:connector-curvature="0" />
    <path
       style="fill:#000000;stroke:#000000"
       id="path4123"
       d="m -385.413,835.80368 c 2.15244,0.42979 4.14426,1.42485 6.13698,2.31573 1.62654,0.82493 3.24816,1.65672 4.89228,2.44623 1.41053,0.51308 2.72627,1.23029 3.95624,2.08497 1.32826,0.90343 2.64511,1.81291 4.03265,2.62312 0.7382,0.45 0.38441,0.23427 1.06138,0.64718 0,0 -4.4184,2.84563 -4.4184,2.84563 l 0,0 c -0.65121,-0.42248 -0.30847,-0.20439 -1.02935,-0.65249 -1.3805,-0.83699 -2.69305,-1.77317 -4.04774,-2.65072 -1.22805,-0.81514 -2.53095,-1.48839 -3.90436,-2.02707 -1.62392,-0.78757 -3.21179,-1.63856 -4.80428,-2.48723 -1.96211,-0.88358 -3.98548,-1.89439 -6.1656,-2.02834 0,0 4.2902,-3.11701 4.2902,-3.11701 z"
       inkscape:connector-curvature="0" />
    <path
       style="fill:#000000;stroke:#000000"
       id="path4125"
       d="m -405.03897,868.03319 c -1.99124,-1.41969 -3.86634,-3.01073 -5.6284,-4.70616 -0.86164,-1.04662 -1.6347,-2.16042 -2.46504,-3.23181 0,0 12.84664,-7.65908 12.84664,-7.65908 l 0,0 c 0.79867,1.01211 1.5516,2.05822 2.36509,3.0582 1.67639,1.66027 3.51594,3.1903 5.50946,4.45344 0,0 -12.62775,8.08541 -12.62775,8.08541 z"
       inkscape:connector-curvature="0" />
  </g>
</svg>
