<?xml version="1.0" encoding="UTF-8" standalone="no"?>
<!-- Created with Inkscape (http://www.inkscape.org/) -->

<svg
   xmlns:dc="http://purl.org/dc/elements/1.1/"
   xmlns:cc="http://creativecommons.org/ns#"
   xmlns:rdf="http://www.w3.org/1999/02/22-rdf-syntax-ns#"
   xmlns:svg="http://www.w3.org/2000/svg"
   xmlns="http://www.w3.org/2000/svg"
   xmlns:sodipodi="http://sodipodi.sourceforge.net/DTD/sodipodi-0.dtd"
   xmlns:inkscape="http://www.inkscape.org/namespaces/inkscape"
   width="744.09448819"
   height="1052.3622047"
   id="svg2"
   version="1.1"
   inkscape:version="0.48.2 r9819"
   sodipodi:docname="drawing2.svg">
  <defs
     id="defs4" />
  <sodipodi:namedview
     id="base"
     pagecolor="#ffffff"
     bordercolor="#666666"
     borderopacity="1.0"
     inkscape:pageopacity="0.0"
     inkscape:pageshadow="2"
     inkscape:zoom="1.4"
     inkscape:cx="-172.56253"
     inkscape:cy="293.90765"
     inkscape:document-units="px"
     inkscape:current-layer="layer1"
     showgrid="false"
     inkscape:window-width="1436"
     inkscape:window-height="856"
     inkscape:window-x="4"
     inkscape:window-y="0"
     inkscape:window-maximized="1" />
  <metadata
     id="metadata7">
    <rdf:RDF>
      <cc:Work
         rdf:about="">
        <dc:format>image/svg+xml</dc:format>
        <dc:type
           rdf:resource="http://purl.org/dc/dcmitype/StillImage" />
        <dc:title></dc:title>
      </cc:Work>
    </rdf:RDF>
  </metadata>
  <g
     inkscape:label="Layer 1"
     inkscape:groupmode="layer"
     id="layer1">
    <path
       style="fill:#000000;stroke:#000000"
       id="path3888"
       d="m -417.68016,548.29775 c 2.69543,-1.56063 5.45127,-2.96578 8.51389,-3.58324 5.30214,-0.79309 10.54083,-1.84654 15.80869,-2.85163 5.60125,-1.27017 11.21521,-2.31027 16.94858,-2.67418 5.49651,-0.5867 10.96518,-1.38231 16.47057,-1.91346 3.12622,-0.4925 6.22479,-1.1403 9.38971,-1.31346 6.14585,-0.0758 12.29326,-0.006 18.43969,0.005 5.77013,0.12983 11.56678,-0.47203 17.29247,0.39628 4.534,0.91042 8.82618,2.61494 13.1585,4.1722 4.59186,1.69236 9.23214,3.24968 13.87797,4.78711 3.40887,1.20098 6.99308,1.75656 10.47534,2.6627 0.82919,0.21576 3.14705,1.02056 4.02624,1.32015 4.1361,1.47026 8.14998,3.25003 12.05791,5.24325 4.49298,2.2097 8.69316,4.91451 12.72687,7.86647 4.7828,3.30492 9.63441,6.55018 14.13619,10.23493 4.08924,3.62559 7.17062,8.14463 10.43661,12.4809 3.74308,4.92473 6.31637,10.60763 9.09241,16.10494 2.75954,5.48667 5.77092,10.83681 8.76151,16.19867 2.69879,4.09563 4.64117,8.55829 6.26571,13.16771 1.80137,5.23658 3.49211,10.47842 4.78094,15.86402 1.45359,4.86826 2.32962,9.83083 3.09465,14.84193 0.97131,6.04276 1.15824,12.16465 1.33801,18.27001 0.13149,5.49365 0.16264,10.98857 0.17588,16.48349 -0.036,4.46868 0.0151,8.93671 0.0393,13.40521 -0.21638,3.6782 0.5796,7.21176 1.80679,10.64936 1.08148,2.12981 1.98449,4.38591 3.33505,6.36684 0.95797,1.52959 2.05027,2.95877 3.12202,4.40627 0,0 -12.88557,7.63978 -12.88557,7.63978 l 0,0 c -1.09471,-1.46551 -2.215,-2.91454 -3.16708,-4.48064 -1.35372,-2.12651 -2.30274,-4.48029 -3.39498,-6.74541 -1.25905,-3.57136 -2.20195,-7.28809 -2.02563,-11.10695 0.031,-4.48639 0.093,-8.97227 0.0671,-13.45894 0.0188,-5.50255 0.0548,-11.00589 -0.0415,-16.5079 -0.14124,-6.03982 -0.38206,-12.09164 -1.32183,-18.06948 -0.77535,-4.9636 -1.62973,-9.88751 -3.12481,-14.69776 -1.2264,-5.35172 -2.66046,-10.62908 -4.55678,-15.79169 -1.66758,-4.50231 -3.77252,-8.80603 -6.25032,-12.92102 -2.88785,-5.4349 -5.85323,-10.82584 -8.64732,-16.31092 -2.7699,-5.40152 -5.38362,-10.96249 -9.0285,-15.84106 -3.22975,-4.22297 -6.30149,-8.62011 -10.32278,-12.14915 -4.46088,-3.68056 -9.23969,-6.96098 -14.04437,-10.17342 -4.05683,-2.81217 -8.21168,-5.4772 -12.65714,-7.6442 -3.89507,-1.93122 -7.92342,-3.58321 -12.02469,-5.02625 -4.70914,-1.63457 -9.62708,-2.50151 -14.36713,-4.04645 -4.67884,-1.50835 -9.3463,-3.04767 -13.94233,-4.79627 -4.26258,-1.53593 -8.54087,-3.11616 -13.02437,-3.88397 -5.60856,-0.64323 -11.2674,-0.31711 -16.9015,-0.43679 -6.25473,0.021 -12.51979,-0.0221 -18.76445,0.37613 -3.08978,0.32365 -6.14491,0.88686 -9.23316,1.22406 -5.49276,0.50262 -10.94042,1.35297 -16.43232,1.85303 -5.65421,0.50412 -11.22308,1.53786 -16.7664,2.75466 -5.31696,1.08512 -10.66157,1.96938 -15.96789,3.08084 -2.98402,0.9523 -5.7214,2.44058 -8.46346,3.9419 0,0 11.71784,-9.37316 11.71784,-9.37316 z"
       inkscape:connector-curvature="0" />
    <path
       style="fill:#000000;stroke:#000000"
       id="path3890"
       d="m -408.9515,560.23866 c -2.87494,2.03951 -5.33524,4.55375 -7.55791,7.27411 -2.7488,3.54617 -5.45842,7.1276 -8.0407,10.79714 -3.0613,4.0416 -5.67034,8.33944 -7.84152,12.91434 -2.2417,4.58682 -4.2735,9.26885 -6.60371,13.81189 -2.73291,4.76989 -5.63276,9.42242 -8.06853,14.35779 -1.97652,4.45975 -3.81281,8.98176 -5.59824,13.52101 -1.612,4.06804 -2.49034,8.34207 -3.29802,12.62496 -0.58793,5.30225 -1.5592,10.54831 -2.30413,15.82946 -0.37065,5.41991 -1.24841,10.77408 -1.9311,16.15766 -0.76993,6.81547 -0.89885,13.67839 -0.96241,20.52985 0.10748,3.65826 -0.16523,7.32869 -0.0414,10.9857 0.0504,1.48842 0.38051,4.74598 0.51322,6.1595 1.16789,8.72218 4.13082,17.04621 7.20725,25.24516 2.24106,5.8984 4.6376,11.72373 7.13928,17.51471 2.03789,3.9836 3.15133,8.24658 4.16901,12.56688 0.63408,3.29884 1.32458,6.57195 2.20826,9.81598 0.84816,3.35733 1.29901,6.77496 1.60147,10.21833 0.34244,4.23239 0.41854,8.47855 0.49053,12.72211 0.118,3.25935 0.0243,6.49476 -0.36164,9.7313 -0.33067,2.24192 -0.48621,4.49619 -0.55305,6.75952 -0.0277,1.59933 -0.0173,0.80599 -0.0318,2.38001 0,0 -13.31758,6.76893 -13.31758,6.76893 l 0,0 c 0.0171,-1.59108 0.006,-0.78874 0.0322,-2.40701 0.0519,-2.30777 0.0583,-4.62906 0.49839,-6.90438 0.4487,-3.18987 0.71439,-6.36258 0.54071,-9.59115 -0.006,-4.21696 -0.0565,-8.4378 -0.37833,-12.64445 -0.31533,-3.35545 -0.87927,-6.65717 -1.59573,-9.94913 -0.80225,-3.27686 -1.65888,-6.53507 -2.20163,-9.86788 -0.94152,-4.26077 -1.85793,-8.50443 -3.85748,-12.43773 -2.45907,-5.84597 -4.92708,-11.68024 -6.99351,-17.68274 -2.97773,-8.34216 -5.89741,-16.76169 -7.50097,-25.49486 -0.14039,-1.2434 -0.58074,-4.94539 -0.64495,-6.26153 -0.17887,-3.66617 0.0871,-7.35365 0.0609,-11.02091 0.15486,-6.89185 0.30871,-13.79214 0.90202,-20.66283 0.57186,-5.39097 1.50709,-10.73111 1.85502,-16.1471 0.6652,-5.29818 1.84015,-10.51966 2.20963,-15.85673 0.74401,-4.37242 1.59858,-8.73636 3.18255,-12.89529 1.81787,-4.56682 3.65274,-9.12964 5.59055,-13.64667 2.4191,-4.94519 5.1936,-9.67166 8.03719,-14.37921 2.37306,-4.51828 4.40339,-9.1926 6.67038,-13.76485 2.0773,-4.66868 4.54767,-9.09333 7.70096,-13.13546 2.52689,-3.68033 5.18198,-7.27985 7.90902,-10.81297 2.0221,-2.82311 4.45383,-5.47554 7.27344,-7.51606 0,0 13.89237,-5.6074 13.89237,-5.6074 z"
       inkscape:connector-curvature="0" />
    <path
       style="fill:#000000;stroke:#000000"
       id="path3892"
       d="m -401.28566,788.98412 c -0.0959,6.54211 -0.88334,13.04337 -1.39734,19.56071 -0.87884,5.91725 -1.83842,11.80832 -2.35128,17.77185 -0.16108,3.07479 -0.50189,6.1485 -1.09946,9.17016 -0.84612,2.70314 -2.28801,5.17257 -3.41077,7.77269 -1.0121,2.52943 -2.23353,4.98372 -3.10453,7.5671 -0.60113,2.14668 -1.17967,4.29256 -1.95817,6.38306 0,0 -13.54131,6.27449 -13.54131,6.27449 l 0,0 c 0.83885,-2.03591 1.52426,-4.1102 2.0112,-6.26005 0.67963,-2.7142 2.12158,-5.11864 3.03612,-7.75603 0.58619,-1.28495 1.08363,-2.60205 1.71681,-3.86563 0.43052,-0.85913 0.96646,-1.66426 1.37224,-2.53535 0.16518,-0.35457 0.26953,-0.73442 0.4043,-1.10162 0.81335,-2.95397 1.13077,-6.05901 1.43067,-9.09917 0.55576,-5.9891 1.43474,-11.92748 2.51017,-17.84465 0.58804,-6.39112 1.43587,-12.81262 1.03657,-19.23805 0,0 13.34478,-6.79951 13.34478,-6.79951 z"
       inkscape:connector-curvature="0" />
    <path
       style="fill:#000000;stroke:#000000"
       id="path3894"
       d="m -416.12543,766.50853 c 4.00325,5.08758 7.64929,10.425 11.29436,15.76971 3.74597,5.10065 7.86646,9.90706 11.81293,14.84981 3.54059,4.46587 6.38611,9.41243 9.51865,14.1598 3.06802,4.2608 5.77854,8.74695 8.5993,13.17188 3.30496,4.27618 6.15546,8.87444 9.42724,13.16993 3.18299,3.98436 7.20382,7.09387 11.13389,10.28073 2.56287,2.28472 5.33142,4.31371 8.01835,6.44635 2.61028,2.44183 5.71941,4.12815 8.87265,5.75071 3.72931,1.97545 7.65277,3.51817 11.5924,5.01109 5.35673,1.89765 11.05423,2.44419 16.68515,2.85769 3.82776,0.24478 7.66457,0.23264 11.49813,0.25529 4.12045,-0.19823 8.1986,-0.9458 12.03782,-2.45371 0.7385,-0.33312 1.48705,-0.64481 2.21551,-0.99936 1.14246,-0.55606 3.03209,-1.61157 4.14621,-2.23232 0.67006,-0.37334 2.67096,-1.50978 2.00656,-1.12646 -12.82897,7.40153 -14.04303,8.14476 -8.93519,5.08308 4.36845,-2.47344 8.19886,-5.71205 12.13617,-8.79337 4.51078,-3.40038 8.91855,-6.9018 12.85874,-10.9573 3.31194,-3.63839 6.30285,-7.5609 9.15609,-11.56548 2.63321,-3.77989 4.64326,-7.93325 6.58861,-12.09419 2.07432,-4.86953 3.45142,-9.98141 4.62053,-15.13017 1.10494,-5.30214 2.81988,-10.44477 4.22174,-15.66986 1.18855,-4.22365 1.99139,-8.53292 3.27965,-12.7288 1.35317,-4.23632 2.16898,-8.61491 3.27068,-12.9178 0.98133,-4.11339 2.27866,-8.14268 3.20823,-12.26772 0.81629,-3.34775 1.71107,-6.66955 2.2906,-10.06839 0.77321,-3.91411 1.2879,-7.86507 1.56977,-11.84302 0.14805,-3.43157 0.70913,-6.83221 1.21907,-10.22483 0.36238,-2.97561 0.80538,-5.93667 1.28455,-8.89551 0,0 13.36188,-6.5297 13.36188,-6.5297 l 0,0 c -0.51783,2.9616 -1.07287,5.91074 -1.35928,8.90681 -0.52049,3.3545 -0.96363,6.72674 -1.24493,10.10675 -0.29776,4.01588 -0.76309,8.01675 -1.55007,11.96954 -0.48915,3.44438 -1.23137,6.82295 -2.25054,10.15153 -0.90053,4.16469 -2.208,8.21175 -3.23476,12.34596 -1.16256,4.30151 -1.91212,8.70128 -3.19469,12.97223 -1.41363,4.15725 -2.16564,8.47908 -3.38668,12.69261 -1.37296,5.23209 -3.16964,10.34524 -4.30958,15.63758 -1.08401,5.24311 -2.46125,10.40411 -4.43735,15.39237 -1.88399,4.21973 -3.84892,8.42319 -6.39753,12.29158 -2.77685,4.15526 -6.00062,8.0274 -9.22874,11.83589 -3.82015,4.2124 -8.19508,7.79698 -12.76767,11.16807 -3.93429,3.02786 -7.61199,6.40062 -11.92687,8.89789 -8.06407,4.87088 -16.12047,9.97713 -24.82452,13.64985 -4.02853,1.2807 -8.17304,2.08164 -12.4166,2.10599 -3.81617,0.008 -7.62637,-0.12668 -11.43048,-0.45085 -5.75142,-0.53126 -11.54578,-1.2234 -17.03324,-3.11693 -3.97902,-1.50701 -7.86217,-3.24319 -11.66196,-5.15902 -3.26367,-1.64964 -6.38673,-3.43002 -9.05116,-5.97763 -2.71794,-2.11414 -5.5525,-4.07391 -8.02771,-6.48336 -3.93927,-3.3179 -7.9312,-6.59335 -11.16361,-10.64554 -3.35667,-4.28432 -6.23559,-8.91852 -9.49552,-13.2785 -2.84118,-4.40524 -5.67921,-8.80322 -8.6175,-13.1417 -3.09554,-4.72288 -5.90407,-9.64954 -9.45801,-14.05547 -3.86573,-5.04103 -8.04511,-9.83688 -11.74259,-15.00831 -3.5872,-5.33878 -7.14912,-10.71028 -11.58567,-15.4019 0,0 12.80699,-7.71352 12.80699,-7.71352 z"
       inkscape:connector-curvature="0" />
    <path
       style="fill:#000000;stroke:#000000"
       id="path3896"
       d="m -200.97552,731.23403 c -2.53329,-3.49073 -5.34922,-6.78039 -8.50308,-9.72412 -5.69563,-4.67778 -12.11852,-8.37958 -18.57623,-11.88698 -7.96259,-3.86295 -16.09924,-7.42478 -24.44855,-10.37324 -7.08218,-2.20437 -14.42743,-3.35865 -21.58432,-5.31226 -7.07373,-1.97887 -14.09339,-4.10506 -20.75459,-7.21967 -2.11892,-1.03605 -4.3769,-1.84071 -6.44545,-2.98274 -1.48118,-0.81774 -2.77426,-1.93829 -4.09507,-2.98204 -2.50274,-2.28068 -5.14314,-4.39341 -7.71954,-6.58691 -3.12168,-3.05572 -6.36718,-5.9818 -9.48729,-9.03882 -5.11872,-4.91091 -9.82794,-10.22283 -14.54396,-15.51483 -3.403,-3.71371 -6.63992,-7.58156 -9.4589,-11.759 -2.92439,-4.7545 -6.01636,-9.40302 -8.92266,-14.16841 -3.07412,-4.62212 -6.27084,-9.1589 -9.52138,-13.65718 0,0 12.71693,-7.49032 12.71693,-7.49032 l 0,0 c 3.12744,4.61877 6.32997,9.18621 9.43785,13.81801 2.86819,4.76638 6.06869,9.31936 9.0011,14.04619 2.74734,4.14182 6.02155,7.88675 9.19913,11.69992 4.55761,5.38694 9.39763,10.51826 14.53784,15.35566 3.20311,2.95577 6.48538,5.82489 9.63685,8.83716 2.60055,2.14486 5.11822,4.37961 7.70321,6.54166 3.11144,2.42958 6.48462,4.31743 10.15087,5.81782 6.54634,3.08332 13.45823,5.20747 20.42495,7.13277 7.24184,1.9068 14.70721,2.89165 21.79866,5.32832 8.24558,3.19375 16.31177,6.86728 24.25438,10.74534 6.62435,3.5627 13.46242,7.03248 19.22483,11.92307 3.17138,3.03222 5.98386,6.3944 8.81856,9.73899 0,0 -12.84414,7.71161 -12.84414,7.71161 z"
       inkscape:connector-curvature="0" />
    <path
       style="fill:#000000;stroke:#000000"
       id="path3898"
       d="m -349.06412,606.63774 c -1.42451,4.33438 -4.13735,8.07117 -6.47376,11.94531 -2.59329,4.52357 -5.79636,8.64974 -9.08816,12.67819 -2.65315,3.25408 -5.47362,6.36033 -8.21499,9.53858 -2.83898,3.29244 -6.18058,6.09378 -9.19289,9.21799 -2.36196,2.44971 -2.79961,3.07263 -4.94136,5.65403 -2.19152,2.93192 -4.75076,5.66497 -6.32683,9.00856 -0.69366,1.47156 -1.0173,2.69034 -1.50481,4.24071 -1.02547,3.55837 -1.53635,7.19855 -1.32859,10.89289 0.36662,4.45128 0.51732,8.90657 1.06891,13.34264 0.53318,3.73758 1.245,7.45939 2.17506,11.11921 0,0 -13.08261,7.08018 -13.08261,7.08018 l 0,0 c -0.94519,-3.74085 -1.58982,-7.55906 -2.06107,-11.38697 -0.5574,-4.43047 -0.9251,-8.87926 -1.30266,-13.32803 -0.2465,-3.86972 0.13981,-7.67397 1.21881,-11.4145 0.41943,-1.49519 0.80785,-3.05106 1.40275,-4.49158 1.46902,-3.55719 4.10217,-6.37304 6.41478,-9.38805 1.95393,-2.41429 2.76942,-3.5081 4.91021,-5.79719 2.89217,-3.09251 6.15018,-5.82287 8.94714,-9.00562 0.46353,-0.52639 0.92705,-1.05277 1.39057,-1.57915 0.39704,-0.50844 0.76792,-1.03843 1.1911,-1.52533 1.88545,-2.16933 3.98151,-4.16394 5.7471,-6.44369 3.3126,-3.93182 6.51647,-7.98396 9.09298,-12.44705 2.29045,-3.72393 4.92495,-7.32479 6.45584,-11.44288 0,0 13.50248,-6.46825 13.50248,-6.46825 z"
       inkscape:connector-curvature="0" />
    <path
       style="fill:#000000;stroke:#000000"
       id="path3900"
       d="m -410.22497,710.70574 c -3.36622,-1.17644 -6.75957,-2.27068 -10.25277,-3.00065 -2.61668,-0.63965 -5.20113,-0.17003 -7.56977,1.03812 -0.45014,0.25574 -0.88448,0.54155 -1.35042,0.76724 -2.97368,1.44038 -0.3044,-0.10896 -3.29489,1.44272 -0.5014,0.26016 -1.95339,1.13559 -1.46249,0.85611 11.61436,-6.61219 14.91805,-9.07102 10.24674,-5.68177 -1.95144,1.4153 -2.9762,2.66486 -3.52502,5.01076 -0.38188,2.55942 -0.34812,5.16419 -0.37224,7.74621 -0.10832,3.92317 0.40382,7.81664 0.9985,11.68285 0.38121,3.23793 1.20246,6.40117 1.96252,9.56551 0.71338,2.96359 1.53711,5.88972 2.79283,8.67202 1.16842,1.90362 2.55966,3.6887 4.35326,5.0353 1.47025,1.29084 3.07983,2.32738 4.75732,3.32577 1.57655,1.15188 3.48929,1.3731 5.2758,1.96679 2.38342,1.12372 2.90933,3.62771 3.66378,5.91404 0,0 -13.06251,7.19036 -13.06251,7.19036 l 0,0 c -0.60505,-1.82351 -0.89271,-3.99364 -2.97008,-4.65713 -1.94057,-0.5142 -3.8071,-1.16785 -5.50185,-2.28 -1.69511,-1.06464 -3.30581,-2.20677 -4.83378,-3.50316 -1.87938,-1.59567 -3.42661,-3.53124 -4.65123,-5.67196 -1.30675,-2.86503 -2.12402,-5.88754 -2.9189,-8.92812 -0.7622,-3.20921 -1.57199,-6.41755 -1.95623,-9.70096 -0.63131,-3.92873 -1.11331,-7.89347 -1.11347,-11.87952 -0.0377,-2.64557 -0.16707,-5.30192 0.12913,-7.93844 0.36289,-2.45584 0.98033,-4.52968 3.15373,-5.99219 6.10709,-5.51663 14.0272,-8.61552 21.38021,-12.1515 2.68819,-0.83813 5.3659,-1.15333 8.10842,-0.3023 3.51779,0.89583 6.94911,2.08629 10.42831,3.11746 0,0 -12.4149,8.35644 -12.4149,8.35644 z"
       inkscape:connector-curvature="0" />
    <path
       style="fill:#000000;stroke:#000000"
       id="path3908"
       d="m -282.07984,776.87894 c 1.02067,3.17399 1.86432,6.34326 1.86799,9.69326 -0.32256,1.87914 -0.63229,4.62107 -2.49915,5.72222 -4.65977,2.74852 -9.43035,5.3047 -14.14552,7.95705 -2.72239,0.71867 -5.52198,0.91465 -8.32317,0.96851 -1.86827,0.16909 -3.66614,-0.15955 -5.48342,-0.54409 0,0 12.15531,-8.51577 12.15531,-8.51577 l 0,0 c 1.79039,0.24217 3.56819,0.36944 5.37623,0.24727 2.69705,-0.12178 5.42137,-0.3744 7.95403,-1.37995 -3.80039,2.26375 -7.61018,4.5118 -11.40117,6.79125 -0.3423,0.20582 0.72997,-0.33635 1.05409,-0.56975 1.30306,-0.93832 1.60886,-2.51844 2.01283,-3.96729 0.27772,-3.20566 -0.53284,-6.26504 -1.7323,-9.22696 0,0 13.16425,-7.17575 13.16425,-7.17575 z"
       inkscape:connector-curvature="0" />
    <path
       style="fill:#000000;stroke:#000000"
       id="path3910"
       d="m -337.65383,839.46518 c 5.32992,-5.95686 12.50208,-10.2493 20.17659,-12.58622 3.52671,-0.90814 7.16964,-1.04 10.78966,-1.14069 3.11887,-0.0496 6.23858,-0.01 9.35768,0.006 3.75164,-0.0129 7.07196,-1.54351 10.5191,-2.80028 1.97242,-0.56737 3.90017,-1.26924 5.85193,-1.90151 0,0 -11.70325,9.07867 -11.70325,9.07867 l 0,0 c -1.92768,0.62987 -3.8553,1.26004 -5.77507,1.91375 -3.54159,1.31848 -7.07002,2.56616 -10.91517,2.43705 -3.10991,-0.008 -6.22028,-0.0316 -9.32972,0.0384 -3.53528,0.12321 -7.09985,0.34769 -10.48223,1.47608 -5.61077,2.23032 -2.90234,1.25732 9.3967,-5.92312 0.42234,-0.24657 -0.81946,0.53506 -1.21186,0.82692 -1.07771,0.80159 -2.04234,1.73592 -2.81845,2.83576 0,0 -13.85591,5.7393 -13.85591,5.7393 z"
       inkscape:connector-curvature="0" />
    <path
       style="fill:#000000;stroke:#000000"
       id="path3914"
       d="m -335.79673,739.90372 c -4.12918,-0.13195 -8.26068,-0.12785 -12.39145,-0.1211 -2.6394,-0.0938 -5.29388,0.18951 -7.93072,-0.007 -1.15015,-0.0857 -1.69077,-0.20864 -2.83033,-0.40648 -2.51933,-0.56886 -5.14753,-0.84755 -7.53516,-1.89861 -0.43854,-0.19305 -0.84796,-0.44644 -1.27194,-0.66967 -2.70965,-1.36898 -4.43652,-3.23418 -5.97839,-5.80205 -1.47834,-2.49212 -2.18792,-5.27712 -2.71826,-8.09713 -0.41514,-2.62894 -0.59664,-5.29902 -0.53984,-7.95947 -0.006,-2.29698 0.57205,-3.55183 2.18269,-5.14207 2.73426,-1.96004 5.56935,-4.29686 8.95182,-4.74751 1.1385,-0.15168 2.32476,-0.0767 3.46827,-0.0526 2.33091,0.17192 4.63231,0.57814 6.88579,1.19032 2.87172,0.8071 5.46571,2.34315 8.15423,3.60135 2.83048,1.18744 5.63405,2.4151 8.382,3.78348 1.93051,0.8517 3.50678,2.16582 4.9985,3.623 1.06578,1.01972 1.70244,2.23121 2.10467,3.63166 0.22963,1.02908 0.47747,2.05588 0.8057,3.05829 0.35719,0.9202 0.43925,1.90965 0.50052,2.88564 0.055,1.1044 0.0367,2.21154 0.0365,3.31711 -0.002,0.83793 0.0326,1.67622 -0.0321,2.51204 0,0 -6.72069,3.31258 -6.72069,3.31258 l 0,0 c 0.16168,-0.80062 0.0605,-1.62146 0.0978,-2.43457 0.002,-1.091 0.002,-2.18214 -0.0315,-3.27272 -0.0427,-0.91509 -0.0941,-1.84332 -0.41163,-2.71226 -0.32989,-1.01667 -0.60746,-2.05214 -0.79923,-3.1042 -0.32724,-1.28446 -0.91847,-2.37043 -1.87189,-3.31001 -1.42797,-1.39959 -2.96165,-2.63975 -4.79648,-3.48049 -2.72914,-1.37499 -5.52803,-2.58209 -8.33307,-3.79287 -2.66864,-1.25187 -5.26781,-2.74184 -8.15422,-3.43964 -2.2221,-0.55517 -4.48452,-0.9582 -6.77812,-1.0457 -1.12528,1.9e-4 -2.2659,-0.0297 -3.37084,0.22998 -0.32367,0.0761 -1.22808,0.48728 -0.94938,0.30596 3.24842,-2.11351 7.75597,-4.44415 4.73041,-2.86739 -1.67628,1.41691 -2.43128,2.33508 -2.47469,4.63054 -0.13563,2.61795 0.0519,5.2493 0.41548,7.84348 0.49314,2.73952 1.19394,5.43268 2.60423,7.86135 1.43845,2.41008 3.21093,4.21174 5.76263,5.45275 2.74606,1.34612 5.67196,1.89 8.67264,2.38449 3.48363,0.51693 6.99294,0.45488 10.50856,0.45247 4.24191,0.007 8.48437,0.007 12.72482,-0.12111 0,0 -6.06726,4.40812 -6.06726,4.40812 z"
       inkscape:connector-curvature="0" />
    <path
       style="fill:#000000;stroke:#000000"
       id="path3916"
       d="m -286.46443,737.20891 c 2.36337,-2.68504 4.80006,-5.31163 7.20604,-7.96153 1.92716,-2.22905 4.183,-4.11597 6.65037,-5.71227 3.63541,-2.25952 6.96,-4.42833 11.04544,-5.38976 1.63054,-0.38372 3.291,-0.51594 4.95476,-0.65678 2.54066,-0.16372 5.08701,-0.18459 7.63193,-0.17695 2.71149,-0.14557 5.19819,0.73357 7.56326,1.96913 1.10135,0.71436 2.56618,1.49518 3.0306,2.84113 0.31805,0.92176 0.15192,1.38854 0.042,2.32994 -0.502,2.28066 -1.74916,4.09179 -3.3856,5.69661 -3.02305,2.47305 -6.81433,4.2944 -10.15218,6.0722 -0.82375,0.43875 -1.75088,0.64705 -2.62699,0.96876 -4.16065,1.50546 -8.57014,1.96737 -12.93564,2.47441 -3.6047,0.4468 -7.23036,0.63742 -10.85962,0.70528 -0.41211,0.006 -0.82423,0.0114 -1.23635,0.0172 0,0 5.94591,-4.32847 5.94591,-4.32847 l 0,0 c 0.40343,-0.002 0.80686,-0.004 1.21029,-0.006 3.54725,-0.0588 7.09243,-0.22007 10.6201,-0.61708 4.41411,-0.51871 8.83439,-1.15685 13.01108,-2.75138 0.4612,-0.17634 0.92512,-0.34574 1.3836,-0.52902 0.41196,-0.16469 1.59986,-0.75579 1.2274,-0.51475 -1.67741,1.08551 -3.43712,2.03823 -5.15588,3.05701 -0.31573,0.18714 0.6301,-0.37658 0.94677,-0.5621 1.29793,-0.76041 0.58043,-0.27497 1.79201,-1.18731 1.6595,-1.45483 2.98452,-3.08222 3.59387,-5.25265 0.13043,-0.62145 0.34882,-1.21182 0.15773,-1.85455 -0.36086,-1.21371 -1.79618,-1.89932 -2.74058,-2.53576 -2.38914,-1.21245 -4.72044,-1.80251 -7.41581,-1.64936 -2.50015,-0.0153 -5.00393,-0.0323 -7.49842,0.16624 -2.19262,0.21602 -4.33635,0.50792 -6.42365,1.25151 -0.5426,0.19329 -2.07367,0.97638 -1.60382,0.64319 1.47808,-1.04817 3.10347,-1.87138 4.6552,-2.80707 -0.48092,0.2853 -0.97744,0.5458 -1.44277,0.85588 -1.95762,1.30446 -3.66068,3.00635 -5.29628,4.6785 -2.37717,2.56012 -4.68493,5.18495 -7.05729,7.74992 0,0 -6.83744,3.0156 -6.83744,3.0156 z"
       inkscape:connector-curvature="0" />
    <path
       style="fill:#000000;stroke:#000000"
       id="path3918"
       d="m -276.19773,741.41895 c -1.59792,0.0159 -3.15696,-0.44842 -4.60202,-1.09898 -1.26914,-0.49279 -1.65008,-0.99135 -2.21137,-2.16258 -0.24409,-0.56218 -0.49329,-1.11849 -0.70022,-1.69572 0,0 6.55592,-3.62399 6.55592,-3.62399 l 0,0 c 0.19038,0.55623 0.44028,1.08108 0.66884,1.62177 0.50053,1.0604 0.73463,1.25566 1.88373,1.73158 1.42822,0.5815 2.91871,0.93742 4.47238,0.8198 0,0 -6.06726,4.40812 -6.06726,4.40812 z"
       inkscape:connector-curvature="0" />
    <path
       style="fill:#000000;stroke:#000000"
       id="path3939"
       d="m -363.34918,710.21915 c 0.002,1.83104 0.26574,3.62612 0.75666,5.38564 0.54335,1.77933 1.18683,3.52715 1.85393,5.26332 0.68428,1.24855 1.58685,2.41125 2.50202,3.5081 0.812,1.05602 2.06076,1.47258 3.20055,2.06245 1.15881,0.62241 2.34326,1.10636 3.63881,1.34034 1.07039,0.15527 2.15446,0.16277 3.23379,0.15783 0.16294,2e-5 0.32668,0.0163 0.4888,5e-5 0.39984,-0.04 0.59288,-0.13308 0.96211,-0.2877 0.14948,-0.0626 0.58512,-0.27751 0.44449,-0.19698 -6.42834,3.68082 -7.84869,4.84012 -5.7447,3.16257 0.61578,-0.68401 0.64523,-1.64708 0.69028,-2.52193 0.0402,-1.21078 0.0171,-2.4226 0.006,-3.63372 0.0176,-1.20322 -0.31077,-2.3935 -0.68025,-3.53043 -0.39004,-1.12939 -0.80593,-2.2759 -1.58758,-3.19414 -0.82257,-0.96877 -1.9181,-1.55254 -3.00849,-2.15883 -1.23081,-0.58074 -2.48571,-1.05032 -3.82568,-1.29482 -0.47642,-0.0305 -0.98289,-0.21605 -1.45369,-0.0352 -0.11812,0.0454 -0.4308,0.26538 -0.32035,0.20365 6.07103,-3.39285 8.09722,-4.82536 5.91773,-3.29728 -0.98118,1.64565 -0.30267,4.38689 0.19175,6.11584 0.74801,1.83089 2.06019,3.37742 3.30494,4.89564 2.05963,2.72366 -1.84375,2.67147 -6.48294,4.23097 -0.29475,0.0991 -2.21295,-3.03644 -2.39829,-3.3444 -1.25524,-2.30284 -2.13239,-4.79604 -2.80357,-7.32575 -0.74634,-3.31759 0.59414,-2.24465 6.70764,-4.4418 0.27194,-0.0977 0.30711,0.48959 0.45976,0.73495 0.77184,1.24069 0.31457,0.55733 1.20709,1.80752 1.19383,1.57364 2.21466,3.24993 3.10409,5.00932 0.64648,1.33727 1.53818,2.51768 2.5155,3.62652 0.83119,0.93781 1.47738,1.64312 1.74315,2.89632 0.0869,0.27473 0.0175,0.68397 0.1889,0.94083 0.013,0.0195 0.48986,-0.5563 0.0235,-0.31745 -2.14908,1.10074 -4.21794,2.35152 -6.32691,3.52727 0.32322,-1.62073 -1.12203,-4.09152 -1.82084,-5.48588 -0.96608,-1.98093 -2.21855,-3.79921 -3.36876,-5.6731 -0.64967,-1.19484 -1.78328,-1.96612 -2.82592,-2.78849 -0.78324,-0.62466 -1.55038,-1.09223 -2.53263,-1.31044 -0.41667,-0.0316 -0.99416,-0.26878 -1.38109,-0.004 -0.89564,0.61323 0.38967,-0.0622 -0.42309,0.34301 0,0 5.88749,-4.69928 5.88749,-4.69928 l 0,0 c 0.65086,-0.30901 1.43938,-0.0332 2.09976,0.12399 1.00678,0.34248 1.85019,0.90255 2.66928,1.57611 1.09724,0.8866 2.26591,1.76495 2.95402,3.02654 1.09816,1.92259 2.25521,3.81391 3.26183,5.78768 0.99715,1.91368 2.10563,3.82603 2.33851,6.01373 -1.78258,1.0946 -7.11259,6.8886 -7.3589,2.45821 -0.15671,-1.14174 -0.79257,-1.71161 -1.52009,-2.56726 -0.9789,-1.18331 -1.91483,-2.40369 -2.56943,-3.80386 -0.85678,-1.72779 -1.84498,-3.3802 -2.99848,-4.92979 -0.23396,-0.31574 -0.46793,-0.63149 -0.70189,-0.94723 -0.19258,-0.27901 -0.37807,-0.56306 -0.57774,-0.83704 -0.12445,-0.17077 -0.56452,-0.37158 -0.3941,-0.49651 1.97798,-1.45001 4.19573,-2.54084 6.28642,-3.823 0.0644,-0.0395 -0.19235,0.0199 -0.20624,0.0942 -0.0394,0.21068 0.0461,0.42617 0.0691,0.63926 0.5763,2.48195 1.36625,4.94156 2.59752,7.18083 0.55636,0.87734 0.93792,1.57986 1.64559,2.33496 0.22798,0.24326 1.01155,0.43322 0.75922,0.65112 -1.84068,1.58955 -4.10493,2.61067 -6.11749,3.9761 -0.0511,0.0346 0.11799,0.0362 0.17698,0.0543 -0.0883,-0.14364 -0.17668,-0.28728 -0.26501,-0.43092 -1.25215,-1.6367 -2.63379,-3.24843 -3.39382,-5.18204 -0.60623,-2.19865 -0.98902,-4.44499 -0.65726,-6.72955 1.97651,-3.12388 5.59139,-4.78228 8.92086,-4.03903 1.37029,0.33603 2.67314,0.86339 3.93935,1.48439 1.16862,0.64851 2.28694,1.35872 3.16396,2.3895 0.81355,1.00702 1.31396,2.21767 1.72352,3.4399 0.39104,1.19924 0.78461,2.46236 0.79928,3.72832 0.003,1.21908 0.009,2.43815 0.0133,3.65723 -0.0176,1.01994 -0.0605,2.04364 -0.44529,3.00485 -1.9888,2.70322 -5.72732,4.59853 -9.13766,4.60953 -1.10389,-0.0288 -2.21375,-0.0612 -3.29733,-0.29647 -1.31587,-0.32412 -2.53501,-0.87743 -3.73059,-1.51148 -1.24255,-0.61982 -2.52701,-1.16146 -3.37823,-2.31958 -0.93609,-1.18489 -1.88657,-2.39888 -2.60757,-3.72291 -0.65449,-1.76426 -1.23504,-3.55635 -1.84192,-5.33752 -0.54011,-1.81122 -0.78399,-3.64558 -0.93633,-5.52742 0,0 6.67239,-3.39975 6.67239,-3.39975 z"
       inkscape:connector-curvature="0" />
    <path
       style="fill:#000000;stroke:#000000"
       id="path3941"
       d="m -267.77823,723.66111 c 0.97647,2.3506 2.20645,4.61742 3.77542,6.62516 1.26834,1.53964 2.98351,2.48748 4.73858,3.35617 0.7017,0.2472 1.52268,0.78515 2.30397,0.75104 0.17959,-0.008 0.64027,-0.23865 0.80101,-0.31292 2.28477,-1.70843 -0.94635,0.73066 -5.68773,3.14676 -0.18741,0.0955 0.25663,-0.33468 0.36322,-0.51602 0.36839,-0.62676 0.6011,-1.34118 0.85368,-2.01882 0.45464,-1.21451 0.60666,-2.49894 0.69526,-3.78315 0.12051,-1.26603 -0.12376,-2.49435 -0.74682,-3.59804 -0.62386,-0.92137 -1.3023,-1.79866 -2.03029,-2.63948 -0.36501,-0.2518 -0.73731,-0.59636 -1.18643,-0.69646 -0.12442,-0.0277 -0.49387,0.0541 -0.38235,-0.008 6.58228,-3.64311 7.19776,-5.07302 5.57041,-2.26182 -0.98466,3.10357 -0.60184,6.31087 0.46072,9.3283 2.13048,4.54153 3.58031,1.37865 -5.03099,6.06333 -0.0337,-0.0929 -0.0534,-0.19222 -0.10119,-0.27875 -0.36947,-0.6689 -0.99508,-1.2628 -1.46982,-1.8481 -0.81986,-1.01079 -0.74478,-0.93164 -1.53902,-1.98874 -1.07783,-1.64458 -2.22291,-3.41558 -2.21926,-5.443 0.07,-0.20393 0.10099,-0.42574 0.20993,-0.6118 0.10795,-0.18436 0.24371,-0.3688 0.42775,-0.47729 3.79001,-2.23406 5.49356,-4.2577 9.21163,-4.01276 1.37732,0.25079 2.36957,1.0576 2.97807,2.28979 0.16298,0.51954 0.4319,1.14522 0.28521,1.70853 -0.0529,0.20294 -0.0844,0.46745 -0.26771,0.56932 -2.40767,1.33809 -4.83108,2.68074 -7.39444,3.68898 -0.40621,0.15977 -0.85323,-0.18476 -1.27985,-0.27714 -2.26459,-0.68555 -4.09487,-1.57643 -5.41189,-3.58614 -0.20251,-0.53247 -0.3282,-0.70976 -0.33515,-1.27218 -0.0339,-2.74383 6.10531,-4.39829 7.39501,-5.1117 1.33095,-0.10654 2.68624,-0.24455 3.99334,0.0586 1.29709,0.38675 2.61696,0.82032 3.77466,1.53268 1.06704,0.55547 2.05781,1.17389 2.79989,2.13204 0.60293,0.96204 1.11393,2.00542 1.21679,3.14576 -0.39576,3.413 -5.07893,4.78653 -8.26231,5.01914 -0.99502,0.31028 -2.0426,0.37226 -3.07641,0.43785 -1.25078,0.11741 -2.41671,-0.38244 -3.53002,-0.88487 -1.19009,-0.56012 -1.58823,-1.83416 -1.99562,-2.99017 0,0 6.50548,-3.59143 6.50548,-3.59143 l 0,0 c 0.33669,1.00162 0.65049,2.02893 1.71835,2.4421 1.05885,0.46048 2.14822,0.75359 3.31385,0.5843 1.03749,-0.0967 2.05351,-0.28411 3.07553,-0.47854 0.36101,-0.0639 0.48262,-0.0642 0.82484,-0.21144 0.11245,-0.0484 0.42664,-0.24008 0.3218,-0.1769 -2.00897,1.21053 -4.03612,2.39105 -6.03443,3.6191 -0.0942,0.0579 0.23094,-0.0323 0.31491,-0.1042 0.0789,-0.0676 0.0899,-0.18739 0.13487,-0.28108 0.20473,-0.93847 -0.52144,-1.89959 -0.95344,-2.68707 -0.71354,-0.84873 -1.64931,-1.39215 -2.62025,-1.9106 -1.14035,-0.58553 -2.36415,-1.05213 -3.61812,-1.32126 -1.26797,-0.11302 -2.58652,-0.094 -3.81756,0.25748 1.99372,-1.17239 4.00917,-2.3086 5.98118,-3.51716 0.10981,-0.0673 -0.26279,0.024 -0.3774,0.0828 -0.098,0.0503 -0.16608,0.14622 -0.23571,0.23156 -0.32609,0.39968 -0.2626,0.78015 -0.0845,1.24326 1.12044,1.79565 2.96949,2.64557 4.99083,3.11109 3.45127,0.30425 1.28999,-0.13975 -4.26033,3.65518 -0.13074,0.0894 0.33763,-0.0125 0.46215,-0.11034 0.33886,-0.26634 0.0213,-1.03749 -0.0507,-1.31665 -0.49088,-1.02339 -1.38125,-1.55706 -2.52175,-1.60492 -0.56211,0.0246 -0.75384,0.0106 -1.32877,0.13858 -0.24263,0.054 -0.92619,0.34076 -0.71615,0.20783 1.906,-1.20625 3.90507,-2.25984 5.8262,-3.44185 0.16233,-0.0999 -0.37315,0.0963 -0.53958,0.18916 -0.13993,0.0781 -0.24224,0.20985 -0.36337,0.31477 -0.0434,0.17323 -0.12776,0.34113 -0.13015,0.5197 -0.0209,1.55237 1.23702,3.22529 1.97747,4.48854 1.12343,1.46584 2.45914,2.76297 3.44461,4.30282 -8.48151,5.10495 -5.21019,6.02649 -6.80902,3.37289 -0.45436,-0.7541 -0.99544,-1.45866 -1.26309,-2.31421 -1.01986,-3.16199 -1.36374,-6.50457 -0.70036,-9.78466 0.0977,-0.38839 -0.0345,-0.93462 0.29298,-1.16518 4.55262,-3.20541 5.74323,-5.54643 8.80667,-2.82902 0.75079,0.88427 1.44896,1.80962 2.09744,2.77168 0.67615,1.21445 1.01729,2.57704 0.93873,3.97322 -0.0525,1.35078 -0.20686,2.69844 -0.61421,3.99374 -1.50034,4.06078 -1.98558,5.3806 -8.22168,7.09883 -1.20195,0.14797 -2.31962,-0.392 -3.36873,-0.92894 -1.81765,-0.95021 -3.54962,-2.05391 -4.84475,-3.68097 -1.55778,-2.09627 -2.76553,-4.41022 -3.99405,-6.70965 0,0 6.53297,-3.66911 6.53297,-3.66911 z"
       inkscape:connector-curvature="0" />
    <path
       style="fill:#000000;stroke:#000000"
       id="path3943"
       d="m -337.59516,857.25924 c -0.10938,0.46733 -0.18817,0.94288 -0.32814,1.40197 -0.35975,1.17994 -1.49186,4.13392 -1.86265,5.12715 -1.04201,2.79121 -2.08592,5.58147 -3.10858,8.37982 -1.17097,3.12981 -2.40898,6.23708 -3.73443,9.30482 -0.83114,2.30218 -2.90065,3.47765 -4.90049,4.66876 -2.58814,1.49085 -5.17629,2.9817 -7.76444,4.47255 0,0 5.63711,-4.56115 5.63711,-4.56115 l 0,0 c -1.5503,0.89713 -3.10061,1.79425 -4.65091,2.69137 1.9016,-1.06846 4.04203,-2.08605 4.94281,-4.20254 1.52983,-3.04017 2.7634,-6.23238 4.04037,-9.38352 1.84146,-4.77326 3.8095,-9.53776 5.06671,-14.50444 0,0 6.66264,-3.39479 6.66264,-3.39479 z"
       inkscape:connector-curvature="0" />
    <path
       style="fill:#000000;stroke:#000000"
       id="path3958"
       d="m -417.15723,841.0428 c -0.3499,3.46207 -1.56369,6.79056 -2.45373,10.13815 -0.62734,2.35953 -1.42127,5.64917 -2.00682,8.03994 -1.00429,3.90052 -1.7004,7.86877 -2.5818,11.79622 0,0 -6.56665,3.15023 -6.56665,3.15023 l 0,0 c 1.04923,-3.9806 1.85201,-8.02432 2.97308,-11.98781 1.5626,-6.15255 0.44387,-1.69217 1.99879,-8.04546 0.69501,-2.83979 1.59081,-5.74744 1.93727,-8.66463 0.0402,-0.33832 0.0118,-0.68128 0.0177,-1.02192 0,0 6.68214,-3.40472 6.68214,-3.40472 z"
       inkscape:connector-curvature="0" />
    <path
       style="fill:#000000;stroke:#000000"
       id="path3960"
       d="m -423.88636,863.61749 c -2.01773,2.77289 -5.04799,4.64491 -7.873,6.50391 -6.91652,4.49588 -14.39917,7.88551 -22.09086,10.78589 -2.94971,1.0937 -5.98198,1.97121 -8.86013,3.25251 -0.58152,0.25889 -2.26466,1.15696 -1.72452,0.82017 1.37926,-0.86 2.83216,-1.59584 4.24824,-2.39376 -0.73878,0.54687 -1.49659,1.06892 -2.21633,1.64061 -3.06455,2.4342 -5.91184,5.14829 -8.82653,7.75488 -0.0397,0.0355 -6.59646,5.85299 -6.71053,5.95421 -4.4301,3.76979 -8.08995,8.28134 -11.66133,12.83973 0,0 -6.4624,2.76633 -6.4624,2.76633 l 0,0 c 3.65773,-4.60888 7.32198,-9.24191 11.84825,-13.05114 1.07765,-0.95245 5.66975,-5.00656 6.71087,-5.94503 3.50877,-3.16284 6.88921,-6.484 10.62742,-9.38166 2.70099,-1.56147 5.3759,-3.16895 8.10297,-4.68442 0.55236,-0.30696 1.14604,-0.5335 1.72834,-0.77898 2.85415,-1.20319 5.83983,-2.05008 8.73767,-3.13592 3.81743,-1.46208 7.60115,-3.02726 11.27149,-4.83246 0.83586,-0.41111 3.24425,-1.8177 2.48526,-1.27769 -1.22231,0.86968 -2.58945,1.51534 -3.88417,2.27301 2.71889,-1.77529 5.61912,-3.53786 7.7101,-6.06153 0,0 6.83919,-3.04866 6.83919,-3.04866 z"
       inkscape:connector-curvature="0" />
    <path
       style="fill:#000000;stroke:#000000"
       id="path3962"
       d="m -346.24101,878.57456 c 2.89746,3.55538 5.83201,7.08518 9.14332,10.26945 0.94139,0.90527 1.93071,1.75934 2.89607,2.63901 5.117,4.42823 10.56078,8.43874 16.16632,12.21947 3.29044,2.45178 7.21949,3.96983 10.41036,6.56325 1.97613,1.60612 2.24785,2.18333 3.83953,4.19614 2.56932,3.6195 4.57755,7.58596 6.72238,11.46031 0,0 -6.24476,3.57693 -6.24476,3.57693 l 0,0 c -1.99841,-3.90425 -3.94298,-7.85722 -6.53078,-11.41784 -1.5728,-1.92746 -1.83881,-2.46455 -3.75896,-4.01143 -3.17737,-2.55971 -6.99977,-4.21129 -10.27374,-6.63317 -5.66306,-3.78171 -11.13364,-7.72966 -16.16522,-12.34017 -2.97749,-2.70614 -2.87513,-2.53647 -5.67712,-5.38487 -2.02139,-2.05488 -3.91213,-4.23252 -5.92611,-6.29286 -0.31579,-0.32305 -0.65456,-0.62281 -0.98184,-0.93421 0,0 6.38055,-3.91001 6.38055,-3.91001 z"
       inkscape:connector-curvature="0" />
    <path
       style="fill:#000000;stroke:#000000"
       id="path3968"
       d="m -441.65327,821.20051 c 0.26315,5.4674 0.32346,10.94148 0.0804,16.40963 -0.4785,5.5095 -1.08172,11.00409 -1.41238,16.52569 -0.15553,3.51903 -0.49341,7.02641 -0.71351,10.5417 -0.10934,1.81064 -0.16212,3.62408 -0.16173,5.43789 0.0227,1.26869 0.002,2.53744 -5.4e-4,3.8062 -0.0108,1.082 -0.0179,2.16403 0.007,3.24582 0,0 -9.43686,4.80899 -9.43686,4.80899 l 0,0 c 0.0236,-1.08315 0.0164,-2.1665 0.002,-3.24979 -0.006,-1.2723 -0.0369,-2.54482 -0.001,-3.81694 0.0311,-1.84873 0.0489,-3.69933 0.21616,-5.54234 0.29978,-3.53594 0.7172,-7.06343 0.8657,-10.61074 0.41722,-5.54573 1.04643,-11.07001 1.61344,-16.60168 0.24995,-5.33611 0.25572,-10.69894 -0.43895,-16.00634 0,0 9.37973,-4.94809 9.37973,-4.94809 z"
       inkscape:connector-curvature="0" />
    <path
       style="fill:#000000;stroke:#000000"
       id="path3970"
       d="m -412.8607,726.88619 c -0.23107,-0.0704 -0.4555,-0.16825 -0.69323,-0.21105 -0.57756,-0.10401 -1.17975,-0.0892 -1.75082,0.0484 -0.27958,0.0674 -1.05991,0.43917 -0.81014,0.29663 8.98929,-5.13021 10.50374,-6.93524 7.73774,-3.91404 -1.40824,2.72992 -0.3599,5.81828 0.22624,8.64552 0.71835,2.75259 1.27214,5.55398 2.11617,8.27184 0.43543,1.57443 1.13412,3.00246 2.22472,4.21468 0,0 -9.07985,5.46902 -9.07985,5.46902 l 0,0 c -1.12373,-1.36865 -1.90104,-2.90989 -2.35482,-4.63125 -0.87981,-2.75554 -1.28375,-5.63355 -2.05415,-8.42121 -0.65257,-3.04594 -1.76587,-6.23371 -0.71082,-9.30546 0.15574,-0.35236 0.14486,-0.84616 0.46723,-1.0571 4.03358,-2.63933 8.72515,-7.63253 13.66355,-5.02273 0,0 -8.98182,5.61671 -8.98182,5.61671 z"
       inkscape:connector-curvature="0" />
  </g>
</svg>
