<?xml version="1.0" encoding="UTF-8" standalone="no"?>
<!-- Created with Inkscape (http://www.inkscape.org/) -->

<svg
   xmlns:dc="http://purl.org/dc/elements/1.1/"
   xmlns:cc="http://creativecommons.org/ns#"
   xmlns:rdf="http://www.w3.org/1999/02/22-rdf-syntax-ns#"
   xmlns:svg="http://www.w3.org/2000/svg"
   xmlns="http://www.w3.org/2000/svg"
   xmlns:sodipodi="http://sodipodi.sourceforge.net/DTD/sodipodi-0.dtd"
   xmlns:inkscape="http://www.inkscape.org/namespaces/inkscape"
   width="744.09448819"
   height="1052.3622047"
   id="svg2"
   version="1.1"
   inkscape:version="0.48.2 r9819"
   sodipodi:docname="New document 1">
  <defs
     id="defs4" />
  <sodipodi:namedview
     id="base"
     pagecolor="#ffffff"
     bordercolor="#666666"
     borderopacity="1.0"
     inkscape:pageopacity="0.0"
     inkscape:pageshadow="2"
     inkscape:zoom="0.7"
     inkscape:cx="375"
     inkscape:cy="526.18109"
     inkscape:document-units="px"
     inkscape:current-layer="layer1"
     showgrid="false"
     inkscape:window-width="1033"
     inkscape:window-height="840"
     inkscape:window-x="-4"
     inkscape:window-y="1"
     inkscape:window-maximized="0" />
  <metadata
     id="metadata7">
    <rdf:RDF>
      <cc:Work
         rdf:about="">
        <dc:format>image/svg+xml</dc:format>
        <dc:type
           rdf:resource="http://purl.org/dc/dcmitype/StillImage" />
        <dc:title></dc:title>
      </cc:Work>
    </rdf:RDF>
  </metadata>
  <g
     inkscape:label="Layer 1"
     inkscape:groupmode="layer"
     id="layer1">
    <path
       style="fill:#000000;fill-opacity:1;fill-rule:nonzero;stroke:none"
       id="path3755"
       d="m 174.00239,554.65305 c 6.45949,8.63042 13.49855,16.78308 20.65034,24.83985 10.76016,11.57526 21.19282,23.44869 31.7114,35.24252 9.2474,11.08262 19.69132,21.05869 30.73885,30.31632 7.05653,5.4277 14.46972,10.44416 22.7399,13.81629 5.13643,1.79527 10.60138,1.7386 15.96993,1.84279 10.90209,-0.95051 21.62325,-3.36113 32.16869,-6.20531 18.53329,-4.90314 36.28061,-12.1644 53.54317,-20.41401 9.49632,-5.19188 18.96106,-10.44166 28.29056,-15.92915 2.29951,-1.35254 -9.24738,5.32545 -6.9358,3.99364 26.5255,-15.28256 16.85539,-9.72951 33.052,-19.01878 -2.95956,1.69908 -11.83213,6.80689 -8.87867,5.09725 10.07877,-5.83422 20.12878,-11.71906 30.26123,-17.45953 2.10876,-1.19471 8.44617,-4.75815 6.35514,-3.53269 -23.7653,13.92785 -10.6222,6.01766 -6.69747,3.6379 8.94344,-5.40059 18.04262,-10.53991 27.15287,-15.65195 1.85925,-1.04328 3.80831,-1.73129 5.60999,-2.88102 -5.62575,3.20456 -11.2515,6.40912 -16.87725,9.61369 0,0 19.47121,-8.04681 19.47121,-8.04681 l 0,0 c -6.31528,3.88303 -12.63056,7.76607 -18.94584,11.6491 -2.01705,0.99408 -0.94822,0.47825 -3.20951,1.54126 -0.73629,0.35929 -2.8995,1.52373 -2.19618,1.10352 5.00995,-2.99325 10.08999,-5.8677 15.12093,-8.82555 1.08773,-0.63951 -2.19745,1.24092 -3.29103,1.87038 -1.38397,0.79662 -2.76101,1.6052 -4.14152,2.4078 -11.3798,6.86678 -7.25971,4.42048 -27.27985,15.91791 -2.06188,1.18412 -4.16291,2.29891 -6.23228,3.4699 -2.23671,1.26569 -8.89347,5.15544 -6.68566,3.83998 3.17044,-1.88902 12.7743,-7.3985 9.57383,-5.56081 -7.98989,4.58777 -15.96146,9.20739 -23.94219,13.81108 -2.72242,1.55408 -5.27471,3.45395 -8.16724,4.66223 -2.67444,1.11718 10.02067,-5.83063 7.50757,-4.38667 -17.81193,10.23419 -35.46268,20.77303 -53.62148,30.39085 -17.57604,8.2668 -35.61793,15.56783 -54.3998,20.64644 -10.90153,2.93823 -21.99435,5.58904 -33.29214,6.34465 -5.61619,-0.0609 -11.2796,-0.16405 -16.51267,-2.47991 -8.07068,-3.88973 -15.38095,-9.11798 -22.28626,-14.79877 -10.95106,-9.47626 -21.42248,-19.52198 -30.69578,-30.6733 -10.36806,-11.91977 -20.8552,-23.73405 -31.72158,-35.20498 -7.34343,-7.95247 -14.30775,-16.27419 -21.97371,-23.91507 0,0 18.0663,-11.07104 18.0663,-11.07104 z"
       inkscape:connector-curvature="0" />
    <path
       style="fill:#000000;fill-opacity:1;fill-rule:nonzero;stroke:none"
       id="path3759"
       d="m 284.38787,205.70302 c -5.51484,-0.24988 -11.01274,0.0694 -16.4856,0.74574 -5.04542,1.1538 -10.08386,2.55536 -14.95258,4.32251 -4.88122,1.81148 -9.71798,3.72895 -14.59313,5.58002 -7.70061,3.28743 -15.84105,5.50256 -23.20546,9.51891 -6.24237,3.75266 -20.1547,11.13626 8.81792,-5.01045 0.81368,-0.45347 -1.57166,1.00108 -2.33978,1.52805 -1.86023,1.27622 -3.17846,2.32879 -4.99752,3.7223 -5.30489,3.80508 -10.28905,7.91532 -14.85169,12.58075 -4.94071,5.72271 -9.5471,11.72438 -13.68997,18.04755 -3.96137,6.03781 -8.05433,11.97918 -11.48727,18.33948 -3.16606,6.78346 -6.95286,13.2519 -10.2401,19.97451 -2.91791,6.22094 -5.79506,12.42075 -8.09923,18.89837 -2.61343,6.87089 -4.59098,13.94958 -7.05945,20.87122 -3.51193,8.58432 -5.5888,17.62906 -8.15123,26.51556 -3.46893,9.7533 -6.59888,19.61776 -9.67243,29.50149 -3.7174,12.34087 -7.96454,24.51494 -12.08635,36.72496 -4.0094,10.84268 -6.67249,22.05194 -8.9847,33.35239 -2.35101,10.60835 -4.85346,21.19481 -6.77507,31.89117 -1.45683,12.09906 -2.69212,24.23522 -3.8353,36.37054 -0.94504,13.85894 -2.203901,27.69747 -3.897274,41.48502 -1.595815,13.41708 -2.620091,26.90003 -3.592551,40.37537 -1.285401,13.40575 -1.886192,26.85686 -2.32707,40.3121 -0.342525,14.28622 -0.222758,28.57749 -0.287142,42.86666 -0.169497,12.99279 0.05792,25.98543 0.251774,38.97648 -0.291724,9.15839 0.573471,18.21159 2.116581,27.22418 1.873725,9.18227 3.703162,18.35025 4.641276,27.68015 0.439652,7.0595 0.727802,14.06901 1.948786,21.05035 1.06574,5.19522 2.19522,10.37208 3.35167,15.54793 0.62841,3.58722 1.41406,7.1394 1.91938,10.74665 0.62868,3.38235 1.89591,6.59832 2.79289,9.9177 0,0 -18.547203,10.0157 -18.547203,10.0157 l 0,0 c -0.747702,-3.44871 -2.059306,-6.71942 -2.783442,-10.16796 -0.477363,-3.57209 -1.36758,-7.06162 -1.815718,-10.63831 -1.013918,-5.26831 -2.12944,-10.51403 -3.002701,-15.8098 -1.223678,-7.02811 -2.003698,-14.0584 -2.03254,-21.19998 -0.727217,-9.32379 -2.177167,-18.56105 -4.172707,-27.69944 -1.908977,-9.08441 -3.020725,-18.19314 -2.406494,-27.49954 0.179091,-13.0722 0.387355,-26.14587 0.220198,-39.21946 -0.04717,-14.3097 0.09281,-28.61678 0.297738,-42.92504 0.222419,-13.44967 0.871338,-26.88019 2.061264,-40.28176 0.961685,-13.54228 2.339649,-27.05587 3.740272,-40.55861 1.658734,-13.74062 3.022869,-27.52066 3.765178,-41.34424 0.977743,-12.16199 2.438558,-24.2845 3.596615,-36.42837 1.674393,-10.75511 4.380542,-21.31959 6.740171,-31.94035 2.200465,-11.45875 5.013979,-22.74448 9.099369,-33.69942 4.17142,-12.13988 8.25228,-24.31802 11.96735,-36.60567 3.00152,-9.79298 5.75783,-19.67087 9.29419,-29.29066 2.65756,-8.91776 4.78696,-18.00046 8.22131,-26.66744 2.38135,-6.87271 4.00455,-13.97348 6.7327,-20.72193 1.12311,-3.19937 2.20925,-6.38396 3.59512,-9.48258 4.35204,-9.73053 -1.57095,3.72868 3.04793,-6.23659 0.5206,-1.1232 0.96304,-2.281 1.44456,-3.42151 3.21569,-6.77011 7.11894,-13.19462 10.19013,-20.02953 3.30994,-6.47854 7.38984,-12.46503 11.42404,-18.50824 4.07748,-6.47117 8.78668,-12.44445 13.57491,-18.40288 4.375,-4.88916 9.21439,-9.12418 14.64098,-12.83362 10.28101,-8.28 22.01517,-14.36973 33.58475,-20.67398 7.55787,-3.63876 15.61015,-6.0998 23.34025,-9.3476 5.00248,-1.94923 9.91717,-4.13893 15.02558,-5.80249 4.89797,-1.50686 9.80813,-3.087 14.90907,-3.74243 5.6789,-0.59074 11.36746,-0.94305 17.07933,-0.8899 0,0 -17.06158,12.39597 -17.06158,12.39597 z"
       inkscape:connector-curvature="0" />
    <path
       style="fill:#000000;fill-opacity:1;fill-rule:nonzero;stroke:none"
       id="path3761"
       d="m 306.45311,191.50329 c 7.08381,-1.65415 14.2679,-2.8426 21.46834,-3.85401 7.59622,-1.50936 15.12348,-2.97571 22.85621,-3.55561 12.16646,-0.80709 24.31205,0.33245 36.44404,1.1206 10.30081,0.20226 20.40463,2.1533 30.45467,4.23179 11.43294,2.42276 22.82545,5.06697 34.11927,8.0718 8.02564,1.64103 15.59658,4.83423 23.3095,7.49472 6.29962,2.17299 8.47746,2.80571 14.84038,4.79983 6.69941,2.43443 13.72084,4.41918 19.53432,8.74216 6.24551,4.64424 11.03899,11.18029 15.98923,17.08259 4.69311,5.97706 9.50296,11.9631 13.42251,18.4973 4.11051,6.85253 7.28523,14.22998 10.46907,21.53662 7.50964,17.2674 13.16334,35.28972 17.86643,53.50087 4.86699,19.95904 5.69422,40.55085 7.61557,60.9248 1.30972,13.27824 1.29388,26.63014 1.82432,39.94901 0.22965,5.766 0.82901,17.14595 1.12401,22.9051 1.28507,19.23128 2.53822,38.46158 3.36583,57.71877 0.31474,18.56179 -2.63811,37.02022 -6.33686,55.15216 -5.17513,21.85246 -10.76169,43.60817 -17.1104,65.14962 -2.3641,8.70638 -5.02631,17.3619 -6.59873,26.26072 -0.6551,3.7074 -1.14057,7.44289 -1.7456,11.15879 -2.03493,11.44432 -3.72817,22.92172 -5.2136,34.44911 -1.64017,11.07589 -2.57105,22.21112 -3.18085,33.3844 -1.18241,13.57132 -1.79638,27.18281 -2.46501,40.78686 -0.80129,13.95083 -3.08975,27.71854 -5.35381,41.4844 -2.07714,13.17788 -2.41299,26.53542 -3.55934,39.80423 -0.20277,2.91173 -0.99955,5.67324 -1.92278,8.41637 0,0 -18.93918,8.78214 -18.93918,8.78214 l 0,0 c 1.17039,-2.64686 2.31704,-5.27482 2.66324,-8.19096 1.95433,-13.30021 2.54361,-26.74014 3.94146,-40.09983 1.12678,-6.72889 2.63027,-13.41164 3.53811,-20.17506 0.93837,-6.99093 1.29154,-14.04957 1.79528,-21.0791 1.10226,-13.5464 1.79837,-27.0936 2.2634,-40.67514 0.74698,-11.2064 1.77378,-22.40528 3.17044,-33.54948 1.67483,-11.52932 3.32621,-23.05707 5.28696,-34.54135 0.93018,-5.71393 1.6086,-11.5088 2.94094,-17.14888 1.66571,-7.05127 4.112,-13.90359 6.0465,-20.8788 6.89091,-21.44128 12.95126,-43.13064 17.61329,-65.17702 3.50942,-17.92889 5.98796,-36.09783 5.82784,-54.41062 -0.37562,-19.38576 -1.24595,-38.75376 -2.53867,-58.10089 -1.08167,-20.85302 -1.99712,-41.71693 -3.39671,-62.55095 -1.54466,-20.34692 -2.46004,-40.86732 -7.16557,-60.80001 -0.8971,-3.42562 -1.70802,-6.87497 -2.69131,-10.27686 -4.20535,-14.54923 -9.8701,-28.65017 -15.58057,-42.65655 -6.20166,-14.15488 -13.51405,-27.7207 -23.60438,-39.54374 -4.94418,-5.73479 -9.70101,-11.91824 -15.9405,-16.34728 -5.73671,-4.07214 -12.52651,-6.16556 -19.06214,-8.51487 -12.83231,-4.05137 -25.53185,-8.59384 -38.58837,-11.88157 -11.25805,-2.93851 -22.52633,-5.87496 -33.96975,-8.01679 -9.98751,-1.83254 -20.02918,-3.53523 -30.17991,-4.12116 -12.22129,-0.86108 -24.48883,-1.80205 -36.72282,-0.52853 -7.65537,0.78789 -15.14903,2.38088 -22.73968,3.6041 -7.44674,1.08352 -14.83542,2.47025 -22.0963,4.47079 0,0 16.91168,-12.80459 16.91168,-12.80459 z"
       inkscape:connector-curvature="0" />
    <path
       style="fill:#000000;fill-opacity:1;fill-rule:nonzero;stroke:none"
       id="path3763"
       d="m 286.57516,195.38257 c -0.28498,3.27451 0.2436,6.54185 0.58111,9.79249 0.72367,3.72174 1.38025,7.43655 1.768,11.21026 0.68782,3.38767 1.47582,6.74725 2.34253,10.09749 1.37246,4.67362 2.27392,9.43571 4.08799,13.96853 2.21946,4.69317 3.63236,9.68306 5.16871,14.62412 1.0514,4.62857 3.3042,8.83674 4.62437,13.37043 0.67747,3.81747 1.52886,7.59702 2.45903,11.36022 1.0923,6.46383 3.04993,12.72357 5.02891,18.95816 1.4063,5.28025 3.88843,10.12471 6.17245,15.05164 2.81428,5.71791 6.53957,10.88236 10.7146,15.67255 6.383,7.2854 13.13787,14.25216 19.94402,21.14346 6.96539,6.86014 14.95861,12.45883 22.82659,18.19845 6.96692,5.06997 14.05137,9.98065 21.254,14.71037 9.09176,5.66916 18.3469,11.10184 27.60807,16.49778 11.88398,6.50881 23.22087,13.9285 35.03278,20.56596 10.94443,6.51871 21.98477,12.87517 32.9533,19.35168 9.43498,5.19222 18.50722,10.97546 27.4976,16.89091 5.63283,3.77056 11.8683,6.64984 17.3062,10.72097 2.91198,2.18008 4.68992,4.02764 7.34103,6.54842 6.35604,6.66337 13.35784,12.71946 19.38295,19.69217 2.61471,3.30065 4.61059,6.95966 5.92086,10.94934 0.65092,3.59608 2.30652,6.88959 3.22674,10.40969 0.51259,2.99229 1.27813,5.95709 1.68798,8.96693 0.0881,1.96434 0.43118,3.90046 0.75909,5.83452 0,0 -18.27011,9.7002 -18.27011,9.7002 l 0,0 c -0.32956,-1.93144 -0.72968,-3.85532 -0.89536,-5.81035 -0.4807,-2.94103 -1.20549,-5.83006 -1.60266,-8.78383 -0.83462,-3.51609 -2.3086,-6.81843 -3.10671,-10.33343 -1.12686,-3.76326 -2.99292,-7.23571 -5.10433,-10.53861 -5.40813,-7.28713 -12.04575,-13.56785 -18.59112,-19.81641 -2.83231,-2.48934 -4.40047,-3.97123 -7.37517,-6.20278 -5.36961,-4.02814 -11.31694,-7.22583 -16.90894,-10.92043 -9.03975,-5.82498 -18.26139,-11.32014 -27.50378,-16.81625 -10.73031,-6.72233 -21.66482,-13.11424 -32.5721,-19.5435 -11.69776,-6.89283 -23.24228,-14.0611 -35.24744,-20.41649 -9.43707,-5.25634 -18.86715,-10.5565 -27.95699,-16.3989 -7.36523,-4.66513 -14.76929,-9.29255 -21.71268,-14.5797 -7.75111,-5.9369 -15.26046,-12.1813 -22.50159,-18.73336 -6.9521,-6.86232 -13.77354,-13.87529 -20.52779,-20.9276 -4.38285,-4.86633 -8.4235,-10.05578 -11.26795,-15.99561 -2.47715,-4.96384 -4.96778,-9.94561 -6.32143,-15.36189 -1.62435,-6.3172 -3.72679,-12.49913 -5.21817,-18.85381 -1.21435,-3.69899 -2.11854,-7.43001 -2.6051,-11.297 -1.22366,-4.56827 -3.26145,-8.87325 -4.22773,-13.52091 -1.51684,-4.88406 -3.44367,-9.61771 -5.26754,-14.39268 -1.80084,-4.58883 -3.01053,-9.36148 -4.2722,-14.11987 -1.00437,-3.41735 -2.21415,-6.78251 -2.68715,-10.33293 -0.29509,-3.78337 -0.91687,-7.51139 -1.66956,-11.23007 -0.34074,-3.26139 -1.02369,-6.47475 -1.13992,-9.74833 0,0 18.86461,-9.612 18.86461,-9.612 z"
       inkscape:connector-curvature="0" />
    <path
       style="fill:#000000;fill-opacity:1;fill-rule:nonzero;stroke:none"
       id="path3765"
       d="m 477.96309,578.71262 c 2.85336,-3.83077 5.88083,-7.52113 8.90677,-11.21535 3.76491,-4.36059 6.41331,-9.46072 8.91781,-14.60329 3.13609,-6.08042 4.42075,-12.80318 5.7354,-19.44762 1.33287,-6.05061 1.89778,-12.21194 2.22933,-18.38585 0.34964,-7.21493 0.18928,-14.43718 0.11443,-21.65582 -0.0273,-5.58267 -0.1082,-11.16485 -0.11745,-16.74755 -0.0495,-3.72983 -0.0876,-7.45971 -0.0785,-11.1899 0,0 18.37236,-9.36141 18.37236,-9.36141 l 0,0 c 0.01,3.75494 -0.0276,7.50959 -0.0708,11.26426 2.2e-4,5.61451 -0.0624,11.2287 -0.0707,16.84325 -0.0611,7.26182 -0.19197,14.52272 -0.20149,21.78501 -0.1234,6.28904 -0.43944,12.55932 -2.04144,18.68041 -1.50588,6.64036 -2.43828,13.50397 -5.26482,19.75962 -2.47467,5.24726 -5.19474,10.39708 -8.72051,15.02859 -2.82098,3.58858 -6.03442,6.91983 -8.32556,10.89201 0,0 -19.38482,8.35364 -19.38482,8.35364 z"
       inkscape:connector-curvature="0" />
    <path
       style="fill:#000000;fill-opacity:1;fill-rule:nonzero;stroke:none"
       id="path3767"
       d="m 320.60834,321.72603 c -8.32674,8.89704 -16.63034,17.80584 -24.60204,27.02619 -7.31589,9.41266 -14.48398,18.93182 -21.88839,28.27885 -5.61231,6.92826 -10.98383,14.04835 -15.797,21.55494 -3.8627,6.46958 -8.18219,12.66346 -12.72371,18.67226 -4.04255,4.938 -7.36114,10.30368 -10.33457,15.92775 -3.50048,6.46436 -7.00662,12.92368 -10.37617,19.45748 -3.05541,6.5212 -6.68291,12.7469 -9.99115,19.13921 -2.51021,6.437 -5.74012,12.47551 -9.20189,18.44099 -3.30536,5.70533 -6.46488,11.5027 -9.29316,17.46065 -2.94146,5.33768 -5.80285,10.70827 -8.55428,16.14849 -3.55432,7.54691 -6.59254,15.30557 -9.52942,23.10785 -2.84518,7.72858 -4.84651,15.70232 -6.62588,23.72945 -2.23174,11.47183 -4.65905,22.8961 -6.83155,34.38026 -2.71474,15.96967 -4.17018,32.13524 -5.35776,48.28188 -1.66523,15.11865 -2.96935,30.26198 -3.74514,45.45172 -0.53772,18.34193 -0.7277,36.6986 -0.61799,55.04829 0.49577,14.56214 0.2003,29.13013 0.41337,43.69549 0.037,10.51232 2.30231,20.6388 5.84287,30.47518 2.32856,5.74271 3.58074,11.79627 4.99831,17.79953 0.18715,0.64395 0.3743,1.28789 0.56145,1.93184 0,0 -18.13646,9.86912 -18.13646,9.86912 l 0,0 c -0.18455,-0.69343 -0.3691,-1.38687 -0.55365,-2.0803 -1.14874,-6.05929 -2.12977,-12.16506 -4.12004,-18.02618 -3.09463,-10.26552 -6.24519,-20.50272 -5.42982,-31.38881 0.19383,-14.70006 -0.13126,-29.40226 0.37131,-44.09907 0.15286,-18.34712 -0.03,-36.6961 0.46282,-55.04002 0.31357,-15.1746 1.23324,-30.27283 3.32166,-45.31962 1.25224,-16.24304 3.15781,-32.42394 5.50869,-48.54481 1.65509,-11.28806 3.19913,-22.59315 5.40667,-33.79091 1.75043,-8.14303 3.66804,-16.23853 6.64012,-24.04199 2.83934,-7.80745 5.79588,-15.54737 9.136,-23.15663 2.61138,-5.40787 5.09421,-10.88327 8.2936,-15.982 2.82052,-6.11521 6.28252,-11.92802 9.58948,-17.78881 3.41623,-5.89376 6.69986,-11.83743 9.00328,-18.27273 3.45023,-6.29971 7.17678,-12.48258 9.97551,-19.10865 3.4254,-6.55449 7.22094,-12.90138 10.54273,-19.51047 0.96864,-2.00198 1.80696,-4.07077 2.88507,-6.016 2.02267,-3.64949 4.84489,-6.8005 7.18566,-10.23402 4.75704,-5.77834 9.17713,-11.89918 12.77377,-18.47275 4.96091,-7.82018 11.01241,-14.8619 16.6945,-22.15693 7.42435,-9.50051 14.75651,-19.07162 22.23084,-28.52963 7.56968,-8.58838 15.36763,-16.99159 22.48753,-25.96345 0,0 19.38483,-8.35364 19.38483,-8.35364 z"
       inkscape:connector-curvature="0" />
    <path
       style="fill:#000000;fill-opacity:1;fill-rule:nonzero;stroke:none"
       id="path3769"
       d="m 282.32073,665.60049 c 0.87266,12.744 1.63509,25.4945 2.20127,38.25811 0.71192,13.29124 0.23649,6.69791 1.41678,19.78067 0,0 -15.74335,8.19618 -15.74335,8.19618 l 0,0 c -1.11928,-13.09278 -0.54742,-6.53541 -1.71584,-19.67207 -1.04657,-12.27668 -1.47618,-24.7558 -4.74427,-36.70321 0,0 18.58541,-9.85968 18.58541,-9.85968 z"
       inkscape:connector-curvature="0" />
    <path
       style="fill:#000000;fill-opacity:1;fill-rule:nonzero;stroke:none"
       id="path3771"
       d="m 346.73168,651.94517 c 0.2614,0.76436 0.56681,1.51506 0.78419,2.29309 0.49414,1.76858 1.49585,6.61281 1.84308,8.09414 1.16172,4.95605 2.52152,9.85469 3.91537,14.74902 2.05856,8.7968 3.82232,17.6693 5.01633,26.6263 0.3124,3.27812 0.98194,6.50121 1.64941,9.71989 0,0 -17.88108,9.54147 -17.88108,9.54147 l 0,0 c -0.58266,-3.30569 -1.2489,-6.6025 -1.55909,-9.94917 -0.78233,-8.96794 -2.17532,-17.85125 -4.46439,-26.5694 -1.8378,-7.0649 -3.53476,-15.44618 -6.48331,-22.08828 -0.25842,-0.58214 -0.64857,-1.09637 -0.97286,-1.64455 0,0 18.15235,-10.77251 18.15235,-10.77251 z"
       inkscape:connector-curvature="0" />
    <path
       style="fill:#000000;fill-opacity:1;fill-rule:nonzero;stroke:none"
       id="path3773"
       d="m 277.79769,713.07723 c -1.18754,3.04794 -2.54999,6.55165 -2.14671,9.89961 0.12062,1.00135 0.49415,1.95571 0.74122,2.93357 3.96646,7.48511 10.63748,13.12946 17.93278,17.22905 4.58381,2.47083 9.45252,4.33114 13.85154,7.13187 0.54774,0.39778 1.09549,0.79556 1.64324,1.19334 0,0 -17.46169,11.09681 -17.46169,11.09681 l 0,0 c -0.52021,-0.36801 -1.04043,-0.73601 -1.56064,-1.10402 -4.30267,-2.70482 -8.95827,-4.77976 -13.28964,-7.44198 -7.40581,-4.76866 -14.0823,-10.947 -18.83442,-18.40278 -0.39221,-1.10825 -0.91784,-2.17799 -1.17665,-3.32475 -0.77719,-3.44368 0.40162,-7.03355 1.16492,-10.36057 0,0 19.13605,-8.85015 19.13605,-8.85015 z"
       inkscape:connector-curvature="0" />
    <path
       style="fill:#000000;fill-opacity:1;fill-rule:nonzero;stroke:none"
       id="path3775"
       d="m 256.57332,727.79161 c -6.44241,2.00252 -12.74486,4.39231 -19.09127,6.67292 -9.80776,4.28153 -19.64799,8.43458 -29.68552,12.15191 -7.38934,2.7939 -13.97821,7.18661 -20.95955,10.79315 -0.78652,0.38323 -1.57061,0.77151 -2.35958,1.14968 -0.48627,0.23308 -5.04144,2.37355 -5.41523,2.56636 -0.97638,0.50364 -3.83345,2.1483 -2.88165,1.59964 16.29461,-9.39289 18.96138,-11.21098 11.69967,-6.47076 -5.46985,3.93654 -11.2969,7.31022 -16.66907,11.38315 -2.54797,1.91786 -4.86584,4.0681 -6.9534,6.47174 0,0 -18.93679,8.07333 -18.93679,8.07333 l 0,0 c 2.02215,-2.65029 4.29162,-5.00417 6.98291,-6.9981 5.3785,-4.20377 11.25425,-7.5794 16.7861,-11.56053 10.54947,-7.43295 22.07362,-13.32882 33.64423,-18.97716 6.68816,-3.53605 13.19196,-7.49354 20.37172,-10.00097 10.12799,-3.70946 19.91802,-8.17836 29.87896,-12.298 6.72867,-2.50645 13.5006,-4.91026 20.16159,-7.58883 0,0 -16.57312,13.03247 -16.57312,13.03247 z"
       inkscape:connector-curvature="0" />
    <path
       style="fill:#000000;fill-opacity:1;fill-rule:nonzero;stroke:none"
       id="path3777"
       d="m 366.77946,706.49131 c 7.84794,2.15028 15.45556,4.98907 23.10189,7.75773 8.76966,2.60945 17.32203,5.76311 25.6799,9.46987 6.28088,2.69664 12.27701,5.98573 18.60929,8.55627 9.60073,4.03755 19.58146,7.0793 29.40984,10.50357 7.83577,3.43821 14.65555,8.70078 21.88437,13.19842 4.7427,2.40376 9.13045,5.43669 13.8596,7.85599 2.83483,1.73747 5.90344,3.00122 8.73407,4.74281 2.37022,1.52394 4.64645,3.21656 7.04747,4.69086 2.20524,1.6471 4.15348,3.44049 5.74491,5.68698 1.49308,2.20496 2.45554,4.18705 4.94699,5.32545 2.00203,0.83436 3.57373,2.18929 5.1885,3.57183 0.87321,1.02691 0.46242,0.52573 1.23639,1.50026 0,0 -18.14597,10.80762 -18.14597,10.80762 l 0,0 c -0.60974,-0.81015 -0.27861,-0.41632 -0.99768,-1.17789 -1.4724,-1.33151 -3.10495,-2.36825 -4.8954,-3.23851 -2.37416,-1.56589 -3.75264,-3.82333 -5.35138,-6.12693 -1.49518,-1.98265 -3.28855,-3.61165 -5.32964,-5.03699 -2.32585,-1.56109 -4.61179,-3.17905 -7.01006,-4.63093 -2.79376,-1.6125 -5.62323,-3.15912 -8.35809,-4.87104 -4.61986,-2.57422 -9.06302,-5.43871 -13.51381,-8.29243 -6.89644,-4.72962 -13.71336,-9.71263 -21.49824,-12.91488 -9.73663,-3.80101 -19.55859,-7.32798 -29.53003,-10.46947 -6.45032,-2.43463 -12.46509,-5.77853 -18.76628,-8.56875 -8.11737,-3.6815 -16.27809,-7.25247 -24.83024,-9.83886 -7.9943,-2.7057 -16.02763,-5.35648 -24.43903,-6.41747 0,0 17.22263,-12.08351 17.22263,-12.08351 z"
       inkscape:connector-curvature="0" />
    <path
       style="fill:#000000;fill-opacity:1;fill-rule:nonzero;stroke:none"
       id="path3779"
       d="m 526.6709,790.67233 c 1.65007,4.10355 2.66493,8.32652 3.24362,12.70023 0.1442,5.78179 0.92208,11.66033 0.10919,17.42504 -0.24567,1.74226 -0.64004,3.4603 -0.96007,5.19045 -2.29152,10.88404 -3.18215,21.97424 -4.12973,33.03353 -1.22417,14.40849 -0.83512,28.93903 0.53861,43.32225 0,0 -17.18206,8.8863 -17.18206,8.8863 l 0,0 c -0.39768,-14.48821 -0.31452,-28.99339 -0.76198,-43.48127 0.48647,-11.14896 2.72424,-22.0991 4.00428,-33.17348 0.94427,-7.21277 1.24039,-14.41876 0.24917,-21.65865 -0.54968,-4.08076 -1.30189,-8.21485 -3.48358,-11.78336 0,0 18.37255,-10.46104 18.37255,-10.46104 z"
       inkscape:connector-curvature="0" />
    <path
       style="fill:#000000;fill-opacity:1;fill-rule:nonzero;stroke:none"
       id="path3781"
       d="m 530.8345,813.35088 c 0.28926,17.33316 2.139,34.60094 3.71171,51.85243 2.15402,23.61237 5.64803,47.06813 8.64192,70.58041 0.81124,7.16036 0.52335,3.74147 0.91722,10.25202 0,0 -17.51592,8.96141 -17.51592,8.96141 l 0,0 c 0.17655,-6.67411 0.16355,-3.14857 -0.0186,-10.57669 -0.87581,-23.9889 -2.66165,-47.96361 -6.33833,-71.70182 -1.29497,-8.30496 -2.62928,-16.60385 -3.89371,-24.91352 -1.08686,-7.14266 -1.97443,-14.34542 -3.23846,-21.46055 -0.19849,-1.11727 -0.49059,-2.21586 -0.73588,-3.32379 0,0 18.47009,-9.6699 18.47009,-9.6699 z"
       inkscape:connector-curvature="0" />
    <path
       style="fill:#000000;fill-opacity:1;fill-rule:nonzero;stroke:none"
       id="path3783"
       d="m 475.17787,845.60049 c 1.18831,24.65532 6.04071,48.99047 10.22288,73.27067 3.82298,27.15481 10.01856,53.85078 16.99952,80.33849 0,0 -14.88933,7.98555 -14.88933,7.98555 l 0,0 c -4.51015,-27.17219 -9.9703,-54.17629 -15.70138,-81.11527 -3.79344,-23.79515 -8.08539,-47.55807 -15.21709,-70.61976 0,0 18.5854,-9.85968 18.5854,-9.85968 z"
       inkscape:connector-curvature="0" />
    <path
       style="fill:#000000;fill-opacity:1;fill-rule:nonzero;stroke:none"
       id="path3785"
       d="m 159.1235,774.689 c -8.82465,7.66134 -16.29704,16.81679 -23.93582,25.63624 -6.38295,7.66302 -13.64777,14.63514 -18.93615,23.16082 -1.18059,1.90329 -2.1844,3.9107 -3.2766,5.86605 -5.88805,13.24909 -10.89269,26.96054 -14.656795,40.9719 -0.946948,3.52489 -1.715923,7.09519 -2.573885,10.64279 -4.538682,21.26505 -9.134132,42.50486 -14.191703,63.65253 -3.73467,15.59901 -6.210288,31.49942 -6.667259,47.54151 0,0 -17.43044,8.69076 -17.43044,8.69076 l 0,0 c 2.325209,-16.30038 3.89529,-32.75685 8.347786,-48.67776 5.28411,-21.11447 9.814835,-42.40202 14.322388,-63.69381 3.919232,-17.49349 8.516156,-34.85543 15.598489,-51.37659 1.01087,-1.9918 1.913816,-4.04216 3.03261,-5.9754 5.109769,-8.82951 12.412149,-15.97851 19.160279,-23.5154 7.32744,-8.26426 14.4691,-16.68376 21.59304,-25.12341 0,0 19.61406,-7.80023 19.61406,-7.80023 z"
       inkscape:connector-curvature="0" />
    <path
       style="fill:#000000;fill-opacity:1;fill-rule:nonzero;stroke:none"
       id="path3789"
       d="m 162.22539,850.05494 c -3.82389,7.57843 -4.96492,16.29212 -6.38665,24.57354 -1.53635,10.9532 -2.99058,21.91982 -4.28262,32.90478 -1.20957,9.48369 -2.38142,18.97096 -3.27597,28.49006 -0.44002,8.71593 -1.12724,17.37716 -2.63218,25.97654 -0.93013,5.68492 -2.17936,11.43813 -1.56855,17.21221 0.23569,1.9448 1.1143,3.52299 2.145,5.12864 0,0 -18.013,10.40478 -18.013,10.40478 l 0,0 c -1.01886,-1.92544 -1.97626,-3.85002 -2.27419,-6.04617 -0.24285,-2.27441 -0.42788,-3.20678 -0.31589,-5.53366 0.20177,-4.19233 1.50537,-8.27777 2.03106,-12.4258 0.33432,-1.57738 1.35815,-6.31523 1.59274,-7.8178 0.93526,-5.99025 0.79811,-12.04615 1.30029,-18.07168 0.90706,-9.56873 2.49967,-19.05904 3.43713,-28.62655 1.36309,-11.07242 3.37194,-22.0597 4.6178,-33.14997 0.78008,-5.39432 1.53545,-10.78089 2.59051,-16.13005 0.43751,-2.21814 1.05143,-4.40059 1.44427,-6.62707 0.10269,-0.58204 0.11348,-1.17659 0.17023,-1.76488 0,0 19.42002,-8.49692 19.42002,-8.49692 z"
       inkscape:connector-curvature="0" />
    <path
       style="fill:#000000;fill-opacity:1;fill-rule:nonzero;stroke:none"
       id="path3791"
       d="m 538.31242,802.62012 c 2.64851,9.99438 6.26245,19.70269 9.22886,29.60234 2.69131,8.98159 4.60208,16.54569 6.99477,25.62428 3.6752,15.26805 6.77166,30.71615 8.69435,46.31175 0.51242,4.15649 1.34783,13.52063 1.7449,17.81565 1.68148,15.52698 3.43379,31.05511 5.80322,46.49426 1.0464,7.38836 2.01484,14.79338 2.58795,22.23525 0.0639,2.32105 -0.28666,4.61909 -0.42392,6.92946 0,0 -18.96195,9.15349 -18.96195,9.15349 l 0,0 c 0.81295,-2.1217 0.88476,-4.4308 1.106,-6.6734 -0.0496,-7.603 -0.43581,-15.19815 -1.22568,-22.76246 -1.46552,-15.68965 -3.24136,-31.33987 -5.01915,-46.99527 -1.42865,-21.73705 -3.1012,-43.5343 -8.71284,-64.68399 -1.18262,-4.29951 -2.26057,-8.62918 -3.54785,-12.89852 -4.14568,-13.74934 -9.59148,-27.05025 -16.38359,-39.70494 0,0 18.11493,-10.4479 18.11493,-10.4479 z"
       inkscape:connector-curvature="0" />
    <path
       style="fill:#000000;fill-opacity:1;fill-rule:nonzero;stroke:none"
       id="path3793"
       d="m 283.49966,555.88232 c 9.49035,-6.91039 19.61818,-11.80845 30.53992,-15.43114 0,0 -16.24765,12.61975 -16.24765,12.61975 l 0,0 c -2.41103,0.80155 -4.77583,1.66033 -7.09947,2.69465 -0.83189,0.3703 -3.25369,1.62843 -2.47459,1.15708 4.96011,-3.00089 21.97438,-12.84582 15.02205,-8.76415 0,0 -19.74026,7.72381 -19.74026,7.72381 z"
       inkscape:connector-curvature="0" />
    <path
       style="fill:#000000;fill-opacity:1;fill-rule:nonzero;stroke:none"
       id="path3795"
       d="m 283.5336,594.71124 c 4.91462,0.0708 9.69724,1.41993 14.48805,2.39155 5.58186,1.12275 11.24495,1.68125 16.92454,1.95377 5.0485,0.18025 10.0994,0.20931 15.1505,0.21451 5.40234,0.1846 10.7829,-0.60723 15.94851,-2.15706 0.68776,-0.20719 1.37553,-0.41437 2.06329,-0.62156 0,0 -16.34546,12.5849 -16.34546,12.5849 l 0,0 c -0.67913,0.18318 -1.35826,0.36636 -2.0374,0.54954 -5.28287,1.2085 -10.64848,1.7453 -16.07536,1.59475 -5.15273,0.0116 -10.31637,0.14468 -15.46199,-0.15665 -5.59714,-0.46627 -11.13606,-1.38983 -16.64524,-2.47215 -4.9986,-0.95344 -10.02368,-1.90804 -15.13815,-1.43686 0,0 17.12871,-12.44474 17.12871,-12.44474 z"
       inkscape:connector-curvature="0" />
    <path
       style="fill:#000000;fill-opacity:1;fill-rule:nonzero;stroke:none"
       id="path3799"
       d="m 337.78537,474.45375 c 9.92879,-6.72486 20.41312,-12.41696 30.84578,-18.34987 7.1292,-3.45762 14.79835,-5.50561 22.54735,-6.99958 6.09355,-0.91158 12.28162,-1.58138 18.44336,-1.16635 5.29357,1.05589 10.31741,3.16747 15.4919,4.7088 0,0 -16.69027,11.36675 -16.69027,11.36675 l 0,0 c -5.04896,-1.66932 -10.09336,-3.61208 -15.42469,-4.12962 -5.93918,-0.21163 -11.90009,0.28917 -17.75665,1.28299 -7.81514,1.59793 -15.4645,3.87824 -22.518,7.69051 30.08172,-17.6476 11.37964,-6.9989 4.80148,-2.12744 0,0 -19.74026,7.72381 -19.74026,7.72381 z"
       inkscape:connector-curvature="0" />
    <path
       style="fill:#000000;fill-opacity:1;fill-rule:nonzero;stroke:none"
       id="path3801"
       d="m 355.19345,463.72627 c 1.83005,5.26261 5.46423,9.63913 9.3037,13.56104 5.70796,5.38889 12.51436,9.02352 19.83738,11.67811 6.27939,2.31808 12.81874,3.67873 19.46791,4.29698 3.85287,0.50043 7.36318,0.17244 10.95707,-1.26421 6.31594,-3.31016 16.28259,-8.66694 -12.58961,7.25861 -0.61556,0.33954 1.15307,-0.80626 1.70173,-1.24578 1.68907,-1.35306 1.81296,-1.60535 3.31885,-3.21602 3.21105,-3.8966 5.80215,-8.28344 8.33886,-12.64019 1.64014,-3.18963 3.47698,-6.26643 4.51193,-9.71555 0.73479,-2.80834 0.74808,-5.412 -0.19793,-8.13301 -0.95552,-2.11374 -2.10069,-4.15421 -3.82105,-5.72847 0,0 17.83453,-10.92382 17.83453,-10.92382 l 0,0 c 1.77768,1.92303 3.14002,4.17357 4.2796,6.52822 1.15377,3.16614 1.43662,5.90458 0.67391,9.24121 -0.70913,3.83933 -2.76359,6.97756 -4.56594,10.38661 -2.48749,4.45689 -5.20483,8.83233 -8.15395,12.98491 -6.86381,8.74903 -17.43504,13.78907 -27.64381,17.88548 -3.79449,1.06176 -7.52447,1.14718 -11.4135,0.45071 -6.53893,-1.02803 -12.9185,-2.76637 -19.11246,-5.1121 -7.53134,-2.87715 -14.79593,-6.50608 -20.53256,-12.31237 -3.94848,-4.31429 -7.8729,-8.84496 -10.81122,-13.91291 0,0 18.61656,-10.06745 18.61656,-10.06745 z"
       inkscape:connector-curvature="0" />
    <path
       style="fill:#000000;fill-opacity:1;fill-rule:nonzero;stroke:none"
       id="path3803"
       d="m 274.85341,480.77037 c 0.58277,-4.57803 0.37892,-9.03689 -0.80111,-13.48703 -1.58392,-5.34318 -6.27439,-7.70255 -11.13105,-9.60793 -5.38715,-1.96142 -11.14072,-1.84376 -16.75674,-2.44012 -4.59594,-0.53661 -9.21323,-0.83881 -13.83689,-0.97942 -2.9742,-0.0955 -5.94973,-0.0259 -8.92425,-0.0449 -2.04736,-0.0298 -1.04561,-0.11922 -3.00659,0.25265 0,0 16.73409,-12.45123 16.73409,-12.45123 l 0,0 c 2.11179,-0.094 1.04674,-0.0621 3.19521,-0.0942 2.95017,-0.0132 5.90218,0.0701 8.84849,0.21961 4.54434,0.29574 9.06758,0.80719 13.59653,1.27594 5.74484,0.50465 11.59929,0.7379 16.99504,3.00809 3.68328,1.60889 7.79043,3.46344 10.34026,6.74094 0.77137,0.9915 1.53217,3.21582 1.96358,4.32675 1.25754,4.48724 1.41853,9.03588 1.64804,13.66884 0,0 -18.86461,9.612 -18.86461,9.612 z"
       inkscape:connector-curvature="0" />
    <path
       style="fill:#000000;fill-opacity:1;fill-rule:nonzero;stroke:none"
       id="path3805"
       d="m 297.4701,467.70315 c -12.9236,8.60549 -26.49023,16.34051 -40.81263,22.35602 -6.9144,2.71728 -13.89591,5.70892 -21.37757,6.24156 -4.70566,0.49209 -8.41879,-1.60272 -12.1813,-4.09711 -3.83137,-2.61315 -5.89069,-6.5918 -7.10177,-10.94546 -0.88571,-3.56059 -1.02573,-7.21937 -1.0235,-10.86923 0.0212,-3.71458 0.38551,-7.44871 1.31113,-11.05019 0.38034,-1.68926 1.3356,-2.99858 2.38606,-4.32142 0,0 19.22852,-7.99097 19.22852,-7.99097 l 0,0 c -1.18474,0.96691 -2.27428,1.84937 -2.76113,3.36904 -1.11136,3.40768 -1.82044,6.94874 -1.67427,10.55779 0.0461,3.491 0.004,7.00927 0.68475,10.45081 1.01133,3.96232 2.7224,7.38199 6.30063,9.63263 3.52893,2.1292 6.97427,3.67598 11.22432,3.10276 7.11348,-0.93006 13.84249,-3.5193 20.42639,-6.28562 3.04295,-1.33347 5.3117,-2.28411 8.27672,-3.75049 1.48557,-0.7347 5.82341,-3.15988 4.41553,-2.28548 -23.31229,14.47878 -12.22382,7.0922 -6.82804,3.71333 0,0 19.50616,-7.82797 19.50616,-7.82797 z"
       inkscape:connector-curvature="0" />
    <path
       style="fill:#000000;fill-opacity:1;fill-rule:nonzero;stroke:none"
       id="path3807"
       d="m 400.80378,465.75342 c -0.39285,3.70584 -0.17312,7.25318 1.70954,10.51927 1.51418,2.38275 4.04676,2.63561 6.62906,2.83483 6.79245,-1.88026 17.07293,-9.18271 -15.73246,9.18815 -0.13873,0.0777 0.59461,-0.25008 0.59095,-0.3854 -0.005,-0.19508 -0.10503,-0.3759 -0.15754,-0.56386 -0.9257,-2.08354 -2.66385,-3.56925 -4.37444,-4.99397 -2.3082,-1.99888 -3.98423,-4.35782 -5.0951,-7.1783 -4.05907,-3.3976 25.68647,-16.56281 16.33692,-7.45519 -6.63475,5.24076 -17.43928,17.12382 -23.88755,8.95777 -3.70369,-5.3794 -13.03365,4.41896 17.94834,-10.92934 0.31341,-0.15526 0.45323,0.53302 0.68921,0.79118 0.65661,0.71834 1.33698,1.39147 2.02151,2.08392 0,0 -17.74901,10.90951 -17.74901,10.90951 l 0,0 c -0.14968,-0.14037 -3.14342,-3.02379 -3.10628,-3.05235 20.58027,-15.8255 13.64215,-17.49346 18.24516,-10.69689 0.4551,0.43518 0.89927,0.81417 1.58346,0.75624 0.22904,-0.0194 0.86691,-0.28186 0.66993,-0.16341 -19.98919,12.01919 -22.18514,13.59183 -15.81046,9.15621 6.32093,-4.1925 18.66588,-19.57088 21.3952,-10.51594 0.82814,2.55384 2.39324,4.54763 4.46278,6.25959 1.98277,1.63766 3.95324,3.48955 5.1369,5.80275 4.08045,9.28194 -11.45838,15.01733 -20.26286,14.11295 -3.13183,-0.57308 -5.93575,-1.59202 -7.53304,-4.57415 -1.88792,-3.557 -2.50445,-7.29779 -2.46064,-11.30975 0,0 18.75042,-9.55382 18.75042,-9.55382 z"
       inkscape:connector-curvature="0" />
    <path
       style="fill:#000000;fill-opacity:1;fill-rule:nonzero;stroke:none"
       id="path3809"
       d="m 258.09947,463.52947 c 1.10754,3.00637 3.02138,5.61001 5.8156,7.18975 0.99505,0.18553 1.48644,0.44127 2.46045,0.0217 0.33572,-0.14461 1.19944,-0.8317 0.87918,-0.65547 -5.74452,3.16125 -11.37218,6.535 -17.16056,9.61522 -0.34284,0.18244 0.55249,-0.5556 0.75659,-0.88602 0.22779,-0.36879 0.35029,-0.79301 0.52544,-1.18952 0.90395,-3.83988 -1.73392,-5.08262 -4.59368,-7.14307 -1.64285,-0.87206 -3.35172,-2.15553 -5.28727,-2.30084 -0.34412,-0.0258 -0.74354,-0.0258 -1.01916,0.18187 -0.23477,0.17687 -0.57239,0.96597 -0.31529,0.8235 5.9869,-3.31784 11.78586,-6.96402 17.6788,-10.44603 -0.0792,-0.0595 -0.22394,-0.2764 -0.23752,-0.17833 -0.0977,0.70503 2.79006,2.90196 3.32398,3.46758 0.62298,1.48222 0.4551,0.7 0.47892,2.35182 0,0 -19.4817,8.37427 -19.4817,8.37427 l 0,0 c 0.82792,0.34558 0.49959,0.42468 0.99557,0.18805 -1.58133,-1.84024 -3.96179,-3.00954 -4.48279,-5.60843 16.69621,-10.42135 14.3082,-15.13151 25.69963,-7.86182 2.15642,1.59015 5.20705,3.37297 6.05649,6.11857 0.12975,0.4194 0.0876,2.78787 0.0868,3.12343 -0.0417,0.18908 -0.56256,2.78585 -0.80161,2.94358 -8.14004,5.37102 -14.38923,14.37905 -23.07844,10.31693 -2.90612,-2.06623 -4.88446,-4.92423 -6.67195,-7.98569 0,0 18.37255,-10.46105 18.37255,-10.46105 z"
       inkscape:connector-curvature="0" />
    <path
       style="fill:#000000;fill-opacity:1;fill-rule:nonzero;stroke:none"
       id="path3811"
       d="m 292.34338,537.51644 c 2.38836,3.33636 6.19622,4.77445 9.79647,6.37573 3.70103,1.57131 7.66395,2.35946 11.67534,2.07965 3.27268,0.0269 6.03746,-1.3192 8.93884,-2.59174 0.44149,-0.1518 0.88297,-0.3036 1.32446,-0.4554 0,0 -16.46029,12.89497 -16.46029,12.89497 l 0,0 c -0.42088,0.17493 -0.84176,0.34987 -1.26263,0.5248 -2.9625,1.25171 -6.02957,1.86057 -9.2624,1.80347 -4.20514,-0.19035 -8.3029,-0.97331 -12.09311,-2.88652 -3.95952,-1.83588 -7.88321,-3.83233 -10.94563,-7.02819 0,0 18.28895,-10.71677 18.28895,-10.71677 z"
       inkscape:connector-curvature="0" />
    <path
       style="fill:#000000;stroke:#000000;stroke-width:1.42857146"
       d="m 347.39286,193.94895 c -20.24269,-0.18017 -40.08881,4.88273 -59.86607,7.63393 -5.67083,5.00042 0.0965,13.69649 0.51196,19.96055 7.23934,26.03395 15.96905,51.61787 22.62824,77.73066 9.37706,28.28669 32.74823,48.81829 55.0515,67.19006 47.06312,33.73221 98.91472,60.47116 148.01365,90.83301 3.74506,1.72182 7.40999,1.33183 9.375,5.35715 13.79583,9.18405 24.21346,22.44005 37.05357,32.72321 7.65406,0.57014 3.43283,-9.7927 4.22303,-14.37299 -2.58597,-45.05281 -3.14037,-90.45767 -10.07124,-135.0913 -7.78293,-34.57599 -20.4517,-68.75005 -40.85714,-97.92857 -10.54299,-15.43588 -26.5657,-26.27946 -44.63393,-30.86607 -39.15244,-13.07415 -79.7863,-23.8716 -121.42857,-23.16964 z"
       id="path3819"
       inkscape:connector-curvature="0" />
    <path
       style="fill:#000000;stroke:#000000;stroke-width:1.42857146"
       d="m 264.35714,205.28823 c -17.67917,5.4547 -35.80514,11.19096 -51.5625,21.07143 -25.62194,21.41865 -41.81081,52.20685 -54.24107,82.72322 -15.66987,42.86191 -29.37719,86.57565 -42.70961,130.16945 -16.311443,56.37768 -18.449557,115.34068 -24.03146,173.49126 -2.84261,45.82829 -2.567273,91.8468 -1.294643,137.72322 3.163086,22.75285 6.291323,45.39357 9.648913,68.13584 0.55388,12.98864 10.92813,1.40467 14.26418,-3.98529 8.69045,-10.77458 19.16531,-20.46624 26.84584,-31.82913 0.74935,-70.57451 1.73801,-141.69525 16.45253,-210.9606 4.91761,-20.46991 14.67429,-39.61461 23.82784,-58.50885 20.32336,-35.72793 35.97928,-74.38142 61.32677,-107.00376 19.58264,-26.24924 40.03168,-52.98993 61.96428,-76.51786 -1.67561,-9.95165 -7.92771,-19.14764 -9.82092,-29.22819 -7.79883,-30.86685 -20.2785,-60.61973 -25.17908,-91.97716 -0.76467,-2.3103 -3.02314,-3.75068 -5.49107,-3.30358 z"
       id="path3821"
       inkscape:connector-curvature="0" />
    <path
       style="fill:#000000;stroke:#000000;stroke-width:1.42857146"
       d="m 522.70536,483.19002 c -5.91785,4.1045 -2.61349,13.52269 -3.83929,19.6875 0.59623,25.75108 -7.3087,52.66984 -27.94643,69.0625 -46.56653,28.37464 -94.47566,54.747 -142.23214,80.66964 -6.30753,5.17739 1.13586,14.2369 1.20518,20.75826 3.85694,11.97261 3.65118,25.37069 8.52696,36.96496 4.338,3.20484 8.94809,-2.76945 13.52679,0.44643 30.42317,8.94348 59.51391,22.7122 89.15178,34.19642 20.417,9.29863 39.02455,22.45473 58.42263,33.24135 6.26759,-2.53169 3.11355,-13.00337 4.86869,-18.98882 2.83208,-48.42895 10.04884,-96.60124 24.91858,-142.72252 6.37333,-26.18974 15.3768,-52.47326 15.36153,-79.56572 -0.80401,-5.45158 -7.34835,-1.18375 -8.75,-1.47321 -3.16024,-15.62489 -7.66127,-31.65494 -20,-42.63393 -3.93018,-3.24666 -7.36398,-10.126 -13.21428,-9.64286 z"
       id="path3827"
       inkscape:connector-curvature="0" />
    <path
       style="fill:#000000;stroke:#000000;stroke-width:1.42857146"
       d="m 169.13393,582.07395 c -6.50862,8.40962 -5.20895,20.65656 -7.63393,30.66964 -6.15786,52.58012 -10.03993,105.69533 -7.58929,158.61607 4.88434,5.38773 11.14399,-3.8265 16.10621,-5.52214 30.62413,-20.03913 64.89466,-34.01323 98.98308,-47.46893 3.99769,-6.37783 0.008,-15.49858 0.24403,-23.02698 0.22251,-6.16059 -3.13267,-13.15426 -2.20832,-18.84802 5.65473,-5.5118 -4.21655,-9.35095 -8.30357,-11.02678 -29.03444,-17.4648 -49.40463,-45.62273 -72.63778,-69.66819 -5.19542,-4.4442 -8.79902,-11.73294 -15.30865,-14.21574 l -1.36933,0.4071 -0.28245,0.084 z"
       id="path3829"
       inkscape:connector-curvature="0" />
  </g>
</svg>
