<?xml version="1.0" encoding="UTF-8" standalone="no"?>
<!-- Created with Inkscape (http://www.inkscape.org/) -->

<svg
   xmlns:dc="http://purl.org/dc/elements/1.1/"
   xmlns:cc="http://creativecommons.org/ns#"
   xmlns:rdf="http://www.w3.org/1999/02/22-rdf-syntax-ns#"
   xmlns:svg="http://www.w3.org/2000/svg"
   xmlns="http://www.w3.org/2000/svg"
   xmlns:sodipodi="http://sodipodi.sourceforge.net/DTD/sodipodi-0.dtd"
   xmlns:inkscape="http://www.inkscape.org/namespaces/inkscape"
   width="744.09448819"
   height="1052.3622047"
   id="svg2"
   version="1.1"
   inkscape:version="0.48.2 r9819"
   sodipodi:docname="gobnit.svg">
  <defs
     id="defs4" />
  <sodipodi:namedview
     id="base"
     pagecolor="#ffffff"
     bordercolor="#666666"
     borderopacity="1.0"
     inkscape:pageopacity="0.0"
     inkscape:pageshadow="2"
     inkscape:zoom="0.49497475"
     inkscape:cx="-250.04356"
     inkscape:cy="503.78502"
     inkscape:document-units="px"
     inkscape:current-layer="layer1"
     showgrid="false"
     inkscape:window-width="1436"
     inkscape:window-height="856"
     inkscape:window-x="4"
     inkscape:window-y="0"
     inkscape:window-maximized="1" />
  <metadata
     id="metadata7">
    <rdf:RDF>
      <cc:Work
         rdf:about="">
        <dc:format>image/svg+xml</dc:format>
        <dc:type
           rdf:resource="http://purl.org/dc/dcmitype/StillImage" />
        <dc:title></dc:title>
      </cc:Work>
    </rdf:RDF>
  </metadata>
  <g
     inkscape:label="Layer 1"
     inkscape:groupmode="layer"
     id="layer1">
    <path
       style="fill:#000000;stroke:#000000;stroke-width:1.26295817"
       id="path4150"
       d="m -569.06256,476.78307 c -0.41594,0.65856 3.68701,-3.31001 2.76608,-2.48016 -3.66644,3.30381 -7.28359,6.74693 -10.96939,9.99543 -0.66914,0.58976 1.27301,-1.35091 1.91432,-2.01466 0.70852,-0.7333 1.40592,-1.49646 2.13507,-2.17637 4.95131,-4.61694 9.93623,-9.14158 14.90434,-13.71236 5.5663,-4.68015 11.13303,-9.34683 16.60091,-14.31912 5.7302,-5.05653 11.59114,-9.63313 17.58096,-13.8477 6.0987,-4.31786 12.03708,-9.16079 18.15984,-13.39512 6.36412,-4.68722 13.15317,-7.40234 19.90009,-10.24691 6.54654,-2.93034 13.26439,-4.20057 19.9867,-5.53506 8.29284,-1.46324 16.6463,-1.57247 24.97937,-1.75898 9.5585,-0.10176 19.03998,1.80525 28.38844,4.83563 7.68871,2.66387 14.76097,8.51032 21.68943,14.27684 4.47892,3.85552 9.16739,7.06504 13.55759,11.18725 2.71048,2.54501 4.11287,4.1615 6.73128,6.9933 1.13344,1.33307 2.29697,2.60338 3.4003,3.99922 1.81007,2.28995 5.32031,7.3033 7.03338,9.68824 3.55052,4.94304 7.14055,9.73011 10.58409,14.865 8.30921,12.30403 15.46006,26.29928 22.34085,40.61609 4.8487,9.69695 9.31925,20.08567 14.9812,28.65984 1.42093,1.58769 0.80044,1.78671 1.882,0.40137 0,0 -12.041,14.19485 -12.041,14.19485 l 0,0 c -1.76208,-0.90565 -0.93455,-0.18214 -2.43588,-2.3012 -5.32985,-9.14424 -9.63382,-19.70205 -14.47526,-29.48197 -6.8589,-14.22328 -14.03884,-28.03262 -22.40097,-40.10841 -6.74547,-9.82641 -13.64298,-19.51295 -21.0069,-28.14003 -6.51432,-6.85061 -13.21986,-12.4495 -20.20591,-17.96301 -6.85186,-5.63978 -13.86928,-11.14304 -21.45252,-13.76218 -9.25716,-3.01821 -18.64724,-4.86775 -28.11718,-4.53366 -8.37865,0.24401 -16.77497,0.55442 -25.10066,2.20567 -6.68215,1.29908 -13.33095,2.85328 -19.83135,5.74581 -6.71922,2.85911 -13.43281,5.81797 -19.75891,10.52331 -6.12125,4.3378 -12.08142,9.21945 -18.22302,13.48587 -5.96086,4.23619 -11.76813,8.93772 -17.47147,13.99924 -5.51432,4.94386 -11.12995,9.5787 -16.67928,14.41784 3.40044,-3.15786 6.78707,-6.35389 10.20134,-9.47354 0.71822,-0.65625 -1.41848,1.36229 -2.11221,2.08243 -0.62921,0.65315 -1.21144,1.4208 -1.85544,2.03618 -5.57515,5.32743 -11.33895,11.33208 -17.33736,15.86211 0,0 11.75713,-14.82108 11.75713,-14.82108 z"
       inkscape:connector-curvature="0" />
    <path
       style="fill:#000000;stroke:#000000;stroke-width:1.26295817"
       id="path4152"
       d="m -304.28392,533.69265 c 17.16494,-12.51239 33.48615,-27.74297 50.09624,-41.97972 16.45117,-14.10054 25.66506,-21.71556 42.32796,-35.64861 28.55725,-23.95747 57.57424,-46.6425 87.45907,-66.11272 14.77463,-9.62579 20.31512,-12.439 34.81914,-20.57088 7.641514,-3.69608 14.601142,-7.61004 22.456737,-9.64201 4.530709,-1.17193 10.972812,-2.2191 14.997545,2.65686 0.788094,0.95478 1.261798,2.43238 1.892696,3.64855 0.254383,1.46355 0.707385,2.8745 0.763148,4.39064 0.247495,6.72912 -3.109653,14.65515 -5.219421,19.87715 -2.257686,5.58811 -8.70988,19.91821 -10.808002,24.62799 -10.385581,22.727 -20.612192,45.81969 -32.816389,66.21869 -7.970984,13.32331 -14.829774,22.71194 -23.415944,35.06265 -23.66639,32.1804 -48.01155,63.05647 -72.1062,94.40985 -7.18679,9.621 -14.45923,19.0831 -21.58769,28.81509 -2.81578,3.8442 -5.60468,7.6695 -8.11283,12.0219 -0.0852,0.20659 -0.22528,0.86232 -0.25565,0.61981 -0.24628,-1.96706 1.10325,-1.44313 1.85066,-1.49618 1.25328,-0.089 2.50935,-0.18947 3.76291,-0.11134 9.01735,0.56188 7.50634,1.03576 18.21065,5.13811 40.20452,21.54799 77.06085,55.79086 113.543309,89.7131 19.516428,19.20434 39.844658,36.56992 58.515511,57.88834 1.586903,2.30887 5.746781,5.79645 6.071167,9.90035 0.08344,1.05562 0.121556,2.51242 -0.42667,3.11854 -12.86044,14.21842 -10.430518,12.56405 -20.007139,15.58647 -23.80391,5.40264 -47.736046,9.47378 -71.719868,12.21571 -8.39757,0.96006 -16.80474,1.69308 -25.20711,2.53963 -42.6445,3.23005 -85.38532,4.39268 -128.06954,2.55625 -6.1552,-0.26483 -12.30604,-0.74431 -18.45906,-1.11647 -19.02625,-1.45265 -38.01274,-4.87304 -56.70696,-10.73799 -9.1696,-3.6097 -1.00411,-6.17783 9.33013,-15.73794 0.17143,-0.15855 1.61096,0.74203 1.63125,0.75364 1.77958,0.6218 3.42861,1.88562 5.17518,2.64302 4.82135,1.20284 7.6244,8.06475 10.61911,13.51649 10.00781,18.24328 20.67796,35.67132 32.19576,51.51244 7.9061,10.87372 10.84435,13.97553 19.1072,23.72938 13.10341,15.56884 26.97848,29.26765 41.06645,42.40621 0,0 -11.95147,12.30923 -11.95147,12.30923 l 0,0 c -13.62299,-13.95248 -27.26224,-27.88204 -40.12781,-43.60589 -7.94457,-9.64573 -11.35305,-13.47883 -19.00709,-24.05855 -11.58667,-16.01554 -22.40057,-33.42916 -33.30628,-50.59343 -3.82897,-5.79885 -5.88006,-10.12286 -10.98051,-11.75176 -1.6952,-0.93266 -3.38634,-1.87991 -5.1366,-2.53133 -0.26037,-0.0542 -0.5188,-0.1434 -0.7811,-0.16289 -0.21639,-0.0161 -0.82618,0.25487 -0.64894,0.0562 13.73235,-15.39474 7.75058,-15.36117 14.68292,-11.60387 17.79045,7.36307 36.17014,10.59229 54.45508,12.82157 6.00093,0.53047 11.99812,1.18236 18.00278,1.59141 42.4385,2.89099 84.99515,2.15101 127.38872,-1.96668 8.55279,-1.03906 17.11351,-1.92374 25.65839,-3.11715 18.414475,-2.57187 36.730041,-6.2259 55.022869,-10.41216 3.707549,-0.84847 7.420601,-1.64408 11.11609,-2.61725 2.662135,-0.70104 5.30195,-1.60289 7.952924,-2.40433 1.690966,-0.77338 6.306644,-4.32021 5.072897,-2.32013 -2.76294,4.47913 -6.607409,6.84626 -9.936792,10.20521 -0.370659,0.37395 0.944895,-0.5717 1.05801,-1.24759 0.129256,-0.77233 -0.189318,-1.61449 -0.467794,-2.27911 -0.892709,-2.13056 -3.639395,-5.72889 -4.636095,-7.13626 -17.566157,-22.56186 -37.222171,-40.62702 -56.15542,-60.02079 -31.273789,-30.11636 -63.131329,-60.09353 -97.718509,-79.63705 -5.541,-3.13093 -11.25043,-5.4443 -16.87565,-8.16647 -3.99953,-1.08674 -7.96566,-2.55444 -11.99861,-3.26023 -2.3855,-0.41747 -4.7997,-0.1651 -7.19916,-0.0995 -1.74584,0.0477 -6.38224,2.04288 -7.54162,-1.7895 -0.16114,-0.53265 0.13826,-1.16211 0.20739,-1.74316 2.76481,-4.71008 5.85991,-8.77722 8.97087,-12.9011 7.44996,-9.87561 15.02183,-19.51637 22.46398,-29.40723 24.36644,-31.29664 48.9012,-62.28055 72.69973,-94.68037 8.4779,-12.18319 15.29733,-21.50535 23.15913,-34.65231 12.036221,-20.12764 22.128986,-42.90054 32.189452,-65.53109 1.850002,-4.31723 8.072892,-18.70065 10.122498,-23.94806 1.567741,-4.01375 5.033461,-12.65568 5.15439,-17.88244 0.02739,-1.18392 -0.279632,-2.32711 -0.419448,-3.49066 -0.486191,-0.966 -0.837341,-2.15459 -1.458574,-2.89802 -3.576905,-4.28051 -9.529268,-3.41773 -13.525187,-2.4972 -7.664544,1.76562 -13.812058,5.13772 -21.352947,8.60068 -14.480324,7.87218 -19.105204,10.06239 -33.925254,19.61724 -29.81472,19.22228 -58.66772,41.99258 -87.11299,65.85126 -17.83129,14.976 -25.22875,21.06884 -42.80206,36.29455 -17.50832,15.16941 -34.67137,31.4804 -52.72905,44.96742 0,0 11.44349,-14.31417 11.44349,-14.31417 z"
       inkscape:connector-curvature="0" />
    <path
       style="fill:#000000;stroke:#000000;stroke-width:1.26295817"
       id="path4154"
       d="m -229.59455,979.97298 c -10.74223,-0.44005 -21.49035,-0.44456 -32.23558,-0.53746 -14.66312,0.15616 -29.40632,-0.1359 -43.89688,-4.17487 -2.85018,-0.79442 -5.66296,-1.89882 -8.49443,-2.84824 -15.72874,-5.4915 -30.03109,-17.05919 -43.89561,-29.71043 -5.73482,-5.72805 -11.47609,-11.51947 -16.78958,-18.2277 -3.74058,-4.72244 -7.21738,-10.01325 -10.7659,-15.09246 -4.19246,-6.31059 -9.14898,-10.90128 -14.36915,-14.65622 -4.49458,-2.87148 -8.87161,-4.91243 -13.68715,-3.24677 -0.45097,0.33198 -0.90193,0.66396 -1.35289,0.99594 0,0 11.73641,-14.59211 11.73641,-14.59211 l 0,0 c 0.49221,-0.19653 0.98442,-0.39308 1.47663,-0.5896 4.89237,-0.7067 9.54891,1.43637 14.02037,4.53479 5.32815,3.91135 10.30661,8.70895 14.44099,15.45824 3.39657,5.15154 6.72918,10.49214 10.36294,15.22501 5.18324,6.75104 10.82715,12.537 16.4793,18.21728 13.71493,12.57883 27.93354,23.83577 43.49806,29.30647 2.80495,0.91962 5.59193,1.99171 8.41485,2.75883 14.51866,3.94539 29.27781,4.13648 43.95818,3.73638 11.05446,-0.0941 22.11144,-0.10655 33.16313,-0.53746 0,0 -12.06369,13.98038 -12.06369,13.98038 z"
       inkscape:connector-curvature="0" />
    <path
       style="fill:#000000;stroke:#000000;stroke-width:1.26295817"
       id="path4156"
       d="m -408.1676,896.20811 c -9.8273,-0.43843 -19.65585,-0.26447 -29.47903,-0.90971 -13.78249,-1.68381 -27.57398,-3.02049 -41.38912,-3.75771 -10.30034,-0.80374 -20.6026,-1.49094 -30.91355,-1.80735 -2.73125,0.40406 -4.92658,0.48337 -7.5586,1.81253 -1.12989,0.57059 -4.27111,3.24615 -3.26331,2.25137 18.24026,-18.00452 9.28188,-8.52946 6.25621,-4.39738 -0.99162,1.35424 -1.90801,2.84267 -2.86202,4.26402 -1.91254,3.12538 -3.38138,5.67935 -5.48466,8.49652 -1.75983,2.35712 -4.39205,5.33429 -6.37276,7.17116 -14.94413,13.85901 -11.1265,10.75693 -20.12068,17.6411 -8.84772,6.42434 -17.8639,12.2167 -27.0978,17.0663 -9.37999,4.94727 -19.18679,7.03747 -28.98384,8.47687 -9.41647,1.68002 -18.88738,2.13735 -28.33803,3.03158 -7.50839,0.49388 -14.98428,1.69729 -22.47415,2.61281 -3.20288,0.14914 -6.43088,0.9919 -9.6375,0.48858 -0.72393,-0.11357 -3.21109,-0.82182 -3.94454,-1.02444 -4.35619,-1.22788 -7.43357,-4.80016 -10.47732,-9.66468 -2.57105,-4.51992 -5.95819,-7.50776 -8.50075,-12.04632 -2.7341,-6.53802 -1.78556,-9.06071 1.94747,-13.31991 5.85784,-6.83275 11.58891,-11.19489 17.87127,-15.66319 1.30545,-0.92849 5.10937,-4.07644 3.87793,-2.91897 -3.42895,3.22305 -6.91241,6.29623 -10.36862,9.44433 6.83835,-7.71116 12.97379,-16.87019 19.45068,-25.32138 8.54147,-11.0168 17.4541,-21.32874 25.37632,-33.49555 4.18917,-7.01005 7.993,-14.61437 11.32974,-22.70549 1.04903,-2.46105 0.54157,-1.31979 1.51281,-3.43458 0,0 13.75107,-9.33377 13.75107,-9.33377 l 0,0 c -1.11606,1.92666 -0.55598,0.8519 -1.64937,3.26457 -3.51778,8.34309 -7.52532,16.15515 -11.79361,23.54691 -1.21463,1.92759 -2.3808,3.93609 -3.64388,5.78273 -6.84874,10.01294 -14.61704,18.35136 -21.70347,27.91086 -6.37692,8.33866 -12.46965,17.20196 -18.92651,25.38263 -4.95244,4.5418 -9.87921,9.1556 -14.85733,13.62538 -1.82838,1.64167 -3.85343,2.80377 -5.7432,4.25541 -0.57441,0.44122 -2.25696,1.88886 -1.71049,1.36505 3.65039,-3.49901 7.35096,-6.86309 11.02643,-10.29465 -1.87113,1.77079 -1.22204,1.08098 -2.89996,2.94189 -0.34853,0.38655 -0.78034,0.63617 -1.04049,1.17121 -0.86305,1.775 0.3736,4.11054 0.89807,5.52361 2.53767,4.45729 5.88721,7.47138 8.41238,11.97734 2.90889,4.563 5.84671,7.50529 9.97408,8.44433 4.39913,1.09152 8.78744,0.90104 13.21967,0.27084 7.43272,-0.81809 14.85571,-1.85437 22.30096,-2.3626 9.40564,-0.80524 18.82772,-1.27259 28.19474,-2.97671 9.7493,-1.58128 19.49647,-3.84562 28.80956,-8.91012 9.21244,-4.98001 18.23528,-10.80354 27.04598,-17.38321 1.33979,-1.06017 5.25278,-4.52969 4.01936,-3.18051 -2.74244,2.99984 -5.69534,5.47876 -8.56656,8.15449 -1.12646,1.04978 2.24372,-2.12762 3.33169,-3.27603 2.39607,-2.52918 3.90403,-4.35566 5.98012,-7.52968 0.92491,-1.41405 1.76854,-2.95745 2.6528,-4.43619 7.52724,-11.79646 9.15744,-12.45723 21.36808,-22.91892 1.05812,-0.90655 2.23925,-1.41653 3.40358,-1.88698 2.82419,-1.14115 4.75767,-1.07537 7.66147,-1.32728 10.20802,0.49608 20.40614,1.30329 30.60334,2.19648 13.79069,0.86036 27.55365,2.38057 41.32364,3.82978 10.09891,0.46769 20.20117,0.2678 30.3008,-0.13877 0,0 -12.0991,14.02142 -12.0991,14.02142 z"
       inkscape:connector-curvature="0" />
    <path
       style="fill:#000000;stroke:#000000;stroke-width:1.26295817"
       id="path4160"
       d="m -619.62541,830.11579 c -4.21008,-0.2042 -2.77907,-0.15361 -7.87017,-0.29415 -12.41925,-0.34289 -24.22767,-2.03709 -36.56917,-4.31394 -18.97221,-4.09034 -38.02795,-7.5823 -56.89556,-12.82881 -3.57326,-0.99361 -7.124,-2.18328 -10.686,-3.27492 -12.98388,-4.60811 -25.917,-9.78048 -38.61705,-16.11678 -6.87292,-3.42903 -10.37255,-5.53027 -17.12464,-9.36189 -13.05246,-7.90181 -26.03362,-16.34485 -38.34003,-26.92079 -2.38115,-2.04632 -4.70703,-4.25223 -7.06054,-6.37836 -10.28166,-10.43189 -20.48244,-21.0686 -30.69306,-31.67915 -2.21301,-2.32544 -4.63684,-4.10065 -6.85527,-6.41035 -0.57891,-0.60273 -1.8556,-1.9374 -1.29536,-2.58345 4.22622,-4.87359 8.82235,-8.8741 13.23352,-13.31115 4.89118,0.50303 9.76688,-0.31748 14.63782,-0.91756 12.27681,-1.36297 24.31352,-5.69904 36.33872,-9.6509 16.97267,-5.58292 33.77421,-12.3678 50.67674,-18.44506 13.36434,-4.94596 26.7025,-10.07334 40.28164,-13.28798 8.2391,-1.82826 16.55373,-2.23706 24.85852,-2.44884 3.85768,-0.0745 2.00471,-0.044 5.5589,-0.0938 0,0 -11.88932,13.77976 -11.88932,13.77976 l 0,0 c -3.45915,-0.0442 -1.65363,-0.0308 -5.41657,-0.0349 -8.1715,0.13398 -16.35337,0.58428 -24.45975,2.36021 -13.38376,3.15695 -26.56308,8.01708 -39.74222,12.84698 -16.9292,6.12129 -33.77419,12.83353 -50.76694,18.50922 -12.26861,4.13717 -24.5405,8.65233 -37.07369,10.18697 -0.76912,0.11134 -6.10165,0.89381 -7.08675,0.99953 -2.16555,0.2324 -4.43322,-0.0522 -6.58287,0.49168 -0.39388,0.0997 -0.76723,0.34771 -1.15084,0.52157 3.99541,-4.17294 8.04464,-8.21765 11.98624,-12.51884 0.10076,-0.1099 -0.42018,-0.33818 -0.34826,-0.18085 1.27185,2.78226 5.74642,5.42365 7.22606,7.81246 9.89272,10.99677 19.86058,21.83377 30.03874,32.14889 2.32686,2.11488 4.62168,4.32206 6.98058,6.3446 12.25234,10.50527 25.22323,18.73413 38.16504,26.77136 18.09522,10.33632 36.51284,19.19255 55.33508,25.52922 22.32936,6.87031 44.88829,11.66812 67.45914,16.02875 9.53881,1.5215 12.06293,2.13631 21.39444,2.84109 7.57092,0.5718 8.88397,0.40255 16.02106,0.21444 5.36189,-0.14132 3.8835,-0.093 8.3778,-0.29414 0,0 -12.04598,13.95986 -12.04598,13.95986 z"
       inkscape:connector-curvature="0" />
    <path
       style="fill:#000000;stroke:#000000;stroke-width:1.26295817"
       id="path4162"
       d="m -692.71998,661.31433 c -5.84325,-33.49579 -16.92873,-63.97214 -27.1262,-94.4398 -19.24218,-55.01201 -39.66267,-108.93542 -59.9283,-162.99351 -4.96136,-13.35269 -9.95234,-26.6711 -15.12423,-39.81849 0,0 11.9928,-11.0614 11.9928,-11.0614 l 0,0 c 4.67013,13.62537 9.13788,27.41909 13.84949,41.00946 19.22333,55.03452 39.26504,109.32234 59.24807,163.66028 10.78394,30.10955 22.22367,59.95443 30.25785,92.28375 0,0 -13.16948,11.35971 -13.16948,11.35971 z"
       inkscape:connector-curvature="0" />
    <path
       style="fill:#000000;stroke:#000000;stroke-width:1.26295817"
       id="path4164"
       d="m -788.07698,334.33868 c 3.93051,0.33029 7.87539,-0.0306 11.80196,0.46976 2.92977,0.37336 5.54079,1.09771 8.44949,1.80512 8.9221,2.97403 17.75747,6.65116 26.51964,10.65022 9.15324,4.38297 17.75058,11.14087 26.31661,17.79223 7.7736,5.8176 15.62191,11.37505 23.61871,16.36575 6.69487,4.04125 13.15471,8.947 19.7053,13.52777 6.67528,4.67396 13.51046,8.71394 20.23354,13.20953 7.96171,5.40765 15.86956,11.01589 23.76766,16.65447 6.3945,4.74208 12.94598,8.91325 19.32194,13.71793 5.24905,4.33935 10.77597,7.73175 16.06752,11.92045 3.19083,2.33958 6.36279,4.82023 9.31999,7.85301 2.23178,2.58008 4.67935,4.63613 6.95574,7.09669 1.53886,1.86085 3.28143,3.31208 4.79633,5.21983 1.25109,1.71811 2.46411,3.43098 3.44825,5.55943 0.94184,1.79319 1.85301,3.64565 2.91357,5.26443 0.10564,0.0439 0.21128,0.0879 0.31692,0.13175 0,0 -12.65717,13.03645 -12.65717,13.03645 l 0,0 c -0.16336,-0.21887 -0.32671,-0.43774 -0.49007,-0.65662 -1.04101,-1.78652 -2.02682,-3.64674 -2.97511,-5.55978 -0.93101,-1.89912 -2.09928,-3.41352 -3.23033,-4.99957 -1.54521,-1.76677 -3.17461,-3.34684 -4.70512,-5.14941 -2.28338,-2.40117 -4.63458,-4.64154 -6.90297,-7.08171 -2.91827,-2.90817 -5.97848,-5.43985 -9.07556,-7.82562 -5.23233,-4.2408 -10.71152,-7.66447 -15.91535,-12.00807 -6.3585,-4.74225 -12.8642,-8.9588 -19.19344,-13.80518 -7.87659,-5.65348 -15.73467,-11.38588 -23.72636,-16.61718 -6.78943,-4.42485 -13.71019,-8.31273 -20.40706,-13.09336 -6.48914,-4.63305 -12.89341,-9.56341 -19.54853,-13.58447 -7.97543,-5.10784 -15.82505,-10.69021 -23.57098,-16.63058 -8.49212,-6.66992 -17.09095,-13.1769 -26.20393,-17.42063 -8.73221,-3.91152 -17.51378,-7.69205 -26.43036,-10.3752 -6.86313,-1.46072 -13.73187,-2.06852 -20.65534,-1.40504 0,0 12.13451,-14.06246 12.13451,-14.06246 z"
       inkscape:connector-curvature="0" />
    <path
       style="fill:#000000;stroke:#000000;stroke-width:1.26295817"
       id="path4166"
       d="m -559.97119,578.29228 c 4.77462,-3.13788 9.57186,-6.15407 14.31721,-9.4094 8.58008,-5.9924 16.88955,-12.89716 25.30695,-19.43759 7.97321,-6.24432 16.27015,-11.3312 24.61718,-16.13611 7.13038,-3.84553 14.38187,-7.23575 21.74268,-9.76984 9.10731,-3.1884 18.4192,-4.30484 27.67801,-5.76126 8.9423,-1.30208 17.90649,-2.15979 26.88103,-2.59819 6.87413,-0.0281 12.9806,4.45051 18.84156,9.69369 5.24911,4.85689 9.88466,11.07046 14.1639,17.88275 2.54129,4.37813 5.38248,7.84248 8.87772,9.96162 3.32114,1.54746 5.31816,4.032 7.6916,7.93151 3.39893,5.60743 6.80447,11.22995 10.04957,17.0676 2.18958,3.8133 4.38138,7.65672 6.40295,11.70271 0.75355,1.2978 1.42188,2.68953 2.187,3.96917 0,0 -12.80099,12.3849 -12.80099,12.3849 l 0,0 c -0.74986,-1.36361 -1.44093,-2.79382 -2.18,-4.17266 -1.98332,-4.0335 -4.15798,-7.82818 -6.24407,-11.72594 -3.15445,-5.90217 -6.53548,-11.51095 -10.049,-16.87006 -2.46217,-3.77279 -4.23047,-5.36224 -7.46687,-7.08869 -3.48729,-2.6174 -6.40437,-6.37732 -9.01599,-10.90014 -4.15356,-6.68899 -8.58453,-12.89628 -13.78526,-17.47825 -5.74826,-4.92944 -11.71256,-8.98225 -18.38351,-8.70554 -8.88105,0.36386 -17.75993,1.03105 -26.60113,2.47222 -9.27605,1.49212 -18.5977,2.80482 -27.70355,6.1413 -7.32807,2.74788 -14.57328,6.13022 -21.68553,10.06316 -8.27254,4.77739 -16.48517,9.86667 -24.36753,16.13366 -8.47784,6.60105 -16.85655,13.54292 -25.50822,19.55857 -4.88815,3.38506 -9.85209,6.46527 -14.72284,9.91189 0,0 11.75713,-14.82108 11.75713,-14.82108 z"
       inkscape:connector-curvature="0" />
    <path
       style="fill:#000000;stroke:#000000;stroke-width:1.26295817"
       id="path4168"
       d="m -363.69858,610.24538 c -7.26757,3.73388 -14.18261,9.01306 -21.06994,14.22273 -7.3532,6.38804 -14.65708,12.87902 -22.228,18.60448 -5.73733,4.53805 -11.88209,6.8524 -18.09655,8.9538 -5.28788,1.31854 -10.58299,2.56349 -15.91449,3.34133 -5.71831,0.50412 -11.44064,0.63624 -17.16154,1.08329 -7.16463,1.03853 -14.33393,1.91891 -21.52331,2.35532 -7.45118,0.34862 -14.90631,0.32062 -22.35987,0.32332 -7.87623,0.18247 -15.74633,-0.13096 -23.56374,-1.71967 -6.28279,-1.16323 -12.33427,-4.61828 -18.22324,-8.19142 -4.47615,-3.15971 -9.05551,-5.89924 -13.62575,-8.68957 -4.42321,-2.96043 -8.9252,-5.72932 -13.23919,-9.07495 -4.58904,-3.1762 -8.4577,-8.00808 -12.18858,-13.21603 -2.61521,-3.92168 -5.64779,-7.1231 -7.47599,-12.15168 -0.89053,-2.66405 -1.29445,-5.41226 -0.86217,-8.36129 4.04856,-9.24745 11.60096,-13.30245 18.24699,-16.36652 1.41368,-0.58988 2.89417,-1.15835 4.21007,-2.21241 0.47802,-0.38292 1.83237,-1.76139 1.36701,-1.34066 -9.6553,8.72932 -15.17618,14.03683 -9.75231,8.84388 6.43371,-6.74176 13.17232,-12.52196 19.87869,-18.61555 0,0 -11.52594,14.75971 -11.52594,14.75971 l 0,0 c 21.10372,-19.7068 10.07692,-9.685 5.49812,-4.65585 -6.9642,6.52426 -13.53353,14.67554 -21.46581,17.74596 -0.97816,0.49157 -1.54849,0.71738 -2.45961,1.38895 -0.31756,0.23406 -1.2274,1.0711 -0.92573,0.78857 21.51029,-20.14637 15.24661,-13.20885 10.65626,-10.16765 -1.22823,1.55608 -0.41736,4.41572 0.0647,6.30152 1.67908,4.80981 4.62776,7.84544 7.04447,11.64345 3.6352,5.07828 7.48711,9.61041 11.9619,12.66526 4.34935,3.13062 8.73865,6.14089 13.17285,8.95089 4.54982,2.84209 9.14627,5.47761 13.5963,8.70856 5.77546,3.53582 11.6927,6.87497 17.88212,7.88226 7.76938,1.47873 15.58492,1.77355 23.40565,1.54751 7.46715,-0.0337 14.93654,-0.0603 22.39989,-0.482 7.18452,-0.49804 14.35077,-1.36974 21.51386,-2.37964 5.75592,-0.5245 11.52126,-0.6234 17.26996,-1.33167 5.27929,-0.83036 10.5407,-2.00836 15.76281,-3.49234 6.13102,-2.0618 12.11628,-4.77333 17.75963,-9.2343 7.51122,-5.76826 14.74771,-12.32471 22.13485,-18.4697 7.08848,-5.28694 14.2042,-10.59856 21.64844,-14.50503 0,0 -11.81284,14.54714 -11.81284,14.54714 z"
       inkscape:connector-curvature="0" />
    <path
       style="fill:#000000;stroke:#000000;stroke-width:1.26295817"
       id="path4170"
       d="m -517.36573,575.58139 c 1.52971,6.68104 3.38213,13.17958 5.32026,19.58355 2.11309,6.18502 4.14525,12.53317 7.06157,17.86674 2.01268,3.79592 4.61951,5.52557 7.61594,6.28264 3.27203,0.49879 6.56711,0.40557 9.85032,0.39669 4.44343,0.01 8.88688,-0.0338 13.3303,-0.0616 3.76408,-0.0812 7.52207,0.38347 11.22488,-0.85579 4.89053,-2.71111 12.99059,-9.76652 -8.54619,8.3973 -0.44603,0.37618 0.80865,-0.97711 1.15018,-1.5695 0.85133,-1.47664 1.21067,-2.82423 1.80026,-4.57879 1.42387,-5.17376 2.35831,-10.61427 2.91368,-16.18171 0.31467,-3.49748 0.37023,-7.03182 0.38299,-10.55887 -0.009,-2.57305 -0.0198,-5.14615 -0.0212,-7.71936 0.18545,-3.2092 -0.76639,-5.86666 -1.71914,-8.56423 -1.67009,-3.88792 -3.87401,-7.05732 -5.99087,-10.3306 -2.02491,-3.49968 -4.47297,-6.15323 -6.84646,-8.97091 -1.49932,-2.17702 -3.48484,-2.82549 -5.18404,-4.36164 -1.47162,-1.27868 -2.88205,-2.81897 -4.46439,-3.72531 -1.55011,-0.75401 -3.16689,-0.78718 -4.77182,-0.84091 -1.74801,0.0128 -3.39979,1.14035 -5.05984,1.88859 -1.79125,1.01454 -3.73301,0.82848 -5.54688,1.62765 -0.92529,0.72552 -1.89826,1.18797 -2.79583,2.01074 -0.33102,0.30343 -1.2988,1.28037 -0.96713,0.97876 11.35825,-10.32904 15.79227,-14.93837 11.02131,-10.01548 -0.86759,0.89918 -1.68911,1.94296 -2.58863,2.76372 -4.57439,4.17381 -9.17628,8.27059 -13.75355,12.43635 -0.27364,0.24904 -1.07171,1.05677 -0.79826,0.80722 4.05607,-3.70162 8.09793,-7.44273 12.14689,-11.16409 -1.76731,1.7512 -3.11315,4.39477 -4.47596,6.86638 -1.18237,1.90478 -2.04011,4.22304 -3.10095,6.2753 -1.00073,1.85536 -1.74887,3.95394 -2.43561,6.12948 -0.75131,2.34147 -0.76723,4.99467 -0.96453,7.54623 -0.0486,0.3544 -0.0972,0.70881 -0.14582,1.06322 0,0 -13.59415,10.25133 -13.59415,10.25133 l 0,0 c 0.0754,-0.29394 0.1508,-0.58788 0.2262,-0.88182 0.51212,-2.59785 0.19058,-5.48156 0.80164,-8.0797 0.67309,-2.28535 1.30057,-4.60362 2.31115,-6.54781 1.6777,-3.8758 -0.88252,1.90701 0.91002,-1.71463 0.76219,-1.53994 1.26445,-3.42221 2.21575,-4.74436 1.36206,-2.58835 2.776,-5.11278 4.25774,-7.51554 43.53981,-40.31779 -9.5665,9.17398 5.06989,-4.72992 5.52092,-6.82539 11.84715,-12.96628 18.60505,-16.17865 1.83841,-0.41892 3.68668,-0.78005 5.45014,-1.76803 1.73807,-0.86511 3.54421,-1.53619 5.37747,-1.28816 1.73473,0.1576 3.46552,0.42263 5.08125,1.5308 1.54642,1.14963 2.99747,2.59185 4.49119,3.90346 1.88012,1.29347 3.72523,2.59947 5.30965,4.73716 2.40014,2.89562 4.76984,5.84492 6.8711,9.3035 2.21367,3.43959 4.53382,6.74536 6.28601,10.83226 1.06635,2.96656 2.23975,6.05826 2.13301,9.59992 0.0112,2.58324 0.0269,5.1668 0.0186,7.74989 -0.0175,3.6585 -0.0843,7.32016 -0.38892,10.95167 -0.53916,5.79131 -1.4876,11.38285 -2.75633,16.8803 -0.17193,0.58581 -1.35749,4.67612 -1.5788,5.22734 -0.2909,0.72455 -0.57626,1.5295 -1.03332,1.98635 -6.091,6.08836 -10.64985,12.20922 -17.16049,14.51843 -3.753,0.78547 -7.53709,0.39572 -11.31373,0.47364 -4.45078,0.003 -8.90168,0.0143 -13.35223,0.0884 -3.37102,0.0191 -6.77136,0.20218 -10.10958,-0.68573 -3.19943,-1.22576 -5.9519,-3.5669 -8.08058,-7.68935 -2.90833,-5.5897 -4.97262,-12.11516 -7.12867,-18.48143 -2.00567,-6.42533 -3.80572,-13.0067 -5.64243,-19.55816 0,0 13.08189,-11.59295 13.08189,-11.59295 z"
       inkscape:connector-curvature="0" />
    <path
       style="fill:#000000;stroke:#000000;stroke-width:1.26295817"
       id="path4172"
       d="m -476.24467,554.96038 c -0.4362,5.5832 -1.00586,11.11594 -1.73477,16.62069 -0.51023,4.52842 -1.30314,8.95422 -1.84885,13.47081 -0.14968,2.19461 -0.78412,5.08211 0.50369,6.61807 1.36893,0.54738 2.77711,0.54462 4.17793,0.5548 1.68462,-0.0159 3.36912,-0.0526 5.05368,-0.0745 1.79649,-0.04 3.62688,-0.82103 5.19993,-2.21012 4.99472,-4.66695 -1.89916,1.77991 -11.21218,10.23728 -0.27598,0.25063 0.53663,-0.54204 0.80656,-0.80893 0.81905,-0.80978 1.61417,-1.62109 2.39703,-2.51823 1.24959,-1.64849 2.09741,-3.86315 2.90926,-6.06566 0,0 13.62906,-10.0524 13.62906,-10.0524 l 0,0 c -0.4441,2.63948 -1.6393,4.97442 -2.6744,7.10276 -0.90341,1.57546 -1.95129,2.61399 -3.106,3.68316 -13.93029,12.89835 -8.84659,9.14174 -14.48199,13.24654 -1.80586,0.99184 -3.68632,1.56793 -5.60418,1.47291 -1.68872,0.0182 -3.37792,0.0557 -5.06647,0.005 -1.69322,-0.0987 -3.40604,-0.35195 -4.82459,-1.98522 -1.60163,-2.75992 -1.48646,-5.17962 -1.1375,-8.74728 0.44477,-4.62189 1.44111,-9.0387 1.94685,-13.6412 0.70534,-5.4107 1.46896,-10.80619 1.60878,-16.35159 0,0 13.45816,-10.55683 13.45816,-10.55683 z"
       inkscape:connector-curvature="0" />
    <path
       style="fill:#000000;stroke:#000000;stroke-width:1.27578044"
       d="m -494.3742,546.87092 c -11.01866,-0.48295 -18.86664,15.18609 -21.65515,30.6139 -2.71692,8.36915 2.7304,17.22575 4.51412,24.92414 3.39514,10.87606 9.51929,21.7075 17.96099,19.54968 8.61814,-0.3909 17.80224,2.58345 26.07535,-1.82585 3.54215,-5.34569 4.13362,-15.47719 4.00904,-22.3562 -2.43594,-9.33359 -8.70082,0.87508 -12.5322,2.56794 -4.60331,2.43915 -11.90622,6.37792 -15.34169,-0.95669 0.8224,-10.65027 2.26834,-21.88358 4.04061,-31.87268 3.76653,-2.11541 9.95052,-8.68279 4.92449,-14.70272 -3.58444,-3.38878 -7.74269,-6.2876 -11.99556,-5.94152 z"
       id="path4174"
       inkscape:connector-curvature="0" />
    <path
       style="fill:#000000;stroke:#000000;stroke-width:1.26295817"
       id="path4178"
       d="m -604.97834,699.42775 c 4.7581,3.45229 9.37956,7.23385 13.91704,11.36804 4.32444,4.31731 8.84839,7.74488 13.76435,9.89458 5.66477,2.07484 11.51905,2.04293 17.29858,2.23559 8.68113,0.52947 17.29722,-1.72364 25.88541,-3.43008 5.32495,-1.02325 10.684,-1.83823 16.03448,-1.02952 5.82628,1.51036 11.05869,5.59511 15.73748,11.19529 2.51262,3.19901 4.8674,6.74651 7.51925,9.6638 1.85775,2.04371 3.71411,3.65005 5.67291,5.44333 6.64462,5.14146 13.77935,8.63321 21.12459,10.01286 1.73249,0.32541 3.47801,0.43981 5.21701,0.65972 14.95668,0.41003 29.61633,-4.91526 43.99764,-10.88414 12.62602,-5.33937 24.86353,-12.69672 37.44737,-18.27623 4.48512,-1.66195 9.09403,-3.18916 13.72435,-3.24626 2.52798,-0.0311 4.57933,0.49832 7.09224,0.97935 6.80972,1.94949 13.35442,5.59144 20.06893,8.18581 1.8673,0.45909 3.77084,1.49959 5.6814,1.49728 2.54649,-0.003 5.10948,-1.90477 7.43909,-3.23873 7.6711,-4.76118 15.29917,-9.77799 22.79772,-15.20286 2.47245,-1.81275 4.9094,-4.01915 7.63604,-4.71268 1.27256,-0.32367 3.17973,-0.40772 4.42396,-0.50443 6.90522,-0.7433 13.71812,0.23926 20.53265,1.92402 4.57601,1.22631 8.81775,4.29506 13.15841,6.75973 2.66448,1.38091 4.90594,2.3813 7.69154,1.70484 1.78321,-1.33903 3.67478,-2.00406 5.62547,-2.2872 2.50385,-0.11516 5.00742,-0.43779 7.50225,-0.0128 0,0 -12.12288,13.8259 -12.12288,13.8259 l 0,0 c -2.45276,-0.16714 -4.92031,-0.01 -7.35735,0.47216 -1.92867,0.57575 -3.74887,1.74589 -5.68712,2.19543 -2.74241,0.0703 -5.36918,-1.22851 -7.93223,-2.69505 -4.189,-2.53024 -8.33766,-5.38301 -12.77816,-6.61692 -2.2593,-0.56692 -4.54771,-1.20441 -6.82905,-1.50754 -4.53949,-0.60316 -9.10226,-0.16989 -13.64162,0.17365 -1.8732,0.30372 -2.60529,0.30607 -4.36749,0.99355 -2.55438,0.99655 -4.86337,3.13454 -7.27534,4.72216 -7.54681,5.22357 -15.14677,10.28774 -22.82704,14.9868 -2.29626,1.21398 -3.80818,2.26263 -6.16393,2.69092 -2.5701,0.46727 -5.13409,-1.05708 -7.60315,-1.88371 -6.5586,-2.8892 -13.01681,-6.55716 -19.77721,-8.08587 -2.96139,-0.41502 -4.08798,-0.72773 -7.01033,-0.55969 -4.5215,0.25998 -8.99903,1.71224 -13.38239,3.39072 -12.37151,5.36839 -24.42924,12.39428 -36.84757,17.49799 -14.63416,5.97812 -29.55901,11.43191 -44.76541,10.86784 -1.78555,-0.24269 -3.57843,-0.37401 -5.35665,-0.72809 -7.51733,-1.49682 -14.77687,-5.31417 -21.60072,-10.48049 -4.81784,-4.33513 -9.38229,-9.1566 -13.44964,-15.17998 -4.53163,-5.3102 -9.55361,-9.18421 -15.22158,-10.14521 -5.27294,-0.3816 -10.53496,0.36336 -15.7773,1.26883 -8.61055,1.51255 -17.22961,3.52357 -25.91671,3.08873 -5.94435,-0.0892 -11.97738,0.0448 -17.76221,-2.47021 -4.99737,-2.41077 -9.43826,-6.04987 -13.87186,-10.44456 -4.53716,-4.09789 -9.1754,-7.87589 -14.08012,-10.74805 0,0 12.4149,-13.32905 12.4149,-13.32905 z"
       inkscape:connector-curvature="0" />
  </g>
</svg>
