<?xml version="1.0" encoding="UTF-8" standalone="no"?>
<!-- Created with Inkscape (http://www.inkscape.org/) -->

<svg
   xmlns:dc="http://purl.org/dc/elements/1.1/"
   xmlns:cc="http://creativecommons.org/ns#"
   xmlns:rdf="http://www.w3.org/1999/02/22-rdf-syntax-ns#"
   xmlns:svg="http://www.w3.org/2000/svg"
   xmlns="http://www.w3.org/2000/svg"
   xmlns:sodipodi="http://sodipodi.sourceforge.net/DTD/sodipodi-0.dtd"
   xmlns:inkscape="http://www.inkscape.org/namespaces/inkscape"
   width="744.09448819"
   height="1052.3622047"
   id="svg2"
   version="1.1"
   inkscape:version="0.48.2 r9819"
   sodipodi:docname="leepig.svg">
  <defs
     id="defs4" />
  <sodipodi:namedview
     id="base"
     pagecolor="#ffffff"
     bordercolor="#666666"
     borderopacity="1.0"
     inkscape:pageopacity="0.0"
     inkscape:pageshadow="2"
     inkscape:zoom="0.49497475"
     inkscape:cx="-250.04356"
     inkscape:cy="503.78502"
     inkscape:document-units="px"
     inkscape:current-layer="layer1"
     showgrid="false"
     inkscape:window-width="1436"
     inkscape:window-height="856"
     inkscape:window-x="4"
     inkscape:window-y="0"
     inkscape:window-maximized="1" />
  <metadata
     id="metadata7">
    <rdf:RDF>
      <cc:Work
         rdf:about="">
        <dc:format>image/svg+xml</dc:format>
        <dc:type
           rdf:resource="http://purl.org/dc/dcmitype/StillImage" />
        <dc:title></dc:title>
      </cc:Work>
    </rdf:RDF>
  </metadata>
  <g
     inkscape:label="Layer 1"
     inkscape:groupmode="layer"
     id="layer1">
    <path
       style="fill:#000000;stroke:#000000"
       id="path4201"
       d="m -406.19687,135.07999 c -10.14926,-2.0561 -20.28203,-4.16281 -30.5443,-5.57368 -12.0869,-1.03086 -23.99998,-3.33427 -36.04785,-4.68732 -8.71404,-0.94192 -17.48021,-1.12263 -26.23624,-1.21732 -8.71095,-0.0772 -17.42247,-0.0411 -26.13334,0.027 -6.60511,-0.1549 -13.21982,0.4493 -19.70421,1.69999 -6.86622,0.60191 -13.11911,2.98878 -19.11437,6.28764 -9.17972,4.93256 -23.53116,12.96056 18.59958,-10.78503 0.74506,-0.41992 -1.43897,0.92717 -2.12483,1.43809 -2.02086,1.50542 -2.36558,1.96188 -4.18795,3.73829 -4.37628,4.07634 -7.50446,9.19825 -11.26678,13.78578 -10.00384,10.44587 -22.78967,18.19569 -36.87237,18.34167 -0.90244,0.007 -1.81125,0.12954 -2.70731,0.0222 -3.33142,-0.39912 -6.67552,-2.00168 -9.79063,-3.12635 -3.33923,-1.20558 -6.10571,-2.15888 -9.48301,-3.33648 -15.38909,-5.5309 -31.06008,-10.20616 -46.4839,-15.63107 -15.35971,-5.55311 -30.46899,-11.75506 -45.70672,-17.62138 -13.83884,-5.16686 -28.59169,-6.1179 -43.19761,-6.82665 -16.59395,-1.45947 -31.81985,1.70683 -47.32056,7.32436 -2.42943,1.16436 -4.89577,2.25464 -7.28829,3.49308 -2.35857,1.22086 -9.28147,5.16794 -6.95815,3.88127 6.16926,-3.41658 12.12579,-7.24556 18.49599,-10.27101 2.01082,-0.95502 -3.62939,2.58682 -5.33318,4.0195 -4.28472,3.60292 -4.8335,4.6406 -8.35811,8.88165 -6.84415,9.01502 -10.21909,19.58772 -12.7685,30.44473 -1.91753,8.5716 -2.36073,17.34271 -2.57817,26.09148 -0.077,7.47645 -0.25248,14.94036 0.53682,22.38322 0.63348,4.87779 1.23033,9.75598 1.48784,14.66897 0.17771,3.8049 1.11677,7.5048 1.56079,11.28613 0.35629,3.97138 0.60369,7.96047 0.65196,11.94836 -0.0287,4.2728 -0.0102,8.54532 -0.0227,12.81811 -0.1624,6.9821 -0.17522,13.92141 0.49954,20.87699 1.05278,9.53521 3.10365,18.93888 5.4489,28.23074 2.25311,9.87166 3.98372,19.85169 6.15187,29.74766 1.98181,9.21644 3.64737,18.51745 2.95375,27.95558 -1.22567,7.47215 -3.31284,14.7752 -5.30338,22.07247 -1.58695,7.64283 -3.62382,15.07241 -6.09527,22.47496 -2.81515,8.55862 -5.85732,17.03999 -8.80553,25.55356 -1.41412,3.76816 -0.65694,1.9718 -2.24596,5.39978 0,0 -27.20268,12.22013 -27.20268,12.22013 l 0,0 c 1.89352,-3.0916 1.02085,-1.42037 2.55618,-5.04549 3.05004,-8.52142 6.39553,-16.94066 9.07553,-25.58839 2.27066,-7.38042 4.59318,-14.67118 5.97751,-22.28546 2.00588,-7.16979 3.86454,-14.38489 5.59537,-21.62528 1.00159,-9.1869 -0.44394,-18.27751 -2.29605,-27.29184 -2.09959,-9.85194 -4.25682,-19.69226 -6.31917,-29.54959 -2.34051,-9.43536 -4.33917,-18.97394 -5.5225,-28.62967 -0.91434,-6.96265 -1.28571,-13.91738 -1.11853,-20.94093 -0.003,-4.24615 0.0406,-8.49258 -0.0408,-12.73827 -0.0542,-3.91112 -0.0332,-7.82852 -0.42975,-11.7257 -0.42188,-3.85235 -1.46728,-7.60002 -1.66311,-11.45778 -0.19685,-4.88856 -0.62319,-9.76079 -1.2154,-14.61768 -0.77588,-7.5853 -0.75809,-15.17917 -0.5458,-22.79939 0.18243,-8.94736 0.45602,-17.93403 2.46413,-26.69882 2.49259,-11.19734 5.71017,-22.15854 12.36752,-31.69081 3.31925,-4.40857 4.05613,-5.81152 8.20288,-9.57563 14.53245,-13.19144 33.18249,-21.34978 50.81827,-29.62282 16.33735,-5.417369 30.72078,-7.939699 48.01558,-6.456828 14.87703,0.809252 29.86934,1.948159 43.88058,7.471858 15.11008,5.87274 29.92088,12.51166 45.25446,17.81096 15.5925,5.40392 31.46857,9.90617 47.10492,15.18068 7.02579,2.32307 14.21356,5.69064 21.7501,5.20134 1.52744,-0.16853 2.79342,-0.22709 4.25483,-0.65379 1.98276,-0.57893 4.12146,-2.00446 3.05982,-1.37565 -27.16311,16.08846 -31.4186,18.78232 -22.05613,12.90721 4.38297,-4.09871 6.9727,-9.71301 11.33644,-13.87257 0.66057,-0.72092 3.19,-3.51756 3.94054,-4.19583 9.88562,-8.93384 22.75021,-14.01923 34.49651,-20.23153 6.26477,-2.89156 12.73959,-4.81845 19.62625,-5.55237 6.60568,-0.95624 13.24887,-1.5179 19.93054,-1.25829 8.6907,0.0382 17.38149,0.0194 26.07213,0.071 8.77163,0.13158 17.55045,0.40772 26.25589,1.58873 11.99818,1.53192 23.89605,3.77694 35.95721,4.82013 10.50676,1.48643 20.88875,3.66231 31.35763,5.38963 0,0 -24.64875,17.00173 -24.64875,17.00173 z"
       inkscape:connector-curvature="0" />
    <path
       style="fill:#000000;stroke:#000000"
       id="path4203"
       d="m -377.87746,113.01316 c 7.74733,3.19037 14.02086,8.79104 20.52564,13.91652 5.91338,5.13214 12.64691,6.83752 20.29778,6.99817 1.44811,-0.23985 2.92684,-0.33839 4.34433,-0.71955 9.99838,-2.68855 20.94315,-9.25566 29.90402,-14.36225 -5.89169,3.37807 -11.76692,6.78501 -17.67507,10.13421 -2.66171,1.50886 5.30997,-3.04208 7.9355,-4.61307 2.98747,-1.78756 5.93228,-3.64547 8.90229,-5.4619 17.49019,-10.69679 35.30919,-20.366367 53.29182,-30.337007 16.53188,-7.765457 34.33336,-11.642829 52.34384,-13.931408 7.16134,-0.809025 14.31378,-1.445398 21.16118,1.324556 3.33823,1.350403 9.29677,4.81964 12.31191,6.504206 7.3269,4.843611 15.56779,9.190133 20.51819,16.751067 2.46489,3.764716 3.78615,7.587166 5.47148,11.720736 5.21536,16.22935 9.20242,32.88162 12.60564,49.58085 3.83242,19.40598 4.48019,39.20216 5.16982,58.90911 0.43453,15.25312 0.8293,30.50116 -0.36789,45.72342 -1.18945,15.47665 -3.93647,30.76197 -5.61272,46.18404 -1.35194,14.90707 -3.11131,29.74803 -5.6158,44.50609 -1.81391,11.35577 -4.12164,22.61328 -6.59636,33.83942 -3.22174,12.30113 -6.09541,24.67015 -8.63591,37.13022 -2.30185,10.85156 -3.61918,21.8635 -5.09788,32.8457 -1.01217,7.48214 -2.93887,14.72915 -5.01014,21.96819 -1.95657,6.95419 -2.38946,14.17466 -2.72237,21.35104 0.0648,7.26335 -0.55645,14.48223 -1.23646,21.70422 -0.76889,4.65047 -0.24918,9.24323 0.3853,13.86023 0.66557,5.28322 0.63501,10.61415 0.75351,15.92782 0.0592,6.41633 0.005,12.83279 0.0347,19.2493 0.0722,3.96379 0.005,7.92957 0.1036,11.89267 0,0 -26.7136,13.60931 -26.7136,13.60931 l 0,0 c 0.10164,-4.00081 0.0427,-8.00437 0.11935,-12.00586 0.0358,-6.39559 0.007,-12.79089 -0.0596,-19.18624 -0.0359,-5.18768 -0.15195,-10.38658 -0.73253,-15.5463 -0.61455,-4.85193 -1.39588,-9.66507 -0.5577,-14.55287 0.78746,-7.18464 1.74459,-14.35304 1.47153,-21.60262 0.18279,-7.36697 0.62493,-14.77483 2.36987,-21.96213 1.97334,-7.20035 4.20805,-14.27604 5.33099,-21.6885 1.65179,-11.12236 3.04532,-22.28605 5.56209,-33.26137 2.46735,-12.39201 4.73119,-24.83296 8.21661,-36.99191 2.51718,-11.22792 4.9468,-22.4655 6.85198,-33.81829 2.6776,-14.70828 4.75824,-29.49256 5.88466,-44.40812 1.50805,-15.42229 4.53436,-30.63491 5.60803,-46.10478 1.21096,-15.17536 0.97542,-30.38526 0.80122,-45.59953 -0.3861,-19.57596 -1.19632,-39.22004 -4.85893,-58.50462 -3.43266,-16.47484 -7.58493,-32.84163 -12.88486,-48.8196 -1.64433,-4.00623 -2.75737,-7.29977 -5.15386,-10.92771 -4.74383,-7.18147 -12.59483,-11.42514 -19.6573,-15.916626 -3.97174,-2.051921 -7.94947,-4.337466 -12.23423,-5.727313 -6.6228,-2.148234 -13.57379,-1.1484 -20.3422,-0.531562 -17.65894,2.242706 -35.0228,6.277453 -51.08986,14.204641 4.81798,-2.98656 9.84032,-5.66621 14.45394,-8.95968 3.06111,-2.185199 -6.54476,3.70874 -9.7815,5.62422 -3.14088,1.85876 -6.24697,3.77598 -9.34981,5.69758 -15.85415,9.81854 -31.84138,19.36882 -48.17928,28.39984 -9.21377,5.11391 -20.5624,11.95512 -31.04431,13.78575 -1.53897,0.26878 -3.11624,0.2273 -4.67436,0.34094 -8.44206,-0.69364 -14.86175,-2.80182 -21.29137,-8.52569 -6.24946,-4.97992 -12.45252,-10.43406 -20.29508,-12.67415 0,0 24.74016,-16.94341 24.74016,-16.94341 z"
       inkscape:connector-curvature="0" />
    <path
       style="fill:#000000;stroke:#000000"
       id="path4205"
       d="m -185.90102,600.89742 c -9.52795,0.60389 -19.0687,0.99112 -28.60901,1.33886 -11.62626,-0.33243 -23.06479,-2.60559 -34.55396,-4.21276 -20.8473,-2.99701 -41.78059,-5.331 -62.65842,-8.09069 -15.65204,-2.35271 -31.07717,-5.89097 -46.75956,-8.05671 -18.16407,-1.97668 -36.47703,-1.93329 -54.72591,-2.06558 -20.35554,-0.0466 -40.71097,0.0497 -61.06648,0.0821 -22.58649,-0.30452 -45.16032,-0.0436 -67.71853,1.13053 -21.87168,1.61947 -43.6284,4.49006 -65.4111,7.0005 -21.66364,2.65459 -42.92409,7.64767 -64.20398,12.36544 -12.49144,3.36875 -25.18969,5.79378 -37.83948,8.4539 -10.08274,2.20951 -20.3777,2.99024 -30.66416,3.43961 -9.31816,0.89393 -18.64899,1.57148 -27.99899,2.01122 -9.93922,0.29668 -19.88638,0.16921 -29.82949,0.23455 -7.16457,0.0924 -14.29958,0.35046 -21.41037,-0.61142 -5.54979,-0.41536 -10.82269,-1.61051 -16.11391,-3.29402 -6.70141,-1.85934 -13.42602,-3.51074 -20.07985,-5.54151 -5.4568,-1.84625 -10.64058,-3.96235 -15.24166,-7.44786 -3.63194,-2.32195 -5.48745,-6.15281 -7.96325,-9.48007 -3.90604,-5.92108 -6.11543,-12.65328 -7.63028,-19.52261 -2.0143,-11.44291 -0.5293,-23.01772 0.86727,-34.4347 1.31969,-11.19079 3.10275,-22.31259 5.01312,-33.41509 2.55753,-10.76237 3.63742,-21.78319 5.60286,-32.64946 1.5812,-8.31102 3.54156,-16.52763 6.40215,-24.49263 1.9806,-4.87812 4.22194,-9.64059 6.43595,-14.41488 0,0 26.98533,-12.29707 26.98533,-12.29707 l 0,0 c -2.21286,4.71358 -4.53629,9.37085 -6.54433,14.1791 -2.92227,7.91995 -5.34654,15.97614 -7.00526,24.26619 -2.23489,10.77976 -2.65873,21.85237 -5.45005,32.53158 -2.08562,11.08795 -3.84013,22.2292 -5.34813,33.4107 -1.45515,11.03139 -2.78582,22.25648 -0.86037,33.31912 1.34014,6.49851 3.27076,12.93036 7.39019,18.26479 2.16239,3.16857 3.93118,6.6029 7.28391,8.75463 4.44825,3.07943 9.5042,4.95098 14.60419,6.69288 6.61904,2.05066 13.38713,3.50997 20.01427,5.53798 5.25844,1.40706 10.57253,2.18055 15.97524,2.8101 6.92293,0.79483 13.8888,0.39403 20.84378,0.55788 9.96634,0.034 19.93399,-0.02 29.89319,-0.44199 9.3093,-0.4137 18.58799,-1.21307 27.87735,-1.93032 10.18704,-0.53412 20.35748,-1.50381 30.32639,-3.76739 12.41872,-2.58367 24.89144,-4.90418 37.20065,-7.99833 21.30554,-4.54879 42.57887,-9.41414 64.23385,-12.03493 21.75433,-2.52662 43.50124,-5.2854 65.36079,-6.73318 22.69158,-1.07843 45.39239,-1.30872 68.10806,-1.24421 20.28676,-0.0132 40.57354,-0.01 60.8601,0.0939 18.53712,0.10019 37.17199,-0.2396 55.61157,1.92608 15.5133,2.42999 30.81744,6.0026 46.3533,8.30766 20.86097,2.96374 41.78535,5.48652 62.70007,8.03662 11.61296,1.39694 23.23446,3.25947 34.9533,3.34904 9.61069,-0.25768 19.2417,-0.56753 28.78988,-1.76383 0,0 -24.00023,17.84627 -24.00023,17.84627 z"
       inkscape:connector-curvature="0" />
    <path
       style="fill:#000000;stroke:#000000"
       id="path4207"
       d="m -789.14193,263.24848 c -0.45864,-11.67013 -0.88523,-23.34205 -1.22588,-35.01737 -0.31748,-12.13403 -0.16745,-24.2633 -1.08765,-36.37131 -0.0283,-8.44983 -2.11311,-16.7619 -2.24541,-25.17849 0.21837,-1.08247 0.27312,-2.21131 0.65511,-3.24741 0.50532,-1.37056 2.22741,-4.16772 3.60157,-5.00324 18.5598,-11.28478 20.44188,-15.65773 35.34049,-17.39439 11.45875,-0.74324 20.09827,6.16078 29.53719,11.67221 12.31873,7.45633 25.37022,13.5565 37.97044,20.48754 16.79236,9.61963 35.39867,14.61018 54.08626,18.97829 21.10484,5.13254 42.68207,7.47174 64.32033,8.6933 15.92669,0.75598 31.87385,0.69103 47.81284,0.56684 4.67322,0.6423 12.66054,-1.73538 16.84966,1.15476 2.47549,1.70788 2.79062,3.76921 3.8447,6.41341 2.02262,10.04667 1.7613,20.35564 2.39997,30.54785 1.43959,14.55221 -1.73585,28.83638 -4.58375,43.00718 -1.60328,9.4294 -4.28206,18.56625 -8.1166,27.31619 -6.42395,15.05287 -23.77255,23.52835 -39.61583,25.60546 -8.67526,0.38535 -17.32813,0.81262 -25.98315,1.58375 -18.86502,1.42217 -37.7921,1.54673 -56.68212,2.45592 -15.34251,1.66529 -30.814,2.25821 -46.11726,4.23428 -13.36499,2.14853 -26.85306,3.04062 -40.3605,3.61578 -8.52978,-0.0872 -17.35893,1.48234 -25.80011,-0.44033 -1.41545,-0.3224 -2.76602,-0.88254 -4.14904,-1.32381 -8.39751,-3.19691 -12.78545,-10.69727 -16.19192,-18.53681 -2.96669,-8.34872 -6.18499,-16.70222 -10.7166,-24.33889 -4.37291,-6.19397 -7.87536,-12.87299 -10.65356,-19.91477 -2.39107,-5.75708 -4.66296,-11.55819 -6.829,-17.40334 -2.63552,-5.76084 -3.2634,-12.01758 -3.73741,-18.25114 0,0 26.37937,-13.6704 26.37937,-13.6704 l 0,0 c 0.36743,5.96338 0.93674,11.93607 3.34644,17.48286 2.21032,5.82446 4.43259,11.64065 6.78988,17.40757 2.55782,6.97394 6.08246,13.44733 10.33428,19.54064 4.45389,7.80176 7.71955,16.26974 10.85273,24.6722 3.0498,7.17169 6.96008,13.79509 14.81047,16.31924 9.50705,2.41681 19.30766,1.46834 29.02602,1.25422 13.46287,-0.60275 26.87768,-1.77565 40.21073,-3.78123 15.22563,-1.70818 30.56216,-2.41211 45.82427,-3.74788 19.05316,-0.78694 38.15562,-0.91751 57.13573,-2.96432 8.73592,-0.85335 17.50392,-1.11535 26.21882,-2.08279 10.72422,-2.55136 22.92315,-11.57269 -16.82401,11.66382 -0.80835,0.47257 1.63045,-0.95159 2.31674,-1.58857 0.73737,-0.68439 1.3689,-1.48846 1.91133,-2.33571 0.63948,-0.99885 1.07607,-2.1139 1.6141,-3.17085 4.0672,-8.61621 6.99713,-17.6028 8.86412,-26.96315 3.10115,-13.85347 6.33494,-27.84597 4.63395,-42.14203 -0.63216,-9.87188 -0.37913,-19.85788 -2.21959,-29.60224 -0.34987,-0.90928 -0.53283,-1.90192 -1.04961,-2.72784 -2.38813,-3.81673 -13.63245,-1.55684 -17.31705,-2.1515 -15.83394,-0.0998 -31.68069,-0.16025 -47.49473,-1.02721 -21.60243,-1.54958 -43.10758,-4.21087 -64.18378,-9.36204 -7.57342,-1.75919 -15.49314,-3.47279 -22.95646,-5.69453 -11.21121,-3.33744 -22.01489,-8.02931 -32.41195,-13.35084 -12.64339,-6.79856 -25.3243,-13.51502 -37.76427,-20.68472 -9.11688,-5.02985 -18.11239,-11.271 -29.0029,-9.62316 -1.23192,0.26308 -2.48505,0.44137 -3.69576,0.78924 -1.04704,0.30084 -3.97992,1.73289 -3.05865,1.15146 7.44979,-4.70165 15.12931,-9.02903 22.69396,-13.54355 -1.07767,0.75016 -3.55592,2.33325 -4.33057,3.44845 -0.52955,0.76234 -0.68499,1.72543 -1.02749,2.58815 -0.6153,8.34276 2.07195,16.67707 1.84626,25.06294 0.78229,12.20761 0.53856,24.42814 0.81196,36.65411 0.28938,11.57258 0.63394,23.17241 2.08245,34.66919 0,0 -26.68956,13.59901 -26.68956,13.59901 z"
       inkscape:connector-curvature="0" />
    <path
       style="fill:#000000;stroke:#000000"
       id="path4209"
       d="m -441.36037,218.91179 c -1.59127,20.76348 -1.97594,41.59346 -2.13919,62.40932 -0.0406,11.81973 0.0208,23.63947 0.033,35.45925 0.003,1.47237 0.006,2.94475 0.009,4.41713 0,0 -26.28869,13.39101 -26.28869,13.39101 l 0,0 c 0.006,-1.47861 0.0124,-2.95723 0.0186,-4.43585 0.0746,-11.98019 0.35657,-23.95487 0.78207,-35.92808 0.63584,-20.61079 1.27253,-41.2301 1.16914,-61.85288 0,0 26.41655,-13.4599 26.41655,-13.4599 z"
       inkscape:connector-curvature="0" />
    <path
       style="fill:#000000;stroke:#000000"
       id="path4211"
       d="m -438.72218,332.39855 c 16.67403,1.61374 33.23185,4.24504 49.86176,6.27778 17.662,2.52498 35.34378,4.70477 53.16367,5.63847 14.05657,0.5815 28.12682,0.57263 42.19196,0.47507 10.01155,0.0312 20.03571,-0.34996 30.03441,0.22412 11.147,1.52517 22.16879,3.63068 33.17909,5.90584 5.119,1.09793 10.32654,1.57319 15.55002,1.71924 4.54227,0.39998 8.92904,-0.25145 13.37063,-1.10425 9.28893,-4.16337 22.99102,-11.29756 -20.5267,11.88576 -0.62485,0.33288 1.03986,-0.975 1.44968,-1.55232 1.05565,-1.48714 1.30535,-2.69969 1.87619,-4.4194 2.32223,-8.78679 3.59571,-17.76163 4.4497,-26.79441 1.11203,-13.63067 2.43355,-27.24028 3.6346,-40.86285 1.29807,-13.59939 1.15654,-27.26882 1.74657,-40.90187 0.17876,-12.29144 2.67065,-24.34437 4.1716,-36.5006 1.03612,-9.64571 1.33976,-19.34962 1.45309,-29.0439 -0.23414,-4.08772 -0.4229,-10.33382 -4.68093,-12.59354 -0.84227,-0.44699 -1.80082,-0.62766 -2.70123,-0.94149 -1.37654,-0.24459 -2.73165,-0.71497 -4.12962,-0.73378 -9.16433,-0.12331 -20.70525,4.63527 -29.27168,7.74662 -14.07444,4.52384 -28.3974,8.1543 -42.82077,11.37064 -15.7382,3.11282 -31.48855,6.21465 -47.31006,8.87698 -13.3008,2.63393 -26.64534,4.917 -40.12881,6.37082 -8.85864,0.76805 -17.66033,2.00661 -26.53537,2.61741 -9.32005,0.14736 -18.59974,0.43886 -27.84767,1.67033 -8.66854,2.07858 -17.00808,5.27189 -25.67919,7.32877 -0.26306,0.0779 -5.39676,1.57545 -5.9034,1.80359 -0.78017,0.35131 -2.93187,1.76479 -2.18668,1.34434 42.49913,-23.97882 27.12957,-17.78751 20.15725,-10.39412 -2.96578,4.20623 -3.03101,9.43225 -3.19169,14.38673 -0.0888,4.36845 -0.0798,8.73745 -0.0443,13.10634 0,0 -26.55982,13.5531 -26.55982,13.5531 l 0,0 c -0.0174,-4.40518 -0.11068,-8.81138 -0.0121,-13.21589 0.20648,-5.42276 0.0881,-10.97189 2.33591,-16.03121 8.19585,-12.87933 24.58816,-18.68143 38.95501,-22.56109 8.58081,-2.26063 16.94794,-5.34506 25.70724,-6.88795 9.3489,-1.01514 18.71992,-1.24501 28.10674,-1.68782 8.75032,-0.67233 17.45318,-1.79226 26.2005,-2.49772 13.36767,-1.44838 26.57569,-3.81533 39.7787,-6.33603 15.64942,-2.74237 31.29304,-5.5459 46.85916,-8.73059 14.57098,-3.39459 28.98248,-7.39983 43.19635,-12.07779 9.52889,-3.25109 20.12482,-7.56689 30.40902,-6.59085 1.58767,0.15069 3.10137,0.74504 4.65205,1.11756 1.10971,0.56998 2.31174,0.98798 3.32914,1.70996 4.5979,3.26279 5.47509,9.75171 5.70058,14.8891 -0.21565,9.83742 -0.6675,19.66934 -1.64987,29.46423 -1.30046,12.1651 -4.14155,24.12622 -4.41596,36.39623 -0.64214,13.65228 -0.47411,27.34072 -1.59134,40.97179 -1.27009,13.61427 -2.76508,27.20553 -3.69391,40.85052 -0.55446,9.08523 -1.4941,18.08509 -3.58078,26.96322 -0.25775,1.25101 -1.38216,6.84525 -2.49614,7.57838 -9.08908,5.98165 -19.46958,15.01023 -31.12478,17.34893 -4.56539,0.67287 -9.13928,0.91511 -13.7527,0.59219 -5.24247,-0.32677 -10.43963,-1.11675 -15.55102,-2.33754 -10.79634,-2.49257 -21.65007,-4.7377 -32.72326,-5.61594 -9.96381,-0.33711 -19.93277,-0.0337 -29.90065,-0.15881 -13.9734,-0.1246 -27.9531,-0.20129 -41.91358,-0.86992 -17.68459,-1.01843 -35.14756,-3.54775 -52.65127,-6.23126 -17.01815,-2.02265 -34.05461,-4.57891 -51.21437,-4.87864 0,0 24.26903,-17.63248 24.26903,-17.63248 z"
       inkscape:connector-curvature="0" />
    <path
       style="fill:#000000;stroke:#000000"
       id="path4213"
       d="m -437.16375,303.77211 c -0.1087,6.91124 -0.66909,13.89358 0.57277,20.72666 0.46335,3.12965 2.22522,4.91479 4.52391,6.83831 0,0 -25.39205,15.78024 -25.39205,15.78024 l 0,0 c -2.6349,-2.42822 -4.83822,-4.93469 -5.37214,-8.63705 -1.31543,-6.97835 -0.75444,-14.02437 -1.06106,-21.08928 0,0 26.72857,-13.61888 26.72857,-13.61888 z"
       inkscape:connector-curvature="0" />
    <path
       style="fill:#000000;stroke:#000000"
       id="path4215"
       d="m -699.11758,257.66013 c 15.28011,2.20705 30.67511,3.6886 46.06395,4.94117 10.74095,1.14307 21.47884,2.3166 32.26496,2.93559 5.47735,0.17659 10.88145,0.10237 16.28936,1.0119 3.90127,0.80248 7.88647,1.00969 11.85653,1.14627 3.4068,-0.0264 7.48523,0.86808 10.19438,-1.66261 -8.3851,4.96373 -16.91068,9.69748 -25.1553,14.89121 -0.24842,0.15649 0.42731,0.84272 0.13501,0.8704 -0.93057,0.0881 -8.77122,-3.71933 -9.90647,-4.26235 -4.76211,-2.30899 -9.43353,-4.59811 -14.63408,-5.70534 -5.82256,-0.51289 -11.57037,-1.54696 -17.39607,-2.06226 -10.8834,-0.83855 -21.8087,-0.41723 -32.69775,-1.02981 -6.7272,-0.14483 -13.19456,-2.09986 -19.82069,-3.01404 -4.30271,-0.50927 -8.55307,-0.094 -12.60521,-1.77614 -1.93239,-0.639 -4.03664,-4.76089 -1.61974,-6.18174 26.38929,-15.5137 17.45095,-14.30828 30.63899,-15.51722 6.10477,-0.59537 12.23841,-0.70636 18.36714,-0.72241 5.495,-0.0371 10.98966,-0.004 16.48465,9e-5 6.30543,-0.21048 12.5605,0.175 18.83279,0.75943 7.66986,0.42325 15.27201,1.27483 22.88631,2.25292 4.52505,0.42311 8.86773,1.67816 13.01297,3.46672 2.04439,0.65308 3.9125,1.81917 5.71691,2.96947 0,0 -25.18963,16.30849 -25.18963,16.30849 l 0,0 c -1.77695,-0.98143 -3.55794,-1.96017 -5.48492,-2.62462 -3.92906,-1.6164 -8.12064,-2.42564 -12.32185,-2.97887 -7.54028,-1.05416 -15.1042,-1.67986 -22.69882,-2.20723 -6.29367,-0.47476 -12.57738,-0.46311 -18.88592,-0.42117 -5.46745,-0.0196 -10.93488,-0.0345 -16.40229,-0.0181 -6.04948,0.0957 -12.13057,0.17007 -18.1182,1.13005 -11.95395,3.03459 -0.8112,0.47507 21.15802,-13.30744 0.42289,-0.2653 -0.99989,-3.1e-4 -1.49693,-0.0469 -0.38846,-0.0364 -1.49371,-0.36789 -1.15826,-0.16865 0.33758,0.20051 0.71481,0.32514 1.07221,0.48772 4.00427,0.95159 8.19659,0.59126 12.23488,1.42369 6.39813,1.11696 12.68865,2.94693 19.23291,3.05776 11.00005,0.52849 22.02553,0.26945 33.02165,0.94213 5.96897,0.57107 11.9313,1.3996 17.85068,2.30737 5.187,1.50087 9.93948,3.96229 14.80888,6.25935 19.99166,8.94628 16.5447,5.27827 -13.34442,23.69812 -3.65245,0.72289 -7.34568,0.56258 -11.05017,0.37627 -4.01192,-0.27103 -8.01773,-0.63596 -11.96537,-1.43468 -5.29488,-0.71153 -10.64896,-0.46776 -15.96689,-0.95439 -10.57656,-0.92294 -21.09979,-2.32428 -31.65811,-3.42407 -15.58319,-1.46072 -31.13009,-3.49886 -46.77971,-4.10937 0,0 24.23362,-17.60675 24.23362,-17.60675 z"
       inkscape:connector-curvature="0" />
    <path
       style="fill:#000000;stroke:#000000"
       id="path4217"
       d="m -366.05554,264.77822 c 28.78187,6.18733 58.05237,9.89008 87.25032,13.50846 14.02571,1.26216 27.94795,3.36143 41.922,5.04411 1.72956,-0.0351 3.18725,0.19531 4.75032,-0.67493 0.49314,-0.27456 1.72413,-1.43707 1.23079,-1.16287 -8.27527,4.59949 -16.39252,9.47798 -24.61982,14.16274 -0.26986,0.15366 0.58398,-0.29715 0.74042,-0.5654 0.0604,-0.10359 -0.1842,-0.15361 -0.2763,-0.23041 -7.6491,-3.87696 -15.76768,-6.54952 -24.14511,-8.28708 -5.95435,-0.64147 -11.7912,-2.02641 -17.741,-2.68412 -9.49162,-2.17999 -19.09135,-3.75202 -28.66243,-5.53022 -8.53157,-1.35491 -16.9587,-3.23888 -25.53057,-4.33232 -5.30794,-0.97666 -10.61366,-1.79131 -15.52433,-4.11042 -3.97977,-2.67108 -8.00559,-5.29259 -11.82846,-8.19205 -0.46097,-0.94578 -2.09957,-3.38356 -0.33799,-4.4401 27.06296,-16.23147 22.44974,-14.98293 43.63447,-15.52613 8.87451,-0.8036 17.48554,0.3754 26.14034,2.14133 5.38229,0.7434 10.64756,2.10015 16.00328,2.99813 4.89182,0.28019 9.56288,1.74397 14.32056,2.77592 8.06415,1.95834 16.02303,4.32197 24.10607,6.20707 3.45096,0.9309 7.02503,1.04449 10.44899,2.03801 0,0 -24.66279,16.9842 -24.66279,16.9842 l 0,0 c -3.38265,-0.74914 -6.82522,-1.22182 -10.15763,-2.19773 -8.03636,-2.07819 -16.01759,-4.40153 -24.15282,-6.07385 -4.78008,-1.03231 -9.55519,-1.99541 -14.40999,-2.60691 -5.29514,-1.07977 -10.5723,-2.22115 -15.89618,-3.14906 -8.40345,-1.77639 -16.82436,-2.46047 -25.42374,-1.79177 -3.3796,0.13327 -7.02473,0.2231 -10.39594,0.56604 -1.4821,0.15076 -5.63937,1.47799 -4.42715,0.61203 1.41733,-1.01248 32.89094,-11.14373 20.7286,-14.81336 -0.11947,-0.036 -0.14037,0.20638 -0.21055,0.30957 3.60138,2.8018 7.4503,5.35968 11.43746,7.56629 4.76975,1.85727 9.78941,2.76729 14.82389,3.61884 8.48933,1.2967 16.87685,3.14008 25.33317,4.63053 9.63767,1.78813 19.29766,3.49664 28.96565,5.10062 5.93661,0.81604 11.8158,2.05996 17.72245,3.05912 8.91596,2.20298 17.90223,5.10529 25.7361,9.97065 0.51701,0.84633 1.24743,1.59486 1.55102,2.539 0.21269,0.66143 0.5112,1.69463 -0.0647,2.08335 -13.55043,9.14683 -19.87702,17.56652 -33.43196,16.10452 -13.43053,-2.08862 -26.80747,-4.5308 -40.30789,-6.1732 -29.63235,-4.32038 -59.29369,-8.41376 -88.95294,-12.53622 0,0 24.31435,-16.94238 24.31435,-16.94238 z"
       inkscape:connector-curvature="0" />
    <path
       style="fill:#000000;stroke:#000000"
       id="path4219"
       d="m -768.55229,607.57267 c -1.00378,11.23235 0.76167,22.31676 2.25231,33.40603 1.40594,15.54245 3.64725,30.97059 6.03569,46.38392 3.34452,15.84851 4.09124,31.99845 4.75261,48.12843 0.59251,14.83156 0.68199,29.67438 0.87187,44.5143 0.20136,10.98045 -0.0547,21.9599 -0.0776,32.94038 0.0918,11.65284 -0.0474,23.30629 0.075,34.95876 0.0694,8.50653 0.0764,17.01342 0.12875,25.52003 0.44045,8.74718 1.14003,17.47804 1.58159,26.22539 0.0819,9.24024 0.4072,18.43551 1.26646,27.63794 0.82048,7.18876 1.30621,14.30074 -0.37218,21.38248 -2.10682,7.66576 -6.67419,13.92712 -11.60974,19.9974 -10.90055,12.20604 -26.26847,20.77654 -42.28541,24.15432 -9.56211,1.38033 -19.26638,1.36989 -28.90893,1.51134 -7.92621,0.13707 -15.8535,0.11367 -23.78045,0.0924 -7.73403,0.0486 -15.46733,-0.0204 -23.20063,-0.12032 -13.30266,0.14548 -26.57091,-0.10925 -39.85591,-0.75016 -14.49631,-0.53876 -28.76291,-2.922 -43.06337,-5.13198 -8.66404,-1.48024 -17.43516,-1.91128 -26.20577,-2.09617 -3.90358,0.13176 -7.78766,-0.32094 -11.66046,-0.73466 -0.9828,-0.10499 -2.0032,-0.037 -2.9465,-0.33209 -1.8966,-0.59327 -3.166,-1.92152 -4.6174,-3.15886 -3.9083,-4.30157 -4.7479,-10.06754 -4.8701,-15.66844 0.4301,-3.79492 2.4555,-7.17948 5.7999,-9.1619 27.43811,-16.26431 17.76455,-13.38686 31.20725,-16.97681 10.03834,-1.49201 20.21438,-1.52672 30.34002,-1.66126 8.22729,-0.11557 16.45554,-0.0885 24.68336,-0.0662 8.72185,-0.004 17.4431,0.0732 26.16456,0.14025 10.18376,0.0776 20.36705,-0.0699 30.5504,-0.0988 7.72646,0.29014 15.39545,-0.44729 23.09273,-0.96105 7.38319,-0.31383 14.75307,-0.93933 21.74936,-3.41961 11.74246,-3.56634 33.40506,-17.28198 -11.57463,8.16251 4.56017,-4.69201 5.90981,-10.98413 6.84041,-17.23076 1.02563,-9.6759 0.95957,-19.42621 1.05757,-29.14407 0.17826,-13.26247 0.0784,-26.52541 -0.0576,-39.78754 -0.087,-10.54524 -0.0523,-21.09134 -0.0304,-31.63689 0.0513,-10.73922 -0.009,-21.47835 -0.0566,-32.21744 -0.0881,-11.00419 0.22884,-22.00411 -0.0598,-33.00554 -0.59197,-13.26078 -1.2635,-26.51624 -1.62103,-39.78623 -0.26167,-11.69748 -1.13598,-23.38524 -2.37654,-35.01772 -1.53299,-14.05312 -3.68288,-28.03084 -6.03264,-41.96775 -2.25318,-11.66996 -3.19375,-23.4734 -3.67282,-35.32616 -0.19737,-4.42102 -0.33179,-8.84442 -0.48575,-13.26707 0,0 26.40385,-13.49678 26.40385,-13.49678 l 0,0 c -0.0376,4.46486 -0.0415,8.92986 0.0732,13.39398 0.43222,11.74259 1.33809,23.46663 3.39935,35.05026 2.32536,13.99433 4.29012,28.04793 6.02727,42.12684 1.52868,11.66336 2.59237,23.40848 2.66685,35.17939 0.2572,13.28027 0.70427,26.55532 1.48162,39.81647 0.49642,10.97096 0.43923,21.95612 0.4231,32.93717 -0.0483,10.75809 -0.10883,21.51622 -0.0561,32.27444 0.0244,10.54928 0.062,21.09893 0.001,31.64804 -0.10133,13.26993 -0.14949,26.54009 0.0349,39.80976 0.0604,9.77419 0.1917,19.57302 -0.5847,29.32451 -0.74997,6.7631 -1.92544,13.22249 -5.73259,19.02244 -13.92345,8.51229 -24.58639,17.12048 -39.58378,21.32033 -7.1795,1.89093 -14.5408,2.38953 -21.9393,2.72555 -7.76988,0.61368 -15.52886,1.18405 -23.33137,0.86952 -10.09131,-0.0285 -20.18256,-0.17691 -30.27429,-0.10309 -8.82438,0.0607 -17.6486,0.13285 -26.47327,0.0737 -8.14165,-0.0293 -16.28333,-0.0983 -24.42505,-0.0587 -10.04479,0.15044 -20.29087,0.0743 -30.07219,2.62973 -11.1134,4.7295 -3.7479,1.74285 19.9671,-12.17031 0.80166,-0.47031 -1.63353,0.89086 -2.41344,1.39642 -1.2337,0.79973 -2.76596,1.93613 -3.61602,3.18138 -0.40921,0.59945 -0.60532,1.31937 -0.90799,1.97906 -0.25289,4.63004 0.25276,9.73268 3.56378,13.2578 5.06394,3.55784 12.01021,2.35809 17.8804,2.84522 8.79161,0.29381 17.57449,0.80497 26.21782,2.57327 14.09719,2.42687 28.21925,4.66694 42.55443,5.06824 13.37091,0.49336 26.74441,0.53735 40.12363,0.40499 7.82267,-0.0928 15.64536,-0.15718 23.46847,-0.0676 7.851,0.0126 15.70218,0.0537 23.55309,0.009 9.60144,-0.15591 19.31107,-0.18708 28.74212,-2.20311 11.62335,-3.17512 19.57842,-10.22058 -16.19062,11.40915 -0.84962,0.51377 1.84712,-0.76562 2.66847,-1.32346 0.95242,-0.64687 4.36378,-4.04531 5.02261,-4.6863 4.92336,-5.71994 9.64923,-11.47463 11.95481,-18.78627 2.25593,-6.72349 1.71553,-13.53264 1.01845,-20.51033 -0.6996,-9.24061 -1.22321,-18.47483 -1.31246,-27.7447 -0.34802,-8.78275 -0.93345,-17.54654 -1.72708,-26.30048 0.052,-8.5505 0.0588,-17.10127 0.12899,-25.65168 0.12331,-11.68268 -0.0116,-23.36641 0.098,-35.04939 -0.004,-10.96523 -0.22116,-21.92987 -1.8e-4,-32.89463 0.15847,-14.89489 0.13295,-29.79532 -0.28638,-44.68598 -0.63813,-15.99184 -1.76002,-31.96328 -4.89192,-47.69242 -2.34308,-15.41962 -4.39878,-30.863 -6.13191,-46.3655 -1.69079,-11.09274 -3.49041,-22.13419 -3.16189,-33.40697 0,0 26.61156,-13.55927 26.61156,-13.55927 z"
       inkscape:connector-curvature="0" />
    <path
       style="fill:#000000;stroke:#000000"
       id="path4221"
       d="m -586.23968,582.04543 c 3.02096,8.5954 3.98711,17.72117 5.10968,26.71218 1.39706,11.91205 3.33609,23.74612 5.15349,35.59897 0.88063,9.90208 4.80859,18.98934 8.37955,28.1299 2.68339,9.21833 4.42108,18.71457 6.43777,28.11219 2.39855,8.50793 3.50011,17.27138 5.09726,25.94608 1.72387,9.40594 2.71695,18.92547 3.78542,28.42254 0.59478,9.59259 1.98735,19.10277 2.8012,28.67479 0.64599,9.62545 1.19118,19.25335 0.22141,28.86674 -0.36591,7.8231 -3.9938,14.49051 -7.34478,21.33899 -3.10076,6.52687 -7.39821,12.3728 -11.38063,18.3716 -3.91437,5.73274 -6.21889,12.32626 -8.54217,18.81195 -2.15536,6.62637 -4.79339,13.10128 -8.2572,19.15211 -2.55223,4.23694 -5.96378,7.78733 -9.16806,11.50931 -2.97176,3.39144 -5.87155,6.8439 -8.80684,10.2664 -2.66163,3.70328 -5.29334,7.28663 -8.61794,10.43028 -8.85454,8.19252 -20.22254,12.53697 -30.80708,18.50319 -1.90693,1.07488 -3.94803,1.58659 -6.06357,2.04085 -8.12055,0.92633 -16.31918,0.85212 -24.48095,0.89122 -7.99515,0.38386 -16.08861,-0.50419 -24.04559,0.47209 -4.14242,0.54532 -8.252,1.39328 -12.43097,1.59663 -5.2241,0.63202 -9.79155,2.76121 -14.58791,4.80798 -2.76629,0.99009 -4.63263,1.55498 -7.24314,2.88446 -0.99253,0.50548 -3.85052,2.24089 -2.87786,1.69814 37.24272,-20.78178 26.52658,-17.81458 19.44889,-9.06517 -2.14027,3.632 -4.05489,5.92123 -1.67705,9.83574 3.08755,4.05486 6.43092,7.89235 10.16428,11.36282 3.50164,3.2653 7.34529,4.65815 12.00041,5.16008 6.63214,0.51529 13.29252,0.43394 19.93939,0.42342 8.1284,-0.0865 16.25679,-2.8e-4 24.38505,0.0527 11.24629,-0.17333 22.54191,0.47928 33.76553,-0.37927 6.83593,-0.49105 13.57169,-1.49443 20.31405,-2.68109 5.48902,-1.24271 10.77781,-3.0447 16.06652,-4.94755 1.47725,-0.78909 3.21558,-0.71493 4.74894,-1.30014 0.72732,-0.27759 2.73135,-1.49531 2.05403,-1.11153 -39.93854,22.63009 -27.83035,16.77411 -19.28958,10.10761 4.3555,-3.94794 7.36328,-9.13469 10.19087,-14.22704 3.20307,-6.2517 5.50698,-12.90441 8.12682,-19.40893 2.45198,-6.49087 5.18941,-12.8675 7.82535,-19.28491 3.84815,-9.35818 8.52243,-18.26907 14.27095,-26.58918 6.59149,-8.77943 13.45692,-17.38686 19.27278,-26.7112 3.67039,-5.89379 6.85118,-11.99091 9.29066,-18.48836 1.9637,-6.46424 4.00421,-12.87488 5.2629,-19.5194 1.37173,-9.09182 1.48902,-18.30922 1.54973,-27.48505 0.0721,-9.52851 0.0462,-19.05743 0.0913,-28.58603 -0.0358,-10.39836 -0.0344,-20.79691 -0.0162,-31.19533 -0.0425,-10.84238 0.0313,-21.68461 0.0172,-32.52696 -0.0665,-7.15673 0.31914,-14.33306 -0.9605,-21.41522 -0.71142,-3.93731 -1.62058,-6.79414 -2.70828,-10.64449 -3.10415,-12.83008 -8.54287,-24.79971 -13.53083,-36.94994 -4.3957,-10.26802 -8.58864,-20.61876 -12.57058,-31.05359 -2.6172,-5.93711 -4.40908,-12.12586 -6.13389,-18.35692 -0.88019,-3.45153 -2.39021,-6.64746 -3.9214,-9.84041 0,0 26.04768,-14.76416 26.04768,-14.76416 l 0,0 c 1.58682,3.35998 3.20724,6.71643 4.0633,10.35905 1.69834,6.16641 3.23631,12.3571 5.73569,18.27821 3.82743,10.48182 7.68285,20.95438 12.19722,31.16702 4.92097,12.26947 10.48249,24.29289 13.82263,37.14136 3.22906,11.0534 4.88076,21.20613 4.05808,32.78094 -0.0142,10.83571 0.059,21.67131 0.0203,32.50706 0.0233,10.39566 0.0326,20.79138 0.0256,31.18704 0.0701,9.51792 0.11339,19.03659 0.0571,28.55469 -0.16244,9.28949 -0.16503,18.6146 -1.26358,27.85244 -1.0059,6.8123 -2.99597,13.30249 -4.90103,19.9045 -2.2195,6.82166 -5.45505,13.11225 -9.30014,19.16672 -5.6023,9.56093 -12.71502,18.13464 -19.34659,26.98824 -5.87521,7.9619 -10.48684,16.64905 -14.24782,25.80381 -2.50541,6.46579 -5.37846,12.78019 -7.74901,19.29542 -2.78409,6.49756 -4.99294,13.23864 -8.02761,19.63262 -2.60135,5.43436 -5.84154,10.56656 -9.57842,15.29723 -11.33129,9.60225 -24.36632,17.72655 -38.69594,21.77917 -5.33714,1.8836 -10.78782,3.44595 -16.35275,4.50351 -6.7279,1.06434 -13.47592,1.92921 -20.28746,2.25118 -11.22385,0.36867 -22.46118,-0.12049 -33.68912,0.12879 -8.23018,0.0711 -16.46021,0.19333 -24.69091,0.16661 -6.76956,-0.006 -13.57157,0.0893 -20.30553,-0.6985 -5.09315,-0.93368 -9.27159,-3.08186 -13.06154,-6.67215 -3.79464,-3.76282 -7.34547,-7.74327 -10.60046,-11.98538 -3.33241,-5.36757 -2.46427,-7.53751 0.18646,-12.99227 8.81516,-14.05678 26.50151,-19.48338 41.28252,-25.75556 4.97834,-2.10065 10.02173,-3.86406 15.45744,-4.27191 4.08748,-0.47163 8.15779,-1.08461 12.25526,-1.46654 7.9375,-0.33159 15.89558,0.1768 23.8383,-0.0614 8.14375,-0.13603 16.45409,0.0212 24.42655,-1.84107 2.31663,-0.83949 1.78844,-0.58777 3.93542,-1.5905 0.61801,-0.28864 2.42994,-1.23668 1.84296,-0.88925 -42.64247,25.24 -28.62466,17.48073 -20.21333,11.53993 1.74443,-1.68336 3.79191,-3.10537 5.31557,-5.00327 0.97682,-1.21672 1.40459,-2.27211 2.26684,-3.55239 0.35198,-0.52263 0.75691,-1.00758 1.13537,-1.51136 2.76544,-3.57409 5.85006,-6.88225 8.79003,-10.32151 3.13716,-3.76956 6.65302,-7.16155 9.48669,-11.18393 3.88821,-5.66853 6.46092,-12.11227 8.62374,-18.60742 2.3418,-6.6286 4.42272,-13.53028 8.27072,-19.46064 3.85087,-5.9801 8.18279,-11.65165 11.44625,-17.98889 3.22333,-6.68191 7.42503,-12.915 7.97194,-20.54523 1.31107,-9.41031 0.69189,-18.89072 0.0766,-28.34491 -0.80601,-9.54005 -2.07931,-19.03016 -2.7775,-28.57982 -1.15443,-9.43768 -1.84648,-18.93381 -3.58334,-28.29205 -1.69735,-8.62565 -3.01682,-17.31238 -5.18363,-25.83906 -0.93782,-4.59424 -2.13999,-9.14454 -3.02787,-13.7461 -0.90384,-4.68433 -1.3517,-9.4832 -3.16733,-13.95478 -3.56906,-9.36475 -7.67457,-18.64465 -8.53173,-28.76613 -1.84887,-11.87361 -3.43165,-23.78732 -5.14508,-35.68068 -1.18011,-8.63413 -2.07334,-17.51287 -5.34889,-25.65546 0,0 26.13189,-14.67645 26.13189,-14.67645 z"
       inkscape:connector-curvature="0" />
    <path
       style="fill:#000000;stroke:#000000"
       id="path4227"
       d="m -763.87165,492.8326 c 5.6849,-6.08309 10.6598,-12.77497 16.18592,-18.99387 4.25848,-5.12237 9.65016,-9.04412 15.14277,-12.7309 15.48231,-10.51985 29.89559,-20.25403 48.12471,-22.92989 7.59286,-0.90734 15.26213,-0.68833 22.89352,-0.69004 8.12391,0.0265 16.24756,0.0737 24.37155,0.0601 7.56762,-0.0129 15.1352,0.0361 22.70278,0.0281 8.0061,-0.0301 16.01212,0.01 24.01821,0.0218 8.88777,0.15321 17.75873,-1.33805 26.43446,-3.16375 9.9518,-2.07691 20.1816,-2.34815 30.31269,-2.58557 13.95555,-0.13816 27.91196,-0.18641 41.86803,-0.2563 11.40028,-0.25592 22.76147,0.0366 34.13922,0.69955 13.33152,0.77148 26.68372,1.05181 40.03415,1.22848 13.37565,-0.11193 26.74428,-0.89501 40.12159,-1.24982 15.61186,-0.16654 31.19855,-0.74866 46.79081,-1.51895 13.89705,-1.21746 27.80528,-2.19765 41.74313,-2.78298 8.30417,-0.10812 16.54786,-1.25592 24.79043,-2.17547 4.09825,-0.2933 8.21105,-0.50164 12.32076,-0.46852 4.28647,0.0192 8.573,0.0217 12.85951,0.0244 7.10208,-0.22235 8.5239,0.33345 13.0048,6.07086 4.1471,7.06934 5.55415,15.22187 6.45208,23.25482 0.4802,6.57225 0.78043,13.17712 0.34753,19.75702 -0.60802,5.97224 -2.17934,11.38826 -6.28524,15.83881 -15.54191,13.65144 -32.72027,20.40065 -52.1647,23.50263 -13.40531,1.69115 -26.95466,1.57126 -40.442,1.67737 -13.98566,0.12002 -27.97203,0.0635 -41.95712,-0.0875 -24.26459,-0.35269 -48.53021,-0.32065 -72.79592,-0.16119 -16.18106,0.28345 -32.34496,-0.7856 -48.51234,-1.31052 -13.29029,-0.35511 -26.54417,-1.45289 -39.8306,-1.97693 -14.86953,-0.49484 -29.74793,-0.58158 -44.62428,-0.62851 -18.78393,-0.0292 -37.56781,-0.0893 -56.35178,-0.0824 -18.47608,0.0148 -36.95226,-0.0131 -55.42784,0.14105 -9.37575,0.11271 -18.75203,0.16376 -28.12824,0.21833 -5.33319,0.0142 -10.66627,0.0439 -15.99939,0.0742 -4.18221,0.021 -8.36442,-0.001 -12.54655,-0.0255 -3.71819,-0.0897 -7.73945,-0.61319 -11.20567,-2.05332 -3.27188,-0.80882 -6.08527,-2.62051 -9.08089,-4.08216 -3.3651,-1.89839 -6.03508,-4.15529 -8.21028,-7.35057 -2.13643,-3.186 -3.24402,-7.02009 -3.59622,-10.81485 -0.12529,-2.08091 0.61351,-3.88908 1.4488,-5.73258 0,0 27.41134,-12.38898 27.41134,-12.38898 l 0,0 c -0.81154,1.44624 -1.89015,2.82057 -2.1119,4.47635 -0.37844,3.21815 0.99978,6.62075 2.7435,9.27396 1.83789,2.78083 4.45309,4.49106 7.36332,6.05939 2.86959,1.47543 5.7617,2.85204 8.88754,3.71017 3.43904,0.8513 6.93445,1.54065 10.49832,1.35814 4.20555,-0.024 8.41118,-0.0466 12.6168,-0.0255 5.26493,0.0305 10.52981,0.0602 15.79481,0.0744 9.1763,0.0544 18.35269,0.10463 27.52853,0.21712 18.35364,0.1542 36.7079,0.11843 55.06204,0.12394 18.8602,-0.004 37.72031,-0.0925 56.58051,-0.074 14.99924,0.0262 30.00653,-0.0855 44.99722,0.50079 13.23224,0.59497 26.43871,1.65867 39.67891,2.05571 15.97282,0.55671 31.93137,1.63377 47.91955,1.62123 24.38689,0.17093 48.77341,0.19787 73.15976,-0.0989 14.04026,-0.11055 28.08037,-0.0624 42.12092,-0.0672 13.47743,-0.1267 27.02696,-0.18341 40.38105,-2.22416 5.54231,-1.04248 11.01611,-2.12535 16.31347,-4.12692 1.51061,-0.57077 5.80669,-2.80023 4.43693,-1.94498 -5.98472,3.73672 -31.51765,18.38021 -19.55245,11.51274 0.7547,-0.61761 3.08359,-2.4446 3.70685,-3.25899 2.2977,-3.00232 2.76124,-7.09439 3.60021,-10.63508 0.56281,-6.41819 0.26719,-12.88804 -0.0556,-19.3148 -0.68085,-7.47759 -1.64815,-15.17443 -5.66458,-21.6931 -4.08948,-4.6427 -5.92695,-3.76405 -11.71813,-3.77779 -4.29239,-0.008 -8.58521,-0.0314 -12.87728,0.0328 -4.02358,0.11708 -8.05329,0.16117 -12.05912,0.60859 -8.10957,0.72292 -16.21472,1.61723 -24.36784,1.64564 -13.85753,0.54668 -27.67788,1.60848 -41.50667,2.63279 -15.58401,0.7006 -31.16241,1.29055 -46.7637,1.43903 -13.51521,0.46235 -27.0195,1.53577 -40.54476,1.38836 -13.32116,-0.27091 -26.63265,-0.82168 -39.94308,-1.41271 -11.38447,-0.47141 -22.76786,-0.52603 -34.16172,-0.50422 -13.9331,-0.0689 -27.87079,-0.13886 -41.79864,0.32457 -10.16162,0.43103 -20.36511,0.92877 -30.32246,3.17553 -8.82347,1.57768 -17.74467,2.96351 -26.73751,2.68221 -8.02641,0.0125 -16.05277,0.0532 -24.07919,0.0218 -7.57968,-0.0106 -15.15945,0.0367 -22.73912,-0.0103 -8.10206,-0.055 -16.20419,-0.0785 -24.30641,-0.0951 -7.56229,0.0112 -15.17037,-0.0225 -22.66337,1.13766 -3.03125,0.59044 -4.23343,0.74044 -7.20614,1.66332 -9.85509,3.05951 -26.42569,13.84921 13.95252,-9.52327 1.2431,-0.71956 -2.44645,1.50571 -3.66968,2.25856 -5.51748,3.36242 -10.94681,7.1631 -15.27418,11.99918 -5.82441,5.8369 -10.60381,12.59796 -16.04273,18.78228 0,0 -27.53627,11.65436 -27.53627,11.65436 z"
       inkscape:connector-curvature="0" />
    <path
       style="fill:#000000;stroke:#000000"
       id="path4231"
       d="m -340.04679,572.28447 c 1.22504,10.41015 -2.07068,20.74652 -4.33371,30.81024 -3.6281,15.73912 -5.05805,31.82574 -5.84335,47.92001 -0.64904,9.69696 -1.86355,19.28473 -0.53942,28.95476 1.24792,6.6871 4.87771,12.48642 8.6603,18.01449 4.13675,5.47938 8.03088,11.17099 12.88686,16.04919 4.07621,4.24778 9.69874,6.27 14.73224,9.08347 4.20006,1.96072 8.38508,3.90598 12.5201,6.00926 4.10128,1.96915 8.61923,2.73318 12.71386,4.7076 0,0 -24.93611,16.57016 -24.93611,16.57016 l 0,0 c -4.21161,-1.6933 -8.68144,-2.71859 -12.71324,-4.85977 -4.20174,-2.03074 -8.46112,-3.93977 -12.57637,-6.13493 -5.28565,-2.90226 -10.97397,-5.36945 -15.1434,-9.87851 -4.78833,-5.15108 -8.85606,-10.89292 -13.01903,-16.54982 -4.01445,-5.92185 -8.02896,-12.02645 -9.36965,-19.18146 -0.34224,-2.45226 -0.77136,-5.05225 -0.83294,-7.53098 -0.18501,-7.44709 1.50021,-14.81903 1.74537,-22.24511 0.9438,-16.21537 2.2076,-32.45144 5.69546,-48.35543 1.94808,-9.57038 5.17239,-19.56759 3.82315,-29.38785 0,0 26.52988,-13.99532 26.52988,-13.99532 z"
       inkscape:connector-curvature="0" />
    <path
       style="fill:#000000;stroke:#000000"
       id="path4233"
       d="m -312.22165,744.14169 c 0.88848,-5.59646 2.13982,-11.12952 3.3128,-16.67202 1.02152,-6.05409 3.03111,-11.85355 4.68379,-17.74428 1.42477,-5.09881 1.78535,-10.37538 1.97845,-15.63841 0.0689,-2.72574 0.0906,-5.45192 0.1001,-8.17837 0,0 26.56103,-13.52319 26.56103,-13.52319 l 0,0 c -0.007,2.75188 0.008,5.5043 -0.0633,8.25555 -0.14708,5.45808 -0.30578,10.9539 -1.69166,16.2701 -1.53994,5.88865 -3.82445,11.57287 -4.7635,17.61301 -1.20152,5.42448 -2.44314,10.88509 -3.20135,16.38073 0,0 -26.91632,13.23688 -26.91632,13.23688 z"
       inkscape:connector-curvature="0" />
    <path
       style="fill:#000000;stroke:#000000;stroke-width:1.1177758"
       id="path4235"
       d="m -276.81024,671.8098 c 13.67853,1.32671 27.41981,2.22264 41.10603,3.50175 11.08197,1.15747 22.19301,2.07422 33.35869,2.47168 10.22659,0.24808 20.45974,0.2874 30.6904,0.29976 14.07848,-0.0694 28.15643,0.0396 42.23473,0.0683 15.7367,-0.0952 31.473555,-0.0127 47.210372,-0.0268 10.319844,0.0343 20.63764,-0.17642 30.95681,-0.20452 6.071588,0.27196 8.977902,3.3328 10.491325,7.70383 0.996691,5.62111 0.3377,11.26934 1.488782,16.88747 1.881277,9.24341 3.971555,18.47199 5.715303,27.7352 0.03055,1.33645 0.36003,2.69005 0.09165,4.00935 -2.163136,10.63321 -34.96913,18.88258 -36.604637,19.5625 -2.309171,0.95998 -11.714188,-0.704 -14.288749,-1.03652 -14.199089,-2.10771 -28.652536,-2.41238 -43.043856,-2.80591 -26.30339,-0.70042 -52.61657,-0.14127 -78.91589,-0.87902 -9.77236,-0.89696 -19.42499,-2.52355 -28.62496,-5.30033 -1.85821,-0.39065 -10.59323,-2.34983 -12.07383,-1.73949 -0.69119,0.28493 -0.84373,1.04541 -1.26561,1.56811 40.43723,-18.39507 31.56661,-19.0289 24.77079,-4.20574 -2.66652,5.81623 -4.58624,11.86232 -6.99303,17.75019 -3.41241,8.19685 -6.48708,16.48829 -9.37244,24.81391 -2.28294,6.95511 -5.56852,13.5649 -7.45622,20.62455 -0.98296,8.1735 -5.07588,15.54191 -9.54559,22.81782 -9.96185,15.81025 -32.08284,24.75836 -53.10687,28.9015 -10.10268,1.94378 -19.52326,-1.09081 -29.1807,-3.17192 -14.95046,-3.55293 -18.05498,-9.49274 -20.04469,-21.17409 -0.62391,-13.09213 1.7767,-26.09526 6.19945,-38.66864 2.46994,-7.83136 7.02786,-14.99817 11.4121,-22.2111 3.14578,-5.79285 6.22802,-11.61016 9.24847,-17.44577 1.32217,-2.41389 2.59257,-4.84064 3.77508,-7.30011 0,0 33.80941,-12.61252 33.80941,-12.61252 l 0,0 c -1.10191,2.53254 -2.28109,5.03744 -3.81302,7.4295 -2.95525,5.93516 -6.33673,11.73248 -9.2868,17.67122 -4.32438,7.19354 -9.28176,14.17708 -12.00227,21.91662 -4.88474,12.15723 -7.72688,24.7481 -6.93046,37.57318 1.67191,10.62723 4.37072,15.17696 17.86551,18.1803 9.43462,1.96364 18.72309,4.13496 28.36156,1.67131 12.17635,-3.29345 30.34381,-12.57957 -19.79605,10.48765 -1.40227,0.64512 2.82657,-1.30671 4.00232,-2.19568 2.06137,-1.55856 4.54034,-5.07122 5.95634,-6.90521 4.43088,-7.01981 8.82117,-14.16695 9.8622,-22.09356 1.02844,-4.13889 1.96276,-8.35253 3.6498,-12.36305 0.19825,-0.47131 2.48131,-4.77049 2.72756,-5.45589 0.33889,-0.94328 0.47294,-1.92617 0.70941,-2.88925 2.97266,-8.48129 6.58522,-16.82221 9.95871,-25.20455 2.53313,-5.88665 4.36215,-11.88142 6.73008,-17.80224 0.67202,-1.68035 1.49301,-3.32026 2.2633,-4.97337 0.63388,-1.36035 0.51565,-3.17689 1.94905,-4.06669 10.60027,-6.58022 22.30077,-11.9389 33.45116,-17.90834 5.21573,-0.24424 10.27434,0.88058 15.15525,2.29858 8.66964,2.64238 17.81528,4.24186 27.02817,5.05724 26.16966,1.22271 52.38638,0.84238 78.588824,0.99117 14.775661,0.18856 29.579247,0.44261 44.163421,2.55987 2.808465,0.24672 6.371921,0.7083 9.251656,0.42673 1.36631,-0.1336 5.143002,-1.425 4.004947,-0.8053 -9.141417,4.97773 -18.798905,9.31947 -28.198349,13.9792 0.879468,-0.56727 2.175957,-0.87704 2.638418,-1.70183 0.62741,-1.11896 0.248098,-2.44489 0.372141,-3.66734 -1.308908,-9.24275 -3.90271,-18.33701 -5.955961,-27.48668 -1.299562,-5.50549 -1.09813,-11.02013 -1.672415,-16.58271 -0.994141,-3.84799 -2.793884,-4.3438 -7.672455,-4.43033 -10.084603,-0.0279 -20.167757,-0.24138 -30.253087,-0.20456 -15.71202,-0.0133 -31.42405,0.0701 -47.136,-0.015 -14.1861,0.0383 -28.37168,0.1662 -42.55808,0.11779 -10.37478,0.0105 -20.76072,0.18386 -31.12609,-0.25266 -11.02237,-0.60295 -21.96973,-1.7308 -32.91293,-2.93324 -13.86656,-1.23608 -27.78963,-2.40122 -41.74046,-2.7238 0,0 30.32228,-17.63248 30.32228,-17.63248 z"
       inkscape:connector-curvature="0" />
    <path
       style="fill:#000000;stroke:#000000"
       id="path4237"
       d="m -331.21449,785.74559 c 4.77266,1.12109 9.44134,2.6074 14.19655,3.79788 0,0 -24.54432,16.88578 -24.54432,16.88578 l 0,0 c -4.74714,-1.3077 -9.46929,-2.70617 -14.30098,-3.68192 0,0 24.64875,-17.00174 24.64875,-17.00174 z"
       inkscape:connector-curvature="0" />
    <path
       style="fill:#000000;stroke:#000000"
       id="path4239"
       d="m -349.42076,802.56651 c -8.58916,-0.598 -14.85651,-3.21008 -21.84076,-8.0534 -5.68242,-4.97046 -11.64183,-9.66278 -16.80066,-15.19035 -4.30961,-4.46577 -9.20497,-8.2943 -13.59659,-12.67397 -2.05871,-2.19803 -4.84266,-3.67956 -7.00455,-5.72593 -1.00325,-0.94964 -2.59627,-3.20975 -3.40985,-4.31191 -2.95207,-4.66043 -6.47506,-8.9207 -8.76822,-13.96288 -3.16675,-5.73136 -4.66696,-12.05543 -6.22262,-18.35443 -1.12412,-6.2462 -2.90409,-12.33715 -4.2391,-18.53589 -1.25869,-5.9209 -2.7043,-11.77742 -3.51069,-17.78177 -0.72835,-6.336 -0.52708,-12.71907 -0.84392,-19.07667 -0.5892,-8.26578 -1.22477,-16.5267 -1.56665,-24.80725 -0.18504,-7.60082 -0.23988,-15.20602 -0.27082,-22.8092 -0.009,-6.74029 -0.0145,-13.48057 -0.006,-20.22087 -0.0421,-5.29203 -0.0537,-10.58437 -0.076,-15.87657 -0.0294,-2.04784 0.41063,-4.00495 0.90863,-5.9717 0,0 27.12291,-12.74686 27.12291,-12.74686 l 0,0 c -0.71122,1.6706 -1.17664,3.33909 -1.40481,5.15183 -0.0231,5.31996 -0.0364,10.64008 -0.0843,15.95981 7.7e-4,6.74367 -0.0193,13.4873 -0.0254,20.23095 -0.0115,7.57883 -0.0591,15.15837 0.18894,22.73473 0.25711,8.25583 0.66883,16.50809 1.51166,24.72779 0.5452,6.27175 0.31393,12.57572 0.92749,18.84677 0.68487,5.95591 2.09598,11.74601 3.26296,17.61724 1.33046,6.17845 3.35633,12.1763 4.22759,18.45511 1.45802,6.12606 2.91388,12.29 6.09558,17.79788 2.14821,4.84994 5.53591,8.96926 8.42107,13.39202 2.91381,3.77484 6.73963,6.43526 10.2121,9.67516 4.38824,4.40322 9.16915,8.38524 13.5324,12.81228 5.06298,5.29334 10.60962,10.12458 16.32618,14.69762 6.82824,4.36734 12.9099,6.59118 21.16735,6.39371 0,0 -24.23362,17.60675 -24.23362,17.60675 z"
       inkscape:connector-curvature="0" />
    <path
       style="fill:#000000;stroke:#000000"
       id="path4241"
       d="m -286.55681,691.72157 c -1.65876,-7.16534 -1.86596,-14.65272 0.0797,-21.76574 6.16424,-12.79394 21.41349,-20.58145 35.36172,-22.28339 0.68711,-0.0453 1.37422,-0.0906 2.06133,-0.13595 0,0 -24.01732,17.87908 -24.01732,17.87908 l 0,0 c -0.64027,0.10941 -1.28054,0.21882 -1.92082,0.32824 -9.68546,2.73787 -23.61035,13.22034 20.22108,-12.69813 0.58032,-0.34315 -1.224,0.58157 -1.77381,0.97174 -1.62645,1.15419 -1.77125,1.67714 -2.91416,3.31805 -2.82293,6.21529 -2.59685,13.4502 -0.91644,19.96694 0,0 -26.18126,14.41916 -26.18126,14.41916 z"
       inkscape:connector-curvature="0" />
  </g>
</svg>
