<?xml version="1.0" encoding="UTF-8" standalone="no"?>
<!-- Created with Inkscape (http://www.inkscape.org/) -->

<svg
   xmlns:dc="http://purl.org/dc/elements/1.1/"
   xmlns:cc="http://creativecommons.org/ns#"
   xmlns:rdf="http://www.w3.org/1999/02/22-rdf-syntax-ns#"
   xmlns:svg="http://www.w3.org/2000/svg"
   xmlns="http://www.w3.org/2000/svg"
   xmlns:sodipodi="http://sodipodi.sourceforge.net/DTD/sodipodi-0.dtd"
   xmlns:inkscape="http://www.inkscape.org/namespaces/inkscape"
   width="744.09448819"
   height="1052.3622047"
   id="svg2"
   version="1.1"
   inkscape:version="0.48.2 r9819"
   sodipodi:docname="weewit.svg">
  <defs
     id="defs4" />
  <sodipodi:namedview
     id="base"
     pagecolor="#ffffff"
     bordercolor="#666666"
     borderopacity="1.0"
     inkscape:pageopacity="0.0"
     inkscape:pageshadow="2"
     inkscape:zoom="0.49497475"
     inkscape:cx="-250.04356"
     inkscape:cy="584.64283"
     inkscape:document-units="px"
     inkscape:current-layer="layer1"
     showgrid="false"
     inkscape:window-width="1436"
     inkscape:window-height="856"
     inkscape:window-x="4"
     inkscape:window-y="0"
     inkscape:window-maximized="1" />
  <metadata
     id="metadata7">
    <rdf:RDF>
      <cc:Work
         rdf:about="">
        <dc:format>image/svg+xml</dc:format>
        <dc:type
           rdf:resource="http://purl.org/dc/dcmitype/StillImage" />
        <dc:title></dc:title>
      </cc:Work>
    </rdf:RDF>
  </metadata>
  <g
     inkscape:label="Layer 1"
     inkscape:groupmode="layer"
     id="layer1">
    <path
       style="fill:#000000;stroke:#000000"
       id="path4335"
       d="m -519.01571,718.74143 c -17.0395,-31.39516 -42.24639,-57.46293 -66.76642,-83.06153 -21.44431,-21.73904 -44.86651,-41.42471 -71.24227,-56.92516 -13.55974,-7.96876 -19.76965,-10.54103 -33.56628,-17.03736 -6.67396,-2.13427 -22.79653,-11.267 -30.43205,-9.50438 -2.01728,0.46568 -7.12125,4.00644 -5.10449,3.53849 22.78723,-5.28737 22.92036,-15.47722 14.95655,5.73561 -13.98209,47.45615 -14.04736,97.42608 -18.3369,146.32162 -1.27338,14.51489 -2.92312,28.99431 -4.38467,43.49146 -7.51126,63.2134 -15.77909,126.3342 -22.12459,189.67998 -1.21741,12.91193 -2.3871,25.84277 -2.62788,38.81546 -1.6e-4,0.69087 -3.3e-4,1.38174 -4.9e-4,2.07261 0,0 -26.66891,13.56438 -26.66891,13.56438 l 0,0 c 0.01,-0.72351 0.02,-1.44702 0.03,-2.17053 0.60397,-13.52096 3.43655,-26.85584 4.96462,-40.27601 9.46071,-63.8041 19.38865,-127.56142 26.35763,-191.7019 1.32725,-14.40346 2.90792,-28.78582 3.98176,-43.21039 3.5939,-48.27573 1.74861,-97.44902 13.58747,-144.74653 1.2712,-4.30006 0.77173,-9.6057 3.81359,-12.90016 8.39861,-9.09604 19.12933,-15.75718 29.24151,-22.89989 1.72327,-1.21723 3.89781,-1.91662 6.00608,-1.99716 8.2892,-0.31664 22.09578,8.64952 29.42891,11.23266 12.82642,6.53075 20.40073,10.12225 33.0239,17.75252 26.29767,15.89602 49.80364,35.60876 71.0378,57.78766 24.79515,26.01519 50.09182,51.97046 70.77073,81.47426 0,0 -25.94557,14.96429 -25.94557,14.96429 z"
       inkscape:connector-curvature="0" />
    <path
       style="fill:#000000;stroke:#000000"
       id="path4337"
       d="m -490.29165,707.88039 c -0.81105,-17.56553 -4.39953,-34.81817 -8.90577,-51.75896 -9.00212,-26.54635 -24.79732,-49.83852 -39.51626,-73.42821 -6.27359,-10.47317 -13.14557,-20.6354 -21.29981,-29.75045 -1.69234,-1.89174 -3.34261,-3.84501 -5.27076,-5.49574 -1.3182,-1.12854 -2.93298,-1.85543 -4.39947,-2.78314 -13.55946,4.93974 11.63647,-8.86507 18.39655,-8.57864 3.69659,0.15663 -2.87794,6.83597 -3.90118,10.39157 -6.8208,23.70112 -8.71214,48.59698 -11.45187,72.97632 -5.295,56.92135 -6.64945,114.10869 -7.50465,171.23869 -0.4927,39.65683 -0.67363,79.31645 2.00788,118.89927 1.23402,13.84374 2.47884,27.67673 3.18373,41.55867 0.0149,5.04285 0.86967,10.01612 1.57012,14.99294 0,0 -26.4386,13.90622 -26.4386,13.90622 l 0,0 c -0.61624,-5.12349 -1.48627,-10.24618 -1.33905,-15.42514 -0.31449,-14.09961 -1.23506,-28.17511 -1.71371,-42.26938 -1.37705,-40.01708 -0.72469,-80.03404 -0.12609,-120.06367 0.30812,-17.6315 0.52698,-34.50124 1.14306,-52.13064 1.39569,-39.93822 4.2295,-79.81214 7.02664,-119.67025 1.41959,-17.27344 2.79942,-37.2197 5.11843,-54.58549 0.77637,-5.81378 1.78849,-11.59756 2.93934,-17.34894 0.72938,-3.6451 0.0206,-8.24156 2.69741,-10.82094 22.4067,-21.59085 18.31198,-21.23689 33.14547,-18.80089 1.45194,1.16549 3.01955,2.19996 4.3558,3.49646 10.35113,10.04313 19.08494,23.69528 26.46121,35.99604 14.13851,24.22321 29.20399,48.11174 39.47324,74.32578 1.22306,4.1576 2.58478,8.27689 3.66918,12.47279 3.28321,12.70382 5.18805,25.78083 7.19513,38.72715 0,0 -26.51597,13.92858 -26.51597,13.92858 z"
       inkscape:connector-curvature="0" />
    <path
       style="fill:#000000;stroke:#000000"
       id="path4339"
       d="m -448.14671,671.91492 c -6.64011,3.57725 -12.70487,8.53514 -19.92031,10.73175 -3.43045,1.04434 5.5116,-4.60182 8.06264,-7.1219 3.49898,-3.45651 6.86768,-7.05182 10.06685,-10.78753 12.46675,-14.55758 23.3133,-30.47611 34.42703,-46.05859 12.99189,-18.76522 26.6017,-37.12276 37.84403,-57.01899 4.46814,-7.16863 7.84825,-14.83333 10.58123,-22.79986 4.34515,-14.37542 6.63513,-20.56742 31.77224,-19.49754 3.83432,0.1632 1.39228,7.55107 1.91207,11.3535 0.92058,6.73443 1.60524,13.499 2.40786,20.24851 3.31122,31.59993 5.98538,63.26685 8.10558,94.96874 1.33068,19.89682 3.07658,48.04674 3.20023,68.0559 0.0685,11.08996 -0.47658,22.17522 -0.71487,33.26283 -0.92247,10.97828 -1.64252,21.97545 -2.76742,32.93483 -2.10557,20.51361 -5.54146,43.53786 -8.21622,63.98679 -3.59369,27.4743 -6.80222,54.98611 -9.83482,82.52671 -2.07773,20.25401 -4.26721,40.51342 -5.19482,60.8598 -0.1133,4.78324 -0.14779,2.70904 -0.0139,6.22344 0,0 -26.67738,13.49679 -26.67738,13.49679 l 0,0 c 0.33676,-3.7264 0.17298,-1.5543 0.41492,-6.5216 1.45373,-20.98639 5.52743,-41.68781 8.14617,-62.53803 3.89495,-27.7233 7.4977,-55.47553 11.19161,-83.22562 2.35952,-17.72562 6.52153,-46.19474 8.41469,-63.94966 1.16434,-10.91973 1.91538,-21.87957 2.87307,-32.81936 0.28457,-11.06132 0.87601,-22.119 0.85371,-33.18396 -0.0414,-20.52673 -1.617,-47.57935 -3.06599,-68.00051 -2.22165,-31.31058 -5.12369,-62.61883 -10.29095,-93.59836 -1.26812,-6.44719 -2.40427,-12.92174 -3.80436,-19.34156 -0.72905,-3.34289 -4.75873,-7.29623 -2.58049,-9.93473 6.30959,-7.64279 16.2901,-11.29706 24.58558,-16.72 0.63325,-0.41396 -1.17462,1.00183 -1.54799,1.65983 -0.81401,1.43458 -2.00476,5.78214 -2.42753,7.19803 -2.70003,8.28349 -5.72212,16.36354 -10.81686,23.54427 -11.82324,20.34674 -26.10242,39.00757 -39.73136,58.15405 -11.02912,15.3959 -21.67052,31.22388 -33.52668,46.00589 -1.89257,2.35961 -12.82162,15.29105 -16.59088,17.86763 -9.79405,6.69496 -20.2287,12.40094 -30.34305,18.60142 0,0 23.20639,-18.56291 23.20639,-18.56291 z"
       inkscape:connector-curvature="0" />
    <path
       style="fill:#000000;stroke:#000000"
       id="path4341"
       d="m -454.63563,673.11298 c 51.17154,-12.32241 101.66463,-27.07487 151.94313,-42.59477 29.68296,-9.18977 58.66074,-20.41028 86.92987,-33.27547 4.01491,-1.82718 27.03217,-12.49678 32.00023,-16.15836 4.0763,-3.00433 -8.91626,4.80304 -13.37439,7.20457 10.83495,-6.76612 19.75231,-15.7211 26.0362,-26.81146 2.21077,-4.58235 4.52202,-9.10779 7.10052,-13.49487 2.51311,-4.69155 5.74529,-8.95743 9.04176,-13.11955 8.15893,-8.99812 7.86351,-9.12936 29.88389,-15.67837 1.73794,-0.51688 2.17446,2.92847 2.96595,4.55978 5.63762,11.61942 7.57536,25.40028 10.25186,37.82534 6.40403,34.63386 11.67243,69.50623 15.4612,104.52745 2.52608,23.34965 3.131052,33.77461 4.897757,57.07823 2.453533,41.39701 4.825897,82.80658 6.017326,124.26183 0.291985,23.3992 1.593546,46.9212 -0.351846,70.28967 -0.336015,4.03628 -0.903247,8.04997 -1.354871,12.07495 -1.64618,16.03271 -5.037528,31.7709 -8.534199,47.47423 -1.276584,5.20296 -0.590631,2.64666 -2.050216,7.67096 0,0 -26.769431,12.65099 -26.769431,12.65099 l 0,0 c 1.59092,-4.92089 0.83429,-2.40245 2.25886,-7.55861 3.96649,-15.7844 8.37103,-31.4938 9.89821,-47.7747 0.50736,-3.99328 1.13318,-7.97328 1.52207,-11.97982 2.26891,-23.37536 1.08073,-46.95785 1.07993,-70.39056 -0.84065,-41.71957 -1.88747,-83.44982 -4.06926,-125.12233 -3.81873,-53.85045 -9.42851,-107.69234 -21.84343,-160.34118 -3.18705,-12.03456 -4.28144,-17.85494 -8.58929,-28.82322 -0.9234,-2.35109 -1.99435,-4.65348 -3.24756,-6.84659 -0.52358,-0.91628 -2.87952,-1.76972 -2.04556,-2.41642 7.38764,-5.72874 15.94895,-9.75808 23.9598,-14.57699 0.68115,-0.40974 -1.31162,0.89836 -1.96743,1.34754 -3.13617,4.15069 -6.57316,8.09763 -9.13917,12.62509 -2.2683,4.60247 -5.41648,8.77976 -7.27101,13.6225 -6.48073,11.76054 -15.5497,21.57791 -26.96326,28.77813 -15.56672,9.1767 -31.12391,19.16344 -47.50221,27.08457 -33.06861,15.99318 -67.73579,28.48517 -102.707,39.57839 -52.2448,16.08429 -104.70289,31.41149 -157.26879,46.40914 0,0 23.80036,-18.10009 23.80036,-18.10009 z"
       inkscape:connector-curvature="0" />
    <path
       style="fill:#000000;stroke:#000000"
       id="path4343"
       d="m -486.99768,692.99634 c 9.77901,-7.4243 14.01288,-19.11437 17.35837,-30.4722 2.72864,-11.81666 4.17148,-23.90798 5.21782,-35.97936 0.80689,-9.33885 0.93359,-18.67585 -0.29815,-27.97293 -0.96292,-8.95421 -4.85323,-16.75251 -9.04598,-24.55523 -5.53792,-11.30743 -10.58121,-22.81606 -15.06968,-34.578 -5.01215,-12.47394 -7.27782,-25.77125 -9.19364,-39.00684 -1.59337,-12.07305 -2.0826,-24.23045 -1.14239,-36.36685 0.98802,-12.13113 3.52987,-24.06973 6.80321,-35.77124 3.31996,-11.89924 6.53664,-23.80643 8.62112,-35.99018 1.67576,-10.95637 1.91822,-22.05886 1.99634,-33.12124 0.0748,-7.4643 0.20641,-14.91718 -1.20806,-22.2702 -0.46885,-2.61429 -1.39186,-5.1062 -2.25209,-7.60765 0,0 26.12666,-14.40995 26.12666,-14.40995 l 0,0 c 0.88411,2.62744 1.88251,5.23094 2.3717,7.9713 1.63505,7.59569 1.26522,15.30149 1.11457,23.03028 -0.1877,11.20211 -0.20963,22.45242 -1.84671,33.56212 -2.09813,12.27422 -5.28668,24.27221 -8.50906,36.29263 -3.38352,11.5215 -6.0651,23.288 -7.08619,35.27699 -1.10481,11.94395 -0.5883,23.90926 0.78755,35.82201 1.71091,13.05868 4.00042,26.14518 8.83577,38.45913 4.36182,11.67611 9.53618,22.95441 15.19205,34.06029 4.3798,8.09425 8.52057,16.14486 9.65096,25.43048 1.33462,9.50697 1.20669,19.08526 0.41294,28.6442 -1.02769,12.29171 -2.79174,24.54542 -5.26681,36.62643 -3.165,11.54247 -6.96615,23.32379 -15.73504,31.93123 0,0 -27.83526,10.99478 -27.83526,10.99478 z"
       inkscape:connector-curvature="0" />
    <path
       style="fill:#000000;stroke:#000000"
       id="path4345"
       d="m -486.11567,326.12954 c 0.22865,-8.17361 0.22559,-16.35293 0.28222,-24.52936 -0.4822,-8.95679 0.79917,-18.0876 -0.19373,-27.02265 -0.1906,-1.71528 -0.63733,-3.39232 -0.95599,-5.08848 -2.53783,-9.26483 -6.05767,-18.23722 -10.56126,-26.71659 -4.89862,-8.88788 -12.19373,-15.64466 -20.25827,-21.58606 -6.14304,-4.03442 -12.72757,-7.2913 -19.51223,-10.08503 -5.7037,-2.30387 -11.87263,-2.38435 -17.92875,-2.57983 -7.6811,-0.88247 -15.38674,-1.44748 -23.10973,-1.77579 -7.12738,-0.29299 -14.26094,-0.24217 -21.39219,-0.23314 -0.86028,0.11983 -1.74336,0.12912 -2.58084,0.35948 -1.80802,0.49731 -3.45013,1.57722 -5.06888,2.46127 -0.84532,0.46166 -3.38186,1.84478 -2.54796,1.36278 26.42096,-15.27161 30.31642,-17.73732 20.68516,-11.74005 -16.48343,10.27135 -56.90211,32.48297 -7.45494,4.46114 0.83097,-0.47092 -1.63831,0.9881 -2.40494,1.55779 -2.6004,1.93236 -3.02587,2.57698 -5.30908,4.94666 -4.97904,4.96033 -8.66698,10.64384 -11.61692,16.97215 -3.21493,7.99323 -4.28072,16.63998 -6.05886,25.02767 0,0 -26.21876,12.6858 -26.21876,12.6858 l 0,0 c 1.74362,-8.46967 2.57683,-17.16435 5.36332,-25.37035 2.73314,-6.66552 6.02795,-12.73689 11.219,-17.85909 0.46945,-0.54071 4.27961,-4.9684 4.89483,-5.52788 0.71416,-0.64947 1.53076,-1.18452 2.36117,-1.67671 9.26565,-5.49172 18.71351,-10.6756 27.9178,-16.26955 7.55285,-4.59028 -15.32559,8.80878 -22.96243,13.25791 -0.82451,0.48034 1.68265,-0.90049 2.52398,-1.35074 10.95752,-7.7857 2.98832,-2.23464 30.2996,-17.73788 3.40133,-1.93076 7.12813,-3.15557 11.06632,-3.06367 7.11466,0.0552 14.22999,0.20039 21.34087,0.43535 7.71606,0.41744 15.40334,1.15739 23.10674,1.74296 6.36188,0.28644 12.76149,0.65306 18.61656,3.43163 6.83893,3.07132 13.57434,6.42658 19.67991,10.8177 8.25967,6.34031 15.63655,13.5661 20.82991,22.71149 4.82559,8.68472 8.26572,17.94628 10.94395,27.51239 0.38705,1.82908 0.91735,3.63363 1.16116,5.48726 1.17751,8.95252 -0.34505,18.13889 0.28959,27.12078 0.0564,8.08054 0.0517,16.16414 0.28223,24.24176 0,0 -26.72856,13.61888 -26.72856,13.61888 z"
       inkscape:connector-curvature="0" />
    <path
       style="fill:#000000;stroke:#000000"
       id="path4347"
       d="m -678.69058,245.55116 c 10.95186,0.25056 21.90918,0.21022 32.86351,0.22671 11.72621,0.16727 23.37131,1.69121 34.74473,4.50831 5.22043,1.50304 10.66955,2.47576 15.75299,4.4436 5.23714,2.02734 10.0181,5.15808 14.80926,8.03148 5.83369,3.84963 11.40424,8.10018 15.34078,13.97659 1.80674,2.69709 4.08251,7.30018 5.5523,10.13928 6.17861,13.01651 9.56925,27.11769 13.4311,40.93774 2.21515,9.20573 5.42863,18.3864 6.06077,27.91191 0.42458,6.39792 -0.18317,8.43003 -1.04276,14.81468 -2.18191,8.71475 -4.4198,17.89776 -9.23589,25.63224 -2.91173,4.67615 -4.29766,5.56554 -8.21187,9.38421 -12.92705,10.12126 -27.7325,17.48061 -41.97302,25.52552 -4.88998,2.76249 -9.99052,4.86808 -15.23109,6.84132 -9.36623,3.26855 -19.18674,4.92409 -29.02613,5.92837 -10.79022,0.4095 -21.54017,1.26071 -32.31072,1.98294 -11.03297,0.64077 -22.08224,0.79792 -33.12978,0.95085 -11.91631,0.11518 -23.82354,0.0726 -35.72129,-0.62242 -9.96362,-0.83605 -19.5063,-3.80978 -28.99771,-6.76881 -14.17234,-5.00665 -27.09177,-12.69431 -39.83896,-20.51916 -8.60077,-5.79628 -14.81757,-13.86409 -19.66219,-22.89265 -3.76018,-7.82107 -5.14245,-16.40339 -6.25928,-24.92502 -0.81653,-7.17584 -0.7722,-14.40594 -0.84085,-21.61661 -0.114,-10.68328 5.34332,-17.08613 12.58617,-24.27612 17.49446,-14.76919 37.33667,-27.13102 58.25768,-36.39054 16.88745,-5.92258 34.14364,-10.82753 51.52494,-15.07761 10.91609,-3.1918 21.86761,-6.25228 32.76227,-9.51385 5.36857,-2.02293 10.71507,-4.33576 15.64803,-7.26426 4.32362,-2.17771 8.6926,-3.90158 13.46476,-4.76485 4.18032,-0.497 8.39469,-0.49636 12.59725,-0.57597 0,0 -24.13561,17.60485 -24.13561,17.60485 l 0,0 c -4.10466,0.0763 -8.24354,0.17672 -12.26659,1.07946 -4.53813,1.22099 -8.77936,3.18809 -12.92598,5.38671 -5.13956,2.50799 -10.26718,5.09352 -15.81529,6.6031 -10.73867,3.0846 -21.5204,6.02579 -32.29424,8.9812 -17.36678,4.19009 -34.66977,9.01723 -51.28624,15.61869 -11.7094,5.73763 -12.94366,6.53016 13.34644,-8.36161 1.83048,-1.03686 -3.58603,2.20167 -5.34948,3.34883 -3.80914,2.47791 -7.59255,5.10451 -11.19243,7.87844 -1.83097,1.41088 -3.59342,2.9085 -5.39013,4.36275 -6.65567,6.07313 -12.96839,12.29841 -13.0733,21.87244 -0.037,7.12356 -0.0139,14.25849 0.59055,21.36184 0.85821,8.22209 2.16081,16.42226 5.71861,23.97419 4.51236,8.64183 10.2414,16.32834 18.46651,21.83074 12.44274,8.07025 25.35267,15.44372 39.66355,19.70711 9.32321,2.82738 18.7271,5.57028 28.49945,6.26343 11.88359,0.73206 23.76513,0.57471 35.66594,0.40583 11.01154,-0.089 22.02908,-0.31664 33.01686,-1.08731 10.74075,-0.81161 21.49589,-1.22841 32.23106,-2.07884 9.73133,-1.22829 19.43661,-3.04884 28.62725,-6.57918 4.3431,-1.75577 4.96704,-1.91577 9.34378,-4.09749 1.813,-0.90374 7.10615,-3.88694 5.37907,-2.82823 -37.94228,23.25887 -15.75198,9.29005 -7.68081,3.77631 3.63903,-3.10068 5.77256,-4.51857 8.55397,-8.4548 5.15723,-7.29849 7.5534,-16.38233 9.92023,-24.83384 0.90223,-5.79535 1.59425,-8.19125 1.28521,-14.02322 -0.4989,-9.41495 -3.54932,-18.59008 -5.58437,-27.71724 -3.84425,-13.5898 -7.59521,-27.32489 -13.54499,-40.17586 -1.43638,-2.68603 -3.65104,-7.02838 -5.42229,-9.59782 -3.79324,-5.50261 -9.14244,-9.50582 -14.67253,-13.11809 -3.30383,-1.94287 -6.21388,-3.75218 -9.67968,-5.40157 -6.46033,-3.07448 -13.495,-4.52462 -20.37076,-6.34402 -11.24947,-2.51687 -22.70801,-3.94996 -34.24938,-4.03037 -11.1624,0.0167 -22.32749,-0.0195 -33.48758,0.22671 0,0 24.1982,-17.58102 24.1982,-17.58102 z"
       inkscape:connector-curvature="0" />
    <path
       style="fill:#000000;stroke:#000000"
       id="path4349"
       d="m -761.29913,326.37623 c 12.29024,0.25892 24.59262,0.43642 36.878,-0.0472 11.96341,-0.61142 23.9192,-1.35246 35.89658,-1.62107 13.90182,0.21148 27.73361,-0.47686 41.58135,-1.63756 12.49374,-1.14033 24.87824,-3.01057 37.3933,-3.9613 7.11559,-0.0349 14.36389,-1.4575 21.45303,-0.4865 0.78246,0.63511 1.71774,1.11846 2.34738,1.90533 4.04256,5.05198 3.85778,12.6296 3.37138,18.66613 -1.06618,5.63618 -1.18651,11.43876 -2.32332,17.04943 -10.21885,17.53666 -30.15943,19.44561 -47.40037,19.89525 -10.55723,0.16547 -21.11677,0.0852 -31.67473,0.037 -9.30899,-0.0761 -18.61789,0.0113 -27.92686,-0.004 -7.86474,-0.0153 -15.72934,0.0273 -23.59407,-6.9e-4 -8.44637,-0.1297 -16.90447,0.28252 -25.33357,-0.32699 -7.2776,-0.32458 -14.43613,-1.33332 -21.60842,-2.52346 -4.89142,-1.34146 -9.8322,-2.4036 -14.88661,-2.83554 -4.13278,-0.30459 -8.27748,-0.27639 -12.41807,-0.29099 -5.00217,0.0379 -7.65933,0.31271 -10.88993,-3.9342 -2.43443,-4.2966 -1.94642,-9.14327 -0.97672,-13.7833 0.97175,-4.84041 3.07787,-8.78595 6.42849,-12.34413 11.43243,-9.09518 24.03567,-17.63126 38.61698,-19.37191 5.97018,-0.57211 11.97954,-0.42668 17.96993,-0.45733 2.60342,-0.008 5.20678,-0.0105 7.81016,-0.0263 0,0 -24.19744,17.56805 -24.19744,17.56805 l 0,0 c -2.55578,-0.0335 -5.11159,-0.0527 -7.66763,-0.052 -5.93213,0.0109 -11.89353,6.3e-4 -17.77689,0.86259 -2.15148,0.40292 -2.92929,0.47035 -5.00142,1.1661 -0.72874,0.24469 -2.80133,1.24939 -2.14255,0.85322 41.29695,-24.83456 29.20956,-16.54904 20.09402,-11.85766 -4.15284,3.17241 -5.82084,5.58493 -7.19002,10.69081 -0.92877,3.66826 -2.07062,7.78067 -0.26229,11.35051 2.35711,2.51598 6.30175,1.55304 9.43898,1.73202 4.17294,0.0253 8.34626,0.18883 12.5006,0.59968 5.06353,0.62674 9.96603,1.96746 14.94913,3.03153 7.01064,1.25146 14.0621,2.03755 21.1786,2.40875 8.42692,0.31766 16.8623,0.11214 25.2939,0.1549 7.86185,-0.0279 15.72355,0.0132 23.58542,0.011 9.25425,0.005 18.50807,0.13214 27.76243,0.13473 10.53836,0.0388 21.08037,0.1652 31.61589,-0.14921 3.52225,-0.17984 6.33418,-0.2488 9.81511,-0.70576 1.37247,-0.18018 2.74537,-0.38725 4.09196,-0.70798 1.14927,-0.27373 4.36698,-1.71832 3.37846,-1.07133 -17.03904,11.15217 -31.1905,17.67842 -20.60264,12.72933 2.20699,-5.14839 1.07863,-11.26367 2.74833,-16.63364 0.58375,-4.37169 1.55815,-12.24982 -1.94702,-15.75557 -0.39003,-0.3901 -1.00636,-0.45215 -1.50954,-0.67823 -6.90492,-0.30929 -13.83067,0.23697 -20.72401,0.57635 -12.34713,0.94832 -24.59344,2.81846 -36.95107,3.65486 -14.02166,1.12475 -28.0365,1.87074 -42.10934,1.82417 -11.89268,0.35212 -23.77724,0.8807 -35.65992,1.48161 -12.52565,0.39231 -25.06015,0.0525 -37.58774,0.43609 0,0 24.16278,-17.55529 24.16278,-17.55529 z"
       inkscape:connector-curvature="0" />
    <path
       style="fill:#000000;stroke:#000000"
       id="path4353"
       d="m -480.05476,332.19045 c 0.26733,-5.46642 0.28153,-10.92869 0.0262,-16.39351 0,0 26.19284,-13.52093 26.19284,-13.52093 l 0,0 c 0.32037,5.43073 0.31346,10.85961 0.50952,16.29556 0,0 -26.72856,13.61888 -26.72856,13.61888 z"
       inkscape:connector-curvature="0" />
    <path
       style="fill:#000000;stroke:#000000"
       id="path4355"
       d="m -677.62673,246.95521 c 4.37988,-7.31353 8.79337,-14.60686 13.19441,-21.90826 3.72192,-7.1728 8.31579,-13.82837 12.80804,-20.52817 4.90248,-6.01571 10.42107,-11.57498 16.0864,-16.88257 12.36971,-9.81638 26.02451,-19.17172 41.46754,-23.03865 7.45812,-2.01441 14.91394,-3.83631 22.58444,-4.80832 11.71709,-1.06924 23.44593,-1.88677 35.19931,-2.43002 9.50998,-0.45728 19.02588,-0.58571 28.54473,-0.60023 6.78129,0.0775 13.58976,-0.41695 20.34446,0.27898 6.00055,0.64969 11.75094,2.61046 17.5625,4.14863 5.39173,1.95397 10.68853,4.14428 15.67599,6.98577 4.32637,2.02072 7.89335,5.20285 11.34038,8.43648 3.30221,2.46957 6.1817,5.40784 8.65531,8.69611 2.94829,4.11611 5.75813,8.27128 8.0899,12.7751 1.84058,4.84271 4.36846,9.35398 6.71288,13.95782 3.18632,5.9616 5.22181,12.49856 7.3483,18.90714 2.07343,6.56797 4.37527,13.07053 6.16256,19.72339 1.60146,8.43518 2.98145,16.89514 4.90978,25.26953 1.61119,6.4319 3.93059,12.64727 5.15228,19.17331 0.93165,5.39133 0.95874,10.86411 0.97136,16.31651 -0.0382,6.03279 0.0341,12.06553 0.0105,18.09828 -0.0865,6.14736 -0.01,12.29528 -0.0448,18.44259 -0.0894,7.88233 -0.1066,15.76512 -0.0656,23.64793 0.20846,6.51724 -0.54836,12.99158 -1.81773,19.36927 -1.1846,5.88898 -2.50042,11.76475 -4.13856,17.54534 -1.70773,6.07639 -3.79801,12.02631 -5.06131,18.21791 -0.8767,5.08938 -0.95448,10.26259 -1.04122,15.41164 -0.51566,5.79481 0.60266,11.17006 2.46851,16.60703 2.45371,4.94726 5.31542,9.70624 8.1795,14.43326 2.89515,4.67111 5.0393,9.723 7.51541,14.61641 2.11447,4.54891 3.85915,9.27234 4.98158,14.16362 1.36,4.46894 2.31445,8.99286 2.76464,13.64161 0.37543,5.20416 0.39473,10.42765 0.43451,15.64315 -0.006,4.34014 0.16491,8.68002 -0.18101,13.00921 -0.63136,4.51376 -1.25926,9.02199 -1.57681,13.57002 0.0278,5.17264 -0.4754,10.16534 -1.67912,15.19074 -1.42833,5.19318 -3.00278,10.34867 -3.95112,15.65671 -0.48469,4.016 -0.85904,8.01878 -1.53349,12.01226 -0.74645,4.89279 -1.8696,9.7225 -3.05022,14.52645 -1.53268,5.7482 -3.33264,11.41731 -5.32423,17.02141 -1.84039,5.14833 -4.56082,9.90331 -6.93805,14.80841 -2.33161,4.73273 -4.42805,9.58092 -6.98782,14.19747 -1.98756,3.69168 -4.41296,7.13193 -6.75019,10.60833 -2.47527,3.35626 -3.60906,6.76078 -3.14581,10.89182 1.03066,3.80173 4.73163,5.36995 7.55644,7.67477 5.48347,5.53645 3.37823,14.13898 2.29681,21.0275 -0.96202,6.3034 -2.37539,12.49854 -4.4069,18.53999 -0.72617,1.98608 -1.21455,4.17185 -2.53453,5.8873 -0.89688,1.16557 -2.88373,2.79641 -4.07736,3.50718 -9.35282,5.56939 -18.81052,10.96073 -28.21579,16.44109 -4.96635,2.72336 -10.64574,3.36212 -16.01073,4.94278 -5.27457,0.99527 -10.65319,1.16485 -16.00452,1.31732 -4.45193,-0.0253 -8.9625,0.44825 -13.36471,-0.30651 -4.6563,-0.76967 -8.83662,-2.58774 -12.81625,-5.05329 -4.55718,-2.49219 -9.10181,-5.08236 -12.62879,-8.93932 -2.40964,-4.17131 -4.44081,-8.72483 -5.54173,-13.43285 -0.76997,-4.49613 -1.18896,-9.06718 -0.59819,-13.60246 0.57371,-3.59376 1.17504,-7.16121 2.16039,-10.66719 0.54391,-1.79696 0.69271,-3.74149 1.56466,-5.43478 0.62854,-1.22059 1.73951,-2.71267 2.95501,-3.40657 9.36478,-5.34612 18.89619,-10.39493 28.34429,-15.5924 3.56113,-0.62326 7.16112,-0.96307 10.75575,-1.31877 0,0 -23.83084,17.70695 -23.83084,17.70695 l 0,0 c -3.50622,0.40762 -7.03977,0.76396 -10.3915,1.95684 7.65729,-4.53981 15.3661,-8.99382 22.97186,-13.61943 0.62468,-0.37991 -1.37646,0.51175 -2.0124,0.87248 -2.26279,1.2835 -3.043,3.46745 -3.26517,5.9403 -0.93955,3.45182 -1.95133,6.82254 -2.331,10.40314 -0.87299,4.19432 -0.70238,8.37131 0.0227,12.60214 0.88386,4.21061 2.56015,8.34674 4.69744,12.06152 3.49681,3.54036 7.94472,5.8348 12.26755,8.22146 3.71675,2.20185 7.77639,3.49824 12.07873,3.9967 4.34261,0.23125 8.6946,0.0622 13.04041,-0.008 5.24942,-0.20906 10.54595,-0.48375 15.63125,-1.91663 5.29642,-1.36592 10.72042,-2.39902 15.40419,-5.41856 -7.52563,4.40172 -15.05126,8.80344 -22.57689,13.20516 1.62355,-1.12367 4.38004,-2.29424 5.63917,-3.88826 0.59847,-0.75764 1.3381,-2.98014 1.6452,-3.80669 2.12669,-5.95562 3.90083,-11.97368 4.91751,-18.23606 1.01924,-5.64626 3.53163,-13.47051 -1.12395,-18.05165 -3.53149,-2.71308 -7.37701,-5.02588 -8.6517,-9.6151 -0.88736,-4.59521 -0.60721,-8.92846 2.20712,-12.85584 2.18274,-3.53273 4.69779,-6.8548 6.80932,-10.42119 2.57229,-4.61497 5.02267,-9.26856 7.2321,-14.08127 2.22035,-4.9011 4.83461,-9.60847 7.00662,-14.53223 1.9971,-5.51991 3.92976,-11.05204 5.44034,-16.73224 1.15189,-4.72861 2.33644,-9.46672 3.05606,-14.28178 0.66187,-4.01276 1.32521,-7.96582 1.48633,-12.03568 0.98946,-5.38499 2.46414,-10.63573 4.04503,-15.87658 1.1369,-4.88519 2.10588,-9.61315 1.78291,-14.67928 0.2571,-4.59589 0.75982,-9.15337 1.53984,-13.69231 0.56451,-4.21312 0.19334,-8.48654 0.339,-12.72961 0.013,-5.13605 0.035,-10.2778 -0.31038,-15.40519 -0.40006,-4.53225 -1.19672,-8.97149 -2.59816,-13.3119 -0.97648,-4.68121 -2.63051,-9.16776 -4.57047,-13.53215 -2.43836,-4.8319 -4.56707,-9.79629 -7.35169,-14.44842 -2.96818,-4.91106 -6.07428,-9.78177 -8.49068,-14.98841 -1.95816,-5.7159 -3.58834,-11.34944 -2.98537,-17.47665 0.006,-5.30057 0.0459,-10.6182 0.82113,-15.87429 1.0366,-6.36142 3.31581,-12.34419 5.01765,-18.53947 1.71516,-5.67421 2.92968,-11.50191 4.15735,-17.29304 1.35314,-6.2111 2.44389,-12.52236 2.26051,-18.90807 0.0405,-7.86101 0.0236,-15.722 -0.0644,-23.58253 -0.0325,-6.13945 0.0489,-12.2794 -0.0145,-18.41904 0.003,-6.03338 0.12786,-12.06657 0.0548,-18.1 -0.0644,-5.28818 -0.0825,-10.5978 -0.78805,-15.84877 -1.08221,-6.52967 -3.26865,-12.75457 -4.80017,-19.18083 -1.95714,-8.31345 -3.46768,-16.70451 -4.99503,-25.10099 -1.81135,-6.59381 -4.08231,-13.0563 -6.11588,-19.58416 -1.99461,-6.28414 -4.13164,-12.61865 -7.20532,-18.4535 -2.33746,-4.59821 -5.07073,-9.01084 -6.81819,-13.89042 -2.19908,-4.35637 -4.85557,-8.39954 -7.82138,-12.27374 -2.51461,-3.09208 -5.29873,-5.88428 -8.49345,-8.28257 -3.21074,-3.11704 -6.67011,-5.95975 -10.73771,-7.90463 -4.89368,-2.59882 -10.05611,-4.67557 -15.32745,-6.37928 -5.62747,-1.61536 -11.29019,-3.27153 -17.15637,-3.73018 -6.66968,-0.31766 -13.35307,-0.0924 -20.02838,-0.21686 -9.40582,0.0565 -18.81437,0.145 -28.21389,0.51426 -11.81069,0.55615 -23.60184,1.42848 -35.33965,2.88168 -7.58887,1.20581 -15.03005,3.13005 -22.42187,5.2153 -10.47377,3.51828 -23.23419,12.3346 16.6914,-10.91421 0.75468,-0.43945 -1.50716,0.88264 -2.26195,1.3219 -3.36573,1.95872 -1.61528,0.80333 -4.93297,3.28009 -5.73278,5.1194 -11.00454,10.68552 -16.34518,16.20742 -4.46709,6.78316 -9.49141,13.23638 -13.15429,20.51281 -4.17655,7.18687 -8.50421,14.2856 -12.70647,21.45918 0,0 -27.34269,12.37069 -27.34269,12.37069 z"
       inkscape:connector-curvature="0" />
    <path
       style="fill:#000000;stroke:#000000"
       id="path4357"
       d="m -381.92968,304.12714 c 6.95052,0.22291 13.90629,0.22843 20.8597,0.21629 1.86174,-0.003 3.7291,-0.16854 5.5852,-0.0236 1.78351,0.13926 3.53021,0.58214 5.29532,0.8732 10.29707,3.02546 19.89709,8.08473 29.37149,13.0588 6.87346,3.36991 14.48379,3.79019 21.99081,4.12449 2.97953,-0.12157 5.92739,-0.57488 8.87489,-0.99258 0,0 -23.91643,17.82348 -23.91643,17.82348 l 0,0 c -2.98983,0.30526 -5.98571,0.6093 -8.99752,0.42773 -7.84358,-0.53761 -15.69801,-1.3112 -22.70985,-5.21035 -9.05063,-5.06817 -18.41918,-10.02896 -28.60723,-12.3066 -10.60176,-1.2218 -21.32752,-0.42645 -31.98,-0.3841 0,0 24.23362,-17.60675 24.23362,-17.60675 z"
       inkscape:connector-curvature="0" />
    <path
       style="fill:#000000;stroke:#000000"
       id="path4359"
       d="m -486.8015,325.77451 c -4.5783,0.18706 -9.26189,-0.52083 -13.83045,-0.0832 -2.64637,0.25351 -4.04299,0.88066 -6.5288,1.71722 -4.92753,2.56708 -9.94491,4.77076 -15.40508,5.8583 -4.30758,0.69618 -8.68134,0.6279 -13.02956,0.62717 -3.17544,-0.33297 -6.17706,-1.53353 -9.18775,-2.53748 0,0 24.76458,-16.8084 24.76458,-16.8084 l 0,0 c 2.78935,0.91908 5.60068,1.86088 8.58248,1.76346 4.23371,-0.0688 8.5061,-0.15589 12.63875,-1.18335 5.24396,-1.48551 10.02965,-4.04759 15.17436,-5.81018 6.94824,-1.52942 13.98066,-0.9699 21.05508,-1.15031 0,0 -24.23361,17.60676 -24.23361,17.60676 z"
       inkscape:connector-curvature="0" />
    <path
       style="fill:#000000;stroke:#000000"
       id="path4361"
       d="m -294.27118,333.04887 c 43.04967,-24.31662 23.54207,-15.0835 15.89107,-7.36995 -3.51841,3.54716 -6.10906,7.53033 -8.69676,11.7659 -3.14024,6.11109 -7.32846,12.65637 -7.24422,19.81183 0.0145,1.2346 0.33066,2.44712 0.49598,3.67068 3.25256,9.43173 12.39849,13.86909 20.93694,17.6736 12.14998,4.46561 25.06635,5.71868 37.89515,6.38235 4.53672,-0.12885 9.34936,-0.149 13.67378,-1.7825 1.1347,-0.42862 4.28168,-2.28195 3.20926,-1.71523 -23.75858,12.5552 -26.95902,19.04781 -20.03155,8.0495 4.15365,-8.7775 6.85162,-18.02551 7.70918,-27.68534 -0.53725,-10.70267 -3.53599,-13.46484 -12.13738,-18.79963 -8.59215,-4.06974 -17.54159,-7.14044 -26.9509,-8.50425 -8.11204,-0.38272 -15.65569,-4.5452 -23.78036,-4.73785 -1.40849,-0.0334 -2.80888,0.22375 -4.21332,0.33562 -1.30185,0.31002 -2.60369,0.62004 -3.90554,0.93006 0,0 23.6002,-17.80654 23.6002,-17.80654 l 0,0 c 1.37881,-0.17948 2.75762,-0.35896 4.13643,-0.53844 1.49648,0.0318 2.99946,-0.0473 4.48944,0.0955 8.07074,0.77388 15.66724,4.40192 23.82143,4.76229 9.63204,1.71589 18.76012,5.24433 27.54933,9.51403 9.53068,5.98665 12.76065,9.97777 13.68982,21.58818 -0.57479,10.0495 -3.21357,19.50501 -7.14697,28.77135 -0.66879,1.49977 -0.68963,3.51809 -2.00637,4.4993 -18.71031,13.94264 -25.67536,20.69845 -45.49549,20.08459 -13.03264,-0.93468 -26.10839,-2.58746 -38.37854,-7.34122 -9.5169,-4.3923 -19.15528,-9.41169 -22.80028,-19.93249 -0.25828,-1.42664 -0.67347,-2.83363 -0.77483,-4.2799 -0.53315,-7.60729 3.4221,-14.59227 6.77381,-21.10284 11.54657,-20.34819 19.45861,-21.92954 43.20495,-34.9223 0,0 -23.51426,18.58367 -23.51426,18.58367 z"
       inkscape:connector-curvature="0" />
    <path
       style="fill:#000000;stroke:#000000"
       id="path4363"
       d="m -513.93535,319.93455 c -0.12588,3.96616 -0.08,1.90943 -0.12868,6.17038 0,0 -26.47119,13.48775 -26.47119,13.48775 l 0,0 c -0.0485,-4.19161 -0.002,-2.1786 -0.12869,-6.03925 0,0 26.72856,-13.61888 26.72856,-13.61888 z"
       inkscape:connector-curvature="0" />
  </g>
</svg>
